<svg width="2012" height="1393" xmlns="http://www.w3.org/2000/svg" xmlns:xlink="http://www.w3.org/1999/xlink" overflow="hidden"><defs><clipPath id="clip0"><rect x="1215" y="668" width="2012" height="1393"/></clipPath></defs><g clip-path="url(#clip0)" transform="translate(-1215 -668)"><path d="M2937.01 912.54 2928.62 893.697 2914.49 899.986 2898.4 863.847 2888.98 868.041 2905.07 904.179 2890.93 910.469 2899.32 929.312C2903.95 939.718 2916.14 944.4 2926.55 939.769 2936.96 935.138 2941.64 922.946 2937.01 912.54Z" fill="#2F2F2F" fill-rule="evenodd"/><path d="M2993.54 887.382 2985.15 868.538 2971.02 874.828 2954.93 838.689 2945.51 842.882 2961.6 879.021 2947.46 885.31 2955.85 904.154C2960.48 914.56 2972.67 919.242 2983.08 914.611 2993.48 909.98 2998.17 897.788 2993.54 887.382Z" fill="#2F2F2F" fill-rule="evenodd"/><path d="M2928.38 779.03 2912.32 742.926 2926.45 736.637 2918.06 717.793C2913.43 707.387 2901.24 702.705 2890.83 707.336 2880.43 711.968 2875.74 724.159 2880.38 734.566L2888.76 753.409 2902.89 747.119 2918.96 783.223 2928.38 779.03Z" fill="#2F2F2F" fill-rule="evenodd"/><path d="M2871.85 804.188 2855.79 768.084 2869.92 761.795 2861.53 742.952C2856.9 732.546 2844.71 727.863 2834.3 732.495 2823.9 737.126 2819.21 749.318 2823.85 759.724L2832.23 778.567 2846.36 772.277 2862.43 808.381 2871.85 804.188Z" fill="#2F2F2F" fill-rule="evenodd"/><path d="M1778.18 1694.75 1778.18 1694.75C1797.48 1672.98 1828.69 1643.29 1840.52 1669.87L1868.78 1657.29 1854.41 1625C1840.88 1594.6 1851.03 1558.87 1878.52 1540.12L1953.44 1489.02C1988.93 1464.82 2037.68 1478.67 2055.14 1517.91L2083.36 1505.36C2076.59 1490.14 2084.09 1469.07 2100.7 1467.9L2131.79 1465.72C2260.26 1456.72 2369.48 1364.41 2394.62 1238.09 2405.95 1181.18 2400.23 1120.24 2374.08 1061.48L2373.5 1060.18C2347.34 1001.41 2305.9 956.366 2256.04 926.695 2145.36 860.825 2003.67 880.169 1910.99 969.596L1888.56 991.236C1876.57 1002.8 1855.9 994.265 1849.13 979.049L1820.91 991.606C1838.38 1030.85 1816.04 1076.34 1774.3 1086.5L1686.19 1107.96C1653.86 1115.84 1620.52 1099.46 1606.99 1069.06L1592.62 1036.77 1564.36 1049.35C1576.19 1075.92 1533.24 1079.24 1504.15 1079.01L1504.15 1079.01C1410.11 1078.27 1321.21 1124.97 1271.04 1204.51 1212.27 1297.7 1197.59 1419.84 1239.54 1534.6 1242.68 1543.19 1248.07 1546.79 1253.65 1559.73 1259.22 1572.68 1258.78 1579.26 1263.33 1587.78 1320.64 1694.98 1420.8 1765.3 1528.9 1783.93 1621.58 1799.9 1715.78 1765.11 1778.18 1694.75Z" fill="#FFC000" fill-rule="evenodd"/><path d="M1982.27 1303.58 1931.95 1190.52 3037.44 732.393 3062.59 788.922Z" fill="#2F2F2F" fill-rule="evenodd"/><path d="M1579.16 1336.24 1637.86 1468.14 1413.82 1522.7 1263.07 1589.79 1237.91 1533.26 1388.66 1466.17Z" fill="#2F2F2F" fill-rule="evenodd"/><path d="M2958.9 733.479 2950.8 715.276 3054.32 668.887 3062.54 687.356Z" fill="#FFC000" fill-rule="evenodd"/><path d="M3017.44 865.005 3009.34 846.804 3112.86 800.415 3121.08 818.881Z" fill="#FFC000" fill-rule="evenodd"/><path d="M3100.71 773.106 3119.35 764.807 3093.77 707.321 3075.12 715.62 3070.89 706.109 2778.82 836.093 2785.7 851.547 3031.6 744.638 3049.23 784.254 2805.56 896.189 2812.4 911.555 3104.47 781.571Z" fill="#FFC000" fill-rule="evenodd"/><path d="M1826.19 1181.15C1821.47 1183.22 1824.86 1181.69 1823.8 1182.14L1823.77 1182.09 1823.7 1181.98 1823.56 1181.76 1823.27 1181.33 1822.71 1180.47 1821.54 1178.8C1820.74 1177.7 1819.9 1176.65 1819.02 1175.63 1817.3 1173.58 1815.41 1171.7 1813.39 1170.02 1809.39 1166.62 1804.91 1163.92 1800.17 1162.08 1790.73 1158.25 1780.35 1157.93 1771.04 1160.59 1748.89 1166.81 1726.59 1172.38 1704.2 1177.55 1681.81 1182.72 1659.32 1187.51 1636.73 1191.82 1623.72 1194.41 1609.99 1192.02 1598.89 1185.62 1593.37 1182.37 1588.4 1178.27 1584.47 1173.38 1582.5 1170.94 1580.74 1168.36 1579.26 1165.64 1578.54 1164.28 1577.87 1162.89 1577.26 1161.48L1576.4 1159.36 1576.03 1158.27 1575.85 1157.73 1575.76 1157.46 1575.71 1157.33 1575.69 1157.26C1576.73 1156.77 1573.32 1158.26 1578.02 1156.15 1582.74 1154.07 1579.35 1155.6 1580.41 1155.15L1580.44 1155.21 1580.51 1155.32 1580.65 1155.53 1580.93 1155.97 1581.48 1156.83 1582.63 1158.52C1583.42 1159.62 1584.25 1160.69 1585.11 1161.71 1586.84 1163.77 1588.69 1165.68 1590.7 1167.39 1594.72 1170.79 1599.16 1173.59 1603.93 1175.45 1613.41 1179.33 1623.86 1179.72 1633.24 1176.98 1655.39 1170.78 1677.66 1165.07 1700.01 1159.74 1722.37 1154.41 1744.82 1149.48 1767.42 1145.2 1773.94 1143.9 1780.68 1143.82 1787.16 1144.88 1793.64 1146 1799.84 1148.25 1805.43 1151.44 1810.99 1154.71 1815.91 1158.91 1819.86 1163.81 1821.82 1166.27 1823.55 1168.88 1825.03 1171.6 1825.75 1172.98 1826.4 1174.38 1826.99 1175.79L1827.83 1177.93 1828.19 1179.02 1828.37 1179.56 1828.45 1179.83 1828.5 1179.97 1828.52 1180.03C1827.48 1180.52 1830.89 1179.03 1826.19 1181.15Z" fill="#2F2F2F" fill-rule="evenodd"/><path d="M1918.44 1388.42C1923.16 1386.35 1919.77 1387.88 1920.83 1387.44L1920.87 1387.5 1920.94 1387.62 1921.08 1387.87 1921.37 1388.36 1921.93 1389.36 1922.96 1391.41C1923.61 1392.8 1924.22 1394.22 1924.76 1395.68 1925.79 1398.59 1926.58 1401.63 1927.09 1404.73 1928.08 1410.94 1927.91 1417.41 1926.62 1423.72 1925.25 1430.01 1922.76 1436.13 1919.26 1441.69 1915.71 1447.22 1911.14 1452.18 1905.81 1456.14 1887.5 1470.07 1868.81 1483.45 1849.89 1496.49 1830.96 1509.53 1811.82 1522.25 1792.38 1534.56 1784.08 1539.69 1777.37 1547.72 1773.91 1557.36 1772.09 1562.15 1771.21 1567.32 1771.04 1572.58 1770.96 1575.22 1771.14 1577.88 1771.52 1580.54 1771.7 1581.87 1771.94 1583.2 1772.23 1584.52L1772.71 1586.5 1772.98 1587.49 1773.12 1587.99 1773.19 1588.24 1773.23 1588.36 1773.24 1588.42C1772.2 1588.91 1775.61 1587.42 1770.9 1589.53 1766.19 1591.6 1769.58 1590.07 1768.52 1590.52L1768.48 1590.46 1768.41 1590.33 1768.28 1590.08 1768 1589.59 1767.44 1588.59 1766.43 1586.53C1765.8 1585.13 1765.21 1583.71 1764.68 1582.25 1763.65 1579.34 1762.91 1576.3 1762.42 1573.21 1761.42 1567.01 1761.69 1560.57 1762.98 1554.3 1765.65 1541.77 1773.06 1529.97 1783.7 1522.04 1802.02 1508.13 1820.63 1494.63 1839.46 1481.46 1858.29 1468.29 1877.36 1455.44 1896.8 1443.16 1905.01 1438.02 1911.72 1430.1 1915.19 1420.52 1917 1415.77 1917.99 1410.63 1918.15 1405.38 1918.24 1402.75 1918.11 1400.09 1917.74 1397.44 1917.57 1396.11 1917.35 1394.78 1917.08 1393.44L1916.62 1391.46 1916.35 1390.46 1916.22 1389.97 1916.16 1389.72 1916.12 1389.59 1916.11 1389.53C1917.15 1389.04 1913.74 1390.54 1918.44 1388.42Z" fill="#2F2F2F" fill-rule="evenodd"/><path d="M1768.73 1432.48 1748.75 1387.58 2955.85 827.962 2953.68 823.285 1746.65 1382.87 1732.04 1350.04 2947.43 809.136 2945.33 804.425 1729.95 1345.33 1715.33 1312.5 2939 790.31 2936.98 785.565 1713.24 1307.78 1693.26 1262.89 1674.41 1271.27 1694.42 1316.23 1571.94 1370.74 1574.04 1375.45 1696.52 1320.94 1711.1 1353.71 1588.62 1408.22 1590.72 1412.93 1713.2 1358.42 1727.87 1391.4 1605.39 1445.91 1607.49 1450.62 1729.97 1396.11 1749.89 1440.86Z" fill="#FFFFFF" fill-rule="evenodd"/><path d="M1704.42 1883.99C1703.26 1881.39 1704.43 1878.34 1707.03 1877.19L3063.74 1273.39C3066.34 1272.23 3069.39 1273.4 3070.55 1276.01 3071.7 1278.61 3070.53 1281.65 3067.93 1282.81L1711.22 1886.61C1708.62 1887.77 1705.57 1886.6 1704.42 1883.99Z" fill="#E6E6E6" fill-rule="evenodd"/><path d="M1711.77 1925.87 1636.45 1959.39C1628.64 1962.87 1619.5 1959.36 1616.02 1951.55 1612.55 1943.75 1616.06 1934.6 1623.87 1931.13L1699.19 1897.61 1690.8 1878.77 1589.89 1923.67C1560.33 1936.83 1545.21 1967.56 1549.52 1998.08L1452.67 2041.18C1447.47 2043.5 1445.13 2049.59 1447.44 2054.8 1449.76 2060 1455.86 2062.34 1461.06 2060.02L1555.28 2018.09 1597.67 1999.23 1720.15 1944.72C1720.15 1944.72 1724.15 1939.74 1721.11 1932.91 1718.07 1926.08 1711.77 1925.87 1711.77 1925.87Z" fill="#2F2F2F" fill-rule="evenodd"/><path d="M3194.62 1288.48C3184.83 1266.47 3188.41 1240.92 3203.61 1222.43L3223.13 1213.74C3225.48 1212.7 3226.94 1210.12 3226.29 1207.64 3225.46 1204.48 3222.05 1202.93 3219.19 1204.21L3087.54 1262.8C3085.2 1263.84 3083.73 1266.41 3084.39 1268.9 3085.22 1272.06 3088.62 1273.6 3091.48 1272.33L3110.33 1263.94 3110.47 1264.28C3118.5 1282.3 3110.39 1303.42 3092.36 1311.45L1820.11 1877.65C1820.11 1877.65 1815.5 1881.87 1818.75 1889.17 1822 1896.47 1828.5 1896.5 1828.5 1896.5L3133.39 1315.76 3194.61 1288.52C3194.62 1288.51 3194.63 1288.5 3194.62 1288.48Z" fill="#2F2F2F" fill-rule="evenodd"/><path d="M1820.11 1877.65 1828.5 1896.5 1720.15 1944.72 1711.77 1925.87Z" fill="#737373" fill-rule="evenodd"/></g></svg>