<svg width="2131" height="1079" xmlns="http://www.w3.org/2000/svg" xmlns:xlink="http://www.w3.org/1999/xlink" overflow="hidden"><defs><clipPath id="clip0"><rect x="1026" y="698" width="2131" height="1079"/></clipPath></defs><g clip-path="url(#clip0)" transform="translate(-1026 -698)"><path d="M2370.92 1349.99C2330.34 1426.12 2250.74 1462.9 2193.13 1432.13 2135.52 1401.36 2121.71 1314.71 2162.29 1238.57 2202.86 1162.44 2301.76 1089.45 2359.37 1120.21 2416.98 1150.98 2411.49 1273.85 2370.92 1349.99Z" fill="#FFC000" fill-rule="evenodd"/><path d="M1996.02 1301.48C2052.03 1383.61 2047.09 1484.68 1985 1527.21 1922.92 1569.74 1827.18 1537.64 1771.18 1455.5 1715.18 1373.37 1693.47 1233.24 1755.56 1190.71 1817.64 1148.18 1940.02 1219.35 1996.02 1301.48Z" fill="#FFC000" fill-rule="evenodd"/><path d="M2923.09 1229.88 3156.98 1427.95C3157.01 1427.98 3157.01 1428 3156.97 1428L3086.33 1428C3033.74 1428 2985.07 1400.1 2958.31 1354.63L2865.01 1196.05C2864.99 1196 2865 1195.99 2865.05 1196.01L2923.09 1229.88Z" fill="#737373" fill-rule="evenodd"/><path d="M2921.17 1279.54C2921.07 1279.37 2921.09 1279.36 2921.21 1279.51 2945.14 1310.72 3010.17 1383.07 3101.11 1387.07L3101.22 1384.49C2987.04 1379.47 2914 1265.15 2913.28 1264L2911 1265.19C2911.59 1266.59 2971.89 1405.02 3111.78 1417L3112 1414.43C3001.68 1404.98 2941.37 1315.91 2921.17 1279.54Z" fill="#505050" fill-rule="evenodd"/><path d="M2572.47 1335C2570.56 1335 2568.64 1334.28 2567.19 1332.83 2564.27 1329.94 2564.27 1325.25 2567.19 1322.36L2692.25 1198.17C2695.17 1195.27 2699.9 1195.28 2702.81 1198.17 2705.73 1201.06 2705.73 1205.75 2702.81 1208.64L2577.75 1332.83C2576.29 1334.28 2574.38 1335 2572.47 1335Z" fill="#505050" fill-rule="evenodd"/><path d="M2529.93 709.303 2922.99 1229.96C2923.01 1229.98 2923 1230 2922.97 1230L2819.47 1229.2C2628.96 1228.3 2350 1093.69 2350 914.936L2350 909.691C2350 909.691 2381.25 850.432 2381.25 797.28 2381.25 769.414 2350.02 752.996 2350.06 752.031 2353.93 664.927 2529.93 709.303 2529.93 709.303Z" fill="#D1D1D1" fill-rule="evenodd"/><path d="M2640.44 1339C2638.57 1339 2636.71 1338.3 2635.26 1336.9 2632.31 1334.02 2632.24 1329.29 2635.1 1326.33L2769.23 1187.27C2772.08 1184.31 2776.79 1184.23 2779.74 1187.11 2782.69 1189.98 2782.76 1194.71 2779.9 1197.67L2645.78 1336.73C2644.32 1338.24 2642.38 1339 2640.44 1339Z" fill="#505050" fill-rule="evenodd"/><path d="M2350.03 752 2434 752 2434 757.571C2434 819.529 2402.27 877.122 2350.04 909.996 2350.02 910.007 2350 909.994 2350 909.973L2350 752.023C2350 752.011 2350.01 752 2350.03 752Z" fill="#505050" fill-rule="evenodd"/><path d="M2417 780C2417 786.075 2412.08 791 2406 791 2399.93 791 2395 786.075 2395 780 2395 773.925 2399.93 769 2406 769 2412.08 769 2417 773.925 2417 780Z" fill="#FFFFFF" fill-rule="evenodd"/><path d="M2350.28 767 2276.02 798.292C2276 798.3 2276 798.328 2276.01 798.339L2350.28 842 2380 798.331C2380 798.32 2380 798.307 2379.99 798.297L2350.28 767Z" fill="#FFC000" fill-rule="evenodd"/><path d="M2387.6 800 2290.4 800C2289.63 800 2289 799.329 2289 798.5 2289 797.671 2289.63 797 2290.4 797L2387.6 797C2388.37 797 2389 797.671 2389 798.5 2389 799.329 2388.37 800 2387.6 800Z" fill="#505050" fill-rule="evenodd"/><path d="M2722.1 974.927C2657.82 914.678 2567.37 891.306 2482.02 912.885 2482.01 912.887 2482 912.885 2482 912.9 2482.09 913.241 2485.1 924.436 2486.89 930.094 2535.58 1083.82 2696.08 1172.65 2853.13 1137.26L2889.98 1132.33C2890 1132.33 2890.01 1132.3 2889.99 1132.28L2722.1 974.927Z" fill="#737373" fill-rule="evenodd"/><path d="M2865 1107.35C2775.47 1104.16 2651.18 1083.72 2567.5 1004.45 2517.48 957.08 2505.62 910.466 2505.5 910L2503 910.61C2503.11 911.083 2515.1 958.308 2565.59 1006.19 2571.19 1011.5 2576.98 1016.53 2582.91 1021.33L2587.17 1025.77C2588.21 1026.82 2692.19 1131.25 2825.68 1143L2825.91 1140.44C2718.65 1130.99 2630.52 1061.23 2600.26 1034.42 2600.09 1034.27 2600.11 1034.26 2600.3 1034.39 2681.72 1091.15 2786.56 1107.13 2864.91 1109.92L2865 1107.35Z" fill="#505050" fill-rule="evenodd"/><path d="M2837.88 1085C2719.66 1079.12 2642.26 1030.55 2598.15 990.84 2550.33 947.791 2530.2 905.525 2530 905.103L2532.33 904C2532.52 904.419 2552.49 946.29 2599.96 988.994 2643.76 1028.39 2720.6 1076.58 2838 1082.41L2837.88 1085Z" fill="#505050" fill-rule="evenodd"/><path d="M2631.86 1615 1699.13 1615C1615.11 1615 1547 1546.95 1547 1463L1547 1463C1547 1379.05 1615.11 1311 1699.13 1311L2631.87 1311C2715.89 1311 2784 1379.05 2784 1463L2784 1463C2784 1546.95 2715.89 1615 2631.86 1615Z" fill="#505050" fill-rule="evenodd"/><path d="M1386.53 1613.16C1387.5 1613.16 1388.45 1613.22 1389.39 1613.33 1442.2 1533.41 1454.81 1449.3 1455 1448.01 1455 1448 1455.01 1448 1454.99 1448 1453.52 1448.22 1326.4 1467.35 1236.35 1557.68 1146.3 1648.01 1127.22 1775.52 1127 1776.99 1127 1777.01 1127 1777 1127.01 1777 1128.48 1776.78 1255.6 1757.64 1345.65 1667.32 1351.41 1661.54 1356.88 1655.61 1362.07 1649.58 1360.83 1646.51 1360.13 1643.16 1360.13 1639.64 1360.13 1625.02 1371.95 1613.16 1386.53 1613.16Z" fill="#D1D1D1" fill-rule="evenodd"/><path d="M1558 1347.82 1556.18 1346 1377.07 1525.11 1301.88 1525.11 1301.88 1527.69 1374.49 1527.69 1335.64 1566.54 1260.36 1566.54 1260.36 1569.11 1333.07 1569.11 1293.53 1608.65 1218.56 1608.65 1218.56 1611.23 1290.95 1611.23 1214 1688.18 1215.82 1690 1292.99 1612.83 1292.99 1680.99 1295.56 1680.99 1295.56 1610.26 1334.79 1571.03 1334.79 1638.87 1337.37 1638.87 1337.36 1568.46 1376.31 1529.51 1376.31 1597.45 1378.89 1597.45 1378.89 1526.93Z" fill="#737373" fill-rule="evenodd"/><path d="M1474 1309 2845 1309 2845 1314 1474 1314Z" fill="#505150" fill-rule="evenodd"/><path d="M1545.25 1642.71 2261.01 1210.54 2263.67 1214.96 1547.91 1647.12Z" fill="#505150" fill-rule="evenodd"/><path d="M2405.49 1273.49 2406.44 1268.42 2773.96 1337.3 2773.01 1342.36Z" fill="#505150" fill-rule="evenodd"/><path d="M1417.14 1405.98 1418.76 1401.08 2146.52 1642.47 2144.89 1647.36Z" fill="#2F2F2F" fill-rule="evenodd"/><path d="M1575.31 1404.79 1575.58 1402.22 2328.14 1481.68 2327.86 1484.24Z" fill="#737373" fill-rule="evenodd"/><path d="M1589.98 1252.73 1595.45 1243.99 2187.09 1613.88 2181.62 1622.62Z" fill="#737373" fill-rule="evenodd"/><path d="M1652.09 1640.01 2421.05 1398.54 2424.14 1408.38 1655.18 1649.85Z" fill="#737373" fill-rule="evenodd"/><path d="M1546.47 1559.92 2405.98 1542.3 2406.08 1547.46 1546.58 1565.08Z" fill="#D1D1D1" fill-rule="evenodd"/><path d="M1885.74 1194.48 1888.01 1189.85 2797.09 1636.69 2794.82 1641.32Z" fill="#2F2F2F" fill-rule="evenodd"/><path d="M2441.96 1253.13 2460.3 1243.69 2681.47 1673.23 2663.13 1682.67Z" fill="#737373" fill-rule="evenodd"/><path d="M2680 1349 1365.13 1349 1332 1316.57 1335.65 1313 1367.27 1343.95 2680 1343.95Z" fill="#737373" fill-rule="evenodd"/><path d="M2365.78 1515.35 2671.37 1401.29 2673.17 1406.11 2367.59 1520.18Z" fill="#2F2F2F" fill-rule="evenodd"/><path d="M1976.19 1312.53 2434.39 1293.04 2434.61 1298.19 1976.41 1317.68Z" fill="#505150" fill-rule="evenodd"/><path d="M1682.26 1267.25 1682.98 1262.15 2112.94 1322.68 2112.22 1327.78Z" fill="#505150" fill-rule="evenodd"/><path d="M2084.74 1480.91 2085.13 1478.36 2315.14 1513.95 2314.75 1516.5Z" fill="#2F2F2F" fill-rule="evenodd"/><path d="M1189.34 1265.53C1189.34 1266.5 1189.28 1267.45 1189.18 1268.39 1268.85 1321.2 1352.71 1333.81 1353.99 1334 1354 1334 1354 1334.01 1354 1333.99 1353.78 1332.52 1334.7 1205.4 1244.65 1115.35 1154.61 1025.3 1027.48 1006.22 1026.01 1006 1026 1006 1026 1006 1026 1006.01 1026.22 1007.48 1045.3 1134.6 1135.35 1224.65 1141.1 1230.41 1147.02 1235.88 1153.04 1241.07 1156.1 1239.83 1159.44 1239.13 1162.94 1239.13 1177.52 1239.13 1189.34 1250.95 1189.34 1265.53ZM1083.5 1111.37C1072.53 1113.81 1062.96 1104.24 1065.39 1093.26 1066.62 1087.73 1071.08 1083.27 1076.61 1082.04 1087.59 1079.61 1097.15 1089.17 1094.72 1100.15 1093.5 1105.68 1089.04 1110.14 1083.5 1111.37ZM1102.84 1142.61C1096.97 1143.72 1091.91 1138.67 1093.03 1132.8 1093.65 1129.54 1096.31 1126.87 1099.58 1126.26 1105.45 1125.14 1110.5 1130.19 1109.39 1136.06 1108.77 1139.32 1106.1 1141.99 1102.84 1142.61Z" fill="#737373" fill-rule="evenodd"/><path d="M1335 1313.18 1278.85 1257.03 1278.85 1181.86 1276.27 1181.86 1276.27 1254.45 1237.02 1215.2 1237.02 1140.11 1234.45 1140.11 1234.45 1212.63 1195.33 1173.51 1195.33 1098.3 1192.76 1098.3 1192.76 1170.93 1115.82 1094 1114 1095.82 1190.89 1172.71 1123.01 1172.71 1123.01 1175.29 1193.46 1175.29 1232.7 1214.52 1164.7 1214.52 1164.7 1217.1 1235.28 1217.1 1274.45 1256.27 1206.53 1256.27 1206.53 1258.85 1277.03 1258.85 1333.18 1315Z" fill="#505050" fill-rule="evenodd"/><path d="M2855.66 1633.55C2867.63 1637.5 2876.11 1648.64 2876.9 1661.22 2877.33 1667.98 2875.61 1673.99 2872.62 1679.06 2921.88 1714.82 2965.97 1730.69 2966.84 1731 2966.86 1731 2966.86 1731 2966.86 1730.99 2966.93 1729.5 2972.56 1608.65 2905.95 1509.03 2839.34 1409.41 2725.55 1368.5 2724.16 1368 2724.14 1368 2724.15 1368 2724.15 1368.01 2724.07 1369.5 2718.44 1490.35 2785.05 1589.97 2797.35 1608.35 2811.25 1624.72 2825.75 1639.22 2833.67 1632.61 2844.75 1629.96 2855.66 1633.55Z" fill="#737373" fill-rule="evenodd"/><path d="M2910 1555.99 2845.26 1543.09 2815.6 1499.44 2877.7 1511.81 2878.2 1509.28 2813.53 1496.39 2784.75 1454.05 2846.95 1466.44 2847.45 1463.91 2782.69 1451.01 2718.12 1356 2716 1357.46 2780.56 1452.47 2766.88 1521.8 2769.4 1522.3 2782.6 1455.46 2811.33 1497.74 2797.63 1567.17 2800.15 1567.67 2813.36 1500.72 2843.12 1544.51 2829.43 1613.88 2831.95 1614.38 2845.15 1547.5 2902.57 1632 2904.69 1630.54 2847.33 1546.13 2909.5 1558.52Z" fill="#505050" fill-rule="evenodd"/></g></svg>