<svg width="2477" height="1688" xmlns="http://www.w3.org/2000/svg" xmlns:xlink="http://www.w3.org/1999/xlink" overflow="hidden"><defs><clipPath id="clip0"><rect x="51" y="519" width="2477" height="1688"/></clipPath></defs><g clip-path="url(#clip0)" transform="translate(-51 -519)"><path d="M51.3538 2126.33C44.9684 1709.79 187.912 1347.53 366.72 1237.88 763.623 994.493 992.656 1245.7 1205.73 994.168 1368.66 801.838 1291.04 581.588 1439.05 528.211 1575.1 479.143 1671.82 654.028 1931.79 631.172 2062.83 619.652 2126.52 587.211 2220.75 609.362 2355.99 641.152 2452.77 770.225 2444.39 904.063 2434.78 1057.47 2248.59 1056.47 2121.26 1269.31 1965.2 1530.18 2124.94 1732.19 1988.11 1846.18 1817.04 1988.71 1515.48 1716.17 1288.95 1874.5 1135.22 1981.95 1165.38 2183.46 1044.32 2204.84 933.621 2224.39 822.134 2095.72 644.526 2177.46 450.135 2266.91 383.233 2096.61 51.3538 2126.33Z" fill="#2F2F2F" fill-rule="evenodd"/><path d="M295.186 1844.01C289.631 1842.19 284.004 1841.37 278.483 1841.44 278.44 1841.44 278.434 1841.46 278.469 1841.48 296.575 1853.79 305.473 1876.83 298.853 1898.92 292.233 1921.01 272.128 1935.36 250.236 1935.68 250.192 1935.69 250.186 1935.71 250.222 1935.73 254.444 1938.58 259.156 1940.85 264.293 1942.39 292.372 1950.81 322.001 1934.15 329.156 1905.37 335.593 1879.46 320.549 1852.33 295.186 1844.01Z" fill="#505050" fill-rule="evenodd"/><path d="M298.853 1898.92C291.052 1924.95 269.25 1941.41 250.155 1935.69 231.06 1929.96 221.904 1904.22 229.705 1878.2 237.505 1852.17 259.308 1835.71 278.403 1841.44 297.498 1847.16 306.654 1872.9 298.853 1898.92Z" fill="#737373" fill-rule="evenodd"/><path d="M585.742 1776.54C584.819 1762.19 580.892 1747.8 573.623 1734.31 552.619 1695.33 510.128 1675.33 468.692 1681.06 431.83 1712.25 396.817 1783.58 389.456 1826.96 390.274 1828.7 391.132 1830.43 392.052 1832.15 405.189 1856.53 426.738 1873.46 451.167 1881.34 482.512 1876.01 572.182 1806.71 585.742 1776.54Z" fill="#D2D2D2" fill-rule="evenodd"/><path d="M585.742 1776.54C584.819 1762.19 580.892 1747.8 573.623 1734.31 552.619 1695.33 510.128 1675.33 468.692 1681.06 431.83 1712.25 396.817 1783.58 389.456 1826.96 390.274 1828.7 391.132 1830.43 392.052 1832.15 405.189 1856.53 426.738 1873.46 451.167 1881.34 482.512 1876.01 572.182 1806.71 585.742 1776.54Z" fill="#D2D2D2" fill-rule="evenodd"/><path d="M531.755 1874.02C568.404 1854.27 588.251 1815.54 585.742 1776.54 571.74 1781.35 557.349 1787.6 543.021 1795.32 498.164 1819.49 464.803 1852.01 451.166 1881.34 476.976 1889.67 505.997 1887.89 531.755 1874.02Z" fill="#E6E6E6" fill-rule="evenodd"/><path d="M531.755 1874.02C568.404 1854.27 588.251 1815.54 585.742 1776.54 571.74 1781.35 557.349 1787.6 543.021 1795.32 498.164 1819.49 464.803 1852.01 451.166 1881.34 476.976 1889.67 505.997 1887.89 531.755 1874.02Z" fill="#E6E6E6" fill-rule="evenodd"/><path d="M468.692 1681.06C456.841 1682.7 445.072 1686.43 433.921 1692.44 385.495 1718.53 366.366 1777.77 389.456 1826.96 417.278 1809.34 444.871 1768.13 460.492 1716.01 464.04 1704.16 466.76 1692.45 468.692 1681.06Z" fill="#E6E6E6" fill-rule="evenodd"/><path d="M468.692 1681.06C456.841 1682.7 445.072 1686.43 433.921 1692.44 385.495 1718.53 366.366 1777.77 389.456 1826.96 417.278 1809.34 444.871 1768.13 460.492 1716.01 464.04 1704.16 466.76 1692.45 468.692 1681.06Z" fill="#E6E6E6" fill-rule="evenodd"/><path d="M506.559 1800.34C505.111 1805.18 500.06 1807.93 495.278 1806.5 490.495 1805.06 487.792 1799.99 489.24 1795.15 490.689 1790.32 495.74 1787.57 500.522 1789 505.304 1790.43 508.007 1795.51 506.559 1800.34Z" fill="#F2F2F2" fill-rule="evenodd"/><path d="M513.975 1759.47C511.801 1766.73 504.237 1770.87 497.081 1768.73 489.925 1766.58 485.887 1758.96 488.062 1751.71 490.237 1744.45 497.801 1740.31 504.956 1742.45 512.112 1744.6 516.15 1752.22 513.975 1759.47Z" fill="#F2F2F2" fill-rule="evenodd"/><path d="M660.716 1464.51C667.47 1477.04 662.783 1492.68 650.249 1499.43 637.714 1506.19 622.078 1501.5 615.324 1488.96 608.57 1476.43 613.256 1460.79 625.791 1454.04 638.326 1447.29 653.962 1451.97 660.716 1464.51Z" fill="#FFC000" fill-rule="evenodd"/><path d="M682.016 1721.03C693.921 1731.6 707.587 1742.87 722.15 1754.19 731.367 1757.29 741.066 1759.43 751.164 1760.39 767.307 1761.93 783.022 1760.39 797.771 1756.31 800.136 1728.62 784.316 1666.46 762.377 1624.72 739.219 1580.66 711.717 1547.09 677.102 1536.32 653.956 1557.16 638.242 1586.39 635.059 1619.84 633.028 1641.15 636.339 1661.72 643.842 1680.28 653.379 1695.04 669.902 1710.28 682.016 1721.03Z" fill="#FFFFFF" fill-rule="evenodd"/><path d="M770.473 1612.07C798.209 1682.58 860.907 1695.88 876.374 1694.16 884.603 1679.2 889.998 1662.37 891.717 1644.29 898.081 1577.51 852.275 1517.8 787.659 1505.49 774.795 1518.63 752.551 1566.51 770.473 1612.07Z" fill="#FFFFFF" fill-rule="evenodd"/><path d="M722.15 1754.19C716.358 1740.32 709.387 1724.57 691.107 1711.16 678.048 1701.58 675.922 1705.45 661.53 1695.4 659.382 1693.9 652.137 1688.7 643.937 1680.37 643.915 1680.35 643.88 1680.37 643.891 1680.4 657.77 1714.62 686.012 1741.92 721.845 1754.08 721.872 1754.09 722.01 1754.14 722.15 1754.19Z" fill="#FFC000" fill-rule="evenodd"/><path d="M876.372 1694.16C868.36 1690.05 860.979 1682.88 857.71 1673.46 849.449 1649.67 857.616 1629.17 842.555 1615.05 826.359 1599.86 796.098 1619.55 784.013 1604.29 774.841 1592.72 783.809 1570.71 784.868 1568.12 793.47 1547.01 811.427 1541.51 809.069 1531.58 806.883 1522.38 790.679 1523.83 787.435 1513.98 786.603 1511.45 786.762 1508.54 787.66 1505.49 783.708 1504.73 779.697 1504.14 775.612 1503.75 738.19 1500.18 702.994 1513 677.103 1536.32 693.586 1547.84 705.073 1585.62 700.152 1616.21 695.485 1645.22 674.148 1679.55 673.288 1680.93 673.271 1680.97 673.292 1680.97 673.328 1680.95 694.722 1673.82 721.203 1668.6 735.351 1681.71 746.391 1691.94 742.198 1706.18 749.649 1721.92 755.482 1734.24 768.435 1747.4 797.749 1756.3 831.248 1747.03 859.674 1724.48 876.372 1694.16Z" fill="#FFC000" fill-rule="evenodd"/><path d="M995.797 1389.71C958.396 1409.86 938.475 1449.78 941.975 1489.58L1108.81 1399.69C1077.5 1374.88 1033.2 1369.56 995.797 1389.71Z" fill="#505050" fill-rule="evenodd"/><path d="M981.519 1561.98C985.672 1565.2 990.044 1568.08 994.598 1570.6 994.598 1570.6 1021.06 1575.22 1049.7 1567.65 1078.34 1560.09 1144.95 1504.67 1144.95 1504.67 1147.47 1494.23 1148.36 1483.39 1147.53 1472.54 1147.53 1472.54 1084.08 1453.4 1034.32 1486.07 984.565 1518.73 981.519 1561.98 981.519 1561.98Z" fill="#737373" fill-rule="evenodd"/><path d="M1093.63 1571.28C1120.48 1556.81 1138.31 1532.15 1144.95 1504.67 1144.95 1504.67 1123.31 1493.49 1078.6 1532.52 1036.04 1569.67 996.916 1570.58 994.698 1570.6 994.641 1570.6 994.64 1570.63 994.688 1570.65 1024.38 1587.09 1061.53 1588.57 1093.63 1571.28Z" fill="#505050" fill-rule="evenodd"/><path d="M1108.81 1399.69C1108.81 1399.69 1065.12 1393.36 1001.74 1433.36 968.754 1454.18 941.975 1489.58 941.975 1489.58 943.166 1503.13 947.061 1516.67 953.926 1529.41 954.682 1530.81 955.476 1532.18 956.287 1533.54 956.287 1533.54 1001.34 1529.3 1036.4 1500.69 1071.45 1472.07 1124.82 1415.57 1124.82 1415.57 1120.02 1409.63 1114.64 1404.32 1108.81 1399.69Z" fill="#2F2F2F" fill-rule="evenodd"/><path d="M1135.5 1431.58C1132.39 1425.81 1128.8 1420.48 1124.82 1415.57 1124.82 1415.57 1072.35 1423.04 1037.2 1461.11 978.021 1525.21 956.287 1533.54 956.287 1533.54 963.038 1544.81 971.655 1554.34 981.519 1561.98 981.519 1561.98 997.225 1511.94 1042.45 1519.78 1085.64 1527.27 1147.53 1472.54 1147.53 1472.54 1146.46 1458.61 1142.55 1444.67 1135.5 1431.58Z" fill="#505050" fill-rule="evenodd"/><path d="M1095.32 1491.71C1093.88 1496.53 1088.81 1499.26 1083.99 1497.82 1079.18 1496.37 1076.45 1491.3 1077.89 1486.49 1079.33 1481.68 1084.4 1478.94 1089.22 1480.39 1094.03 1481.83 1096.76 1486.9 1095.32 1491.71Z" fill="#737373" fill-rule="evenodd"/><path d="M1119.97 1455.4C1117.81 1462.62 1110.2 1466.72 1102.98 1464.56 1095.76 1462.39 1091.66 1454.79 1093.83 1447.57 1095.99 1440.35 1103.6 1436.25 1110.82 1438.41 1118.04 1440.58 1122.13 1448.18 1119.97 1455.4Z" fill="#2F2F2F" fill-rule="evenodd"/><path d="M1509.72 1244.39C1509.72 1244.39 1482 1206.54 1400.01 1182.8 1321.01 1159.93 1270.77 1186.01 1270.77 1186.01 1264.12 1191.38 1257.98 1197.2 1252.42 1203.45 1252.42 1203.45 1264.4 1226.67 1376.52 1260.28 1488.64 1293.88 1519.16 1273.47 1519.16 1273.47 1517.02 1263.63 1513.89 1253.9 1509.72 1244.39Z" fill="#E6E6E6" fill-rule="evenodd"/><path d="M1504.19 1232.93C1498.55 1222.46 1491.85 1212.95 1484.34 1204.36 1445.18 1159.6 1383.94 1141.31 1326.65 1157.26 1315.75 1160.3 1305.01 1164.53 1294.63 1170.13 1286.08 1174.74 1278.16 1180.07 1270.85 1185.95 1270.81 1185.98 1270.81 1186.01 1270.87 1186 1273.43 1185.57 1329.32 1176.71 1421.41 1204.32 1482.32 1222.57 1508.02 1243 1509.64 1244.32 1509.68 1244.36 1509.7 1244.34 1509.68 1244.29 1508 1240.46 1506.2 1236.67 1504.19 1232.93Z" fill="#D2D2D2" fill-rule="evenodd"/><path d="M1519.17 1273.47C1519.17 1273.47 1492.09 1250.24 1398.89 1222.31 1297.61 1191.95 1252.42 1203.45 1252.42 1203.45 1239.87 1217.55 1230.19 1233.72 1223.58 1251.02L1491.18 1386.42 1502.61 1382.49C1521.06 1349.82 1527.33 1310.97 1519.17 1273.47Z" fill="#F2F2F2" fill-rule="evenodd"/><path d="M1502.61 1382.49C1502.61 1382.49 1378.94 1339.62 1413.93 1299.13 1451.81 1255.29 1223.58 1251.02 1223.58 1251.02 1219.35 1262.08 1216.38 1273.59 1214.76 1285.34 1214.76 1285.34 1231.85 1311.92 1342.98 1356.62 1458.82 1403.22 1491.02 1400.07 1491.02 1400.07 1495.3 1394.46 1499.17 1388.59 1502.61 1382.49Z" fill="#D2D2D2" fill-rule="evenodd"/><path d="M1502.61 1382.49C1502.61 1382.49 1378.94 1339.62 1413.93 1299.13 1451.81 1255.29 1223.58 1251.02 1223.58 1251.02 1219.35 1262.08 1216.38 1273.59 1214.76 1285.34 1214.76 1285.34 1231.85 1311.92 1342.98 1356.62 1458.82 1403.22 1491.02 1400.07 1491.02 1400.07 1495.3 1394.46 1499.17 1388.59 1502.61 1382.49Z" fill="#D2D2D2" fill-rule="evenodd"/><path d="M1428.68 1448.57C1428.68 1448.57 1415.83 1430.85 1338.28 1407.61 1260.74 1384.37 1239.09 1391.75 1239.09 1391.75 1280.17 1453.89 1360.18 1477.87 1428.68 1448.57Z" fill="#D2D2D2" fill-rule="evenodd"/><path d="M1441.38 1442.48C1461.42 1431.69 1478.08 1417.08 1491.02 1400.07L1214.76 1285.34C1210.45 1316.7 1215.66 1349.67 1231.83 1379.67 1234.08 1383.85 1236.52 1387.86 1239.09 1391.75 1239.09 1391.75 1297.67 1420.34 1332.59 1430.81 1367.52 1441.28 1428.68 1448.57 1428.68 1448.57 1432.96 1446.74 1437.2 1444.73 1441.38 1442.48Z" fill="#E6E6E6" fill-rule="evenodd"/><path d="M1441.38 1442.48C1461.42 1431.69 1478.08 1417.08 1491.02 1400.07L1214.76 1285.34C1210.45 1316.7 1215.66 1349.67 1231.83 1379.67 1234.08 1383.85 1236.52 1387.86 1239.09 1391.75 1239.09 1391.75 1297.67 1420.34 1332.59 1430.81 1367.52 1441.28 1428.68 1448.57 1428.68 1448.57 1432.96 1446.74 1437.2 1444.73 1441.38 1442.48Z" fill="#E6E6E6" fill-rule="evenodd"/><path d="M1385.44 1392.99C1381.35 1406.63 1345.97 1408.08 1306.42 1396.22 1266.86 1384.37 1238.11 1363.7 1242.2 1350.06 1246.29 1336.42 1281.67 1334.98 1321.22 1346.83 1360.78 1358.69 1389.53 1379.35 1385.44 1392.99Z" fill="#D2D2D2" fill-rule="evenodd"/><path d="M1350.67 1375.71C1348.98 1381.33 1334.4 1381.92 1318.09 1377.03 1301.79 1372.15 1289.94 1363.63 1291.62 1358.01 1293.3 1352.39 1307.89 1351.8 1324.19 1356.69 1340.5 1361.57 1352.35 1370.09 1350.67 1375.71Z" fill="#E6E6E6" fill-rule="evenodd"/><path d="M1801.23 1219.31C1810.34 1214.4 1818.59 1208.53 1825.99 1201.93 1825.99 1201.93 1823.1 1135.21 1801.36 1080.24 1779.61 1025.28 1732.6 977.138 1732.6 977.138 1714.37 978.183 1696.08 983.113 1678.94 992.345 1660.17 1002.46 1644.96 1016.57 1633.71 1033.04 1633.71 1033.04 1644.01 1082.61 1682.69 1142.11 1721.38 1201.61 1764.6 1232.41 1764.6 1232.41 1777.1 1229.99 1789.44 1225.66 1801.23 1219.31Z" fill="#F2F2F2" fill-rule="evenodd"/><path d="M1801.23 1219.31C1810.34 1214.4 1818.59 1208.53 1825.99 1201.93 1825.99 1201.93 1823.1 1135.21 1801.36 1080.24 1779.61 1025.28 1732.6 977.138 1732.6 977.138 1714.37 978.183 1696.08 983.113 1678.94 992.345 1660.17 1002.46 1644.96 1016.57 1633.71 1033.04 1633.71 1033.04 1644.01 1082.61 1682.69 1142.11 1721.38 1201.61 1764.6 1232.41 1764.6 1232.41 1777.1 1229.99 1789.44 1225.66 1801.23 1219.31Z" fill="#F2F2F2" fill-rule="evenodd"/><path d="M1633.71 1033.04C1629.52 1039.17 1625.87 1045.62 1622.82 1052.33 1622.82 1052.33 1628.76 1111.95 1655.29 1158.12 1681.82 1204.29 1720.27 1233.19 1720.27 1233.19 1734.81 1235.46 1749.81 1235.28 1764.6 1232.41L1633.71 1033.04Z" fill="#D2D2D2" fill-rule="evenodd"/><path d="M1633.71 1033.04C1629.52 1039.17 1625.87 1045.62 1622.82 1052.33 1622.82 1052.33 1628.76 1111.95 1655.29 1158.12 1681.82 1204.29 1720.27 1233.19 1720.27 1233.19 1734.81 1235.46 1749.81 1235.28 1764.6 1232.41L1633.71 1033.04Z" fill="#D2D2D2" fill-rule="evenodd"/><path d="M1626.6 1166.97C1646.5 1203.89 1681.8 1227.17 1720.27 1233.19L1622.82 1052.33C1606.69 1087.76 1606.71 1130.05 1626.6 1166.97Z" fill="#E6E6E6" fill-rule="evenodd"/><path d="M1626.6 1166.97C1646.5 1203.89 1681.8 1227.17 1720.27 1233.19L1622.82 1052.33C1606.69 1087.76 1606.71 1130.05 1626.6 1166.97Z" fill="#E6E6E6" fill-rule="evenodd"/><path d="M1853.57 1044.68C1829.03 999.141 1781.04 974.35 1732.6 977.138L1825.99 1201.93C1869.48 1163.12 1882.43 1098.25 1853.57 1044.68Z" fill="#D2D2D2" fill-rule="evenodd"/><path d="M1853.57 1044.68C1829.03 999.141 1781.04 974.35 1732.6 977.138L1825.99 1201.93C1869.48 1163.12 1882.43 1098.25 1853.57 1044.68Z" fill="#D2D2D2" fill-rule="evenodd"/><path d="M1827.34 1200.58C1823.64 1204 1819.7 1207.21 1815.56 1210.22 1820.75 1233.97 1819.88 1250.38 1811.66 1254.81 1803.11 1259.42 1788.08 1250.21 1770.18 1231.33 1748.6 1208.57 1722.85 1171.73 1699.21 1127.85 1675.56 1083.97 1658.96 1042.21 1651.82 1011.67 1645.9 986.33 1646.48 968.714 1655.03 964.107 1663.25 959.682 1677.44 967.981 1694.41 985.379 1699.21 983.575 1704.06 982.046 1708.94 980.844 1671.94 932.154 1638.84 904.784 1622.69 913.485 1605.74 922.618 1611.7 969.21 1634.65 1031.27 1646.48 1063.28 1662.83 1099.41 1682.89 1136.64 1702.95 1173.88 1724.13 1207.4 1744.36 1234.9 1783.57 1288.19 1819.2 1318.8 1836.15 1309.66 1852.3 1300.96 1847.65 1258.26 1827.34 1200.58Z" fill="#E6E6E6" fill-rule="evenodd"/><path d="M2084.26 921.192C2067.61 890.291 2012.19 868.909 1985.1 889.56 1961.38 913.079 1954.83 950.252 1971.48 981.152 1988.13 1012.06 2022.77 1027.04 2055.46 1020.16 2082.06 1014.73 2100.91 952.092 2084.26 921.192Z" fill="#737373" fill-rule="evenodd"/><path d="M2008.71 873.546C1999.61 877.515 1991.73 882.993 1985.16 889.5 1985.13 889.533 1985.14 889.553 1985.18 889.543 2017.85 882.711 2052.44 897.693 2069.08 928.567 2085.71 959.442 2079.2 996.576 2055.53 1020.1 2055.49 1020.13 2055.5 1020.15 2055.55 1020.14 2062.61 1018.65 2069.58 1016.15 2076.26 1012.56 2115.06 991.649 2128.8 942.361 2105.62 904.206 2086.69 873.051 2042.12 858.959 2008.71 873.546Z" fill="#505050" fill-rule="evenodd"/><path d="M2084.89 910.451C2086.16 912.819 2073.79 921.962 2057.24 930.873 2040.7 939.785 2026.26 945.09 2024.98 942.722 2023.71 940.355 2036.08 931.212 2052.62 922.301 2069.17 913.389 2083.61 908.084 2084.89 910.451Z" fill="#2F2F2F" fill-rule="evenodd"/><path d="M2285.52 811.234C2271.69 785.568 2221.37 765.453 2197.63 782.394 2182.91 805.297 2180.74 835.292 2194.57 860.957 2208.4 886.625 2234.64 901.308 2261.86 901.614 2287.71 890.123 2299.35 836.902 2285.52 811.234Z" fill="#505050" fill-rule="evenodd"/><path d="M2229.07 754.599C2215.69 761.066 2205.08 770.811 2197.66 782.353 2197.64 782.376 2197.65 782.395 2197.68 782.394 2224.88 782.714 2251.1 797.396 2264.93 823.048 2278.75 848.698 2276.58 878.673 2261.89 901.573 2261.88 901.596 2261.88 901.615 2261.91 901.615 2274.56 901.745 2287.42 898.782 2299.34 892.359 2338.38 871.32 2352.05 821.556 2328.27 783.309 2307.59 750.052 2264.32 737.555 2229.07 754.599Z" fill="#737373" fill-rule="evenodd"/><path d="M2295.04 778.57C2296.32 780.937 2283.94 790.08 2267.4 798.992 2250.86 807.903 2236.41 813.208 2235.14 810.841 2233.86 808.474 2246.24 799.331 2262.78 790.419 2279.32 781.508 2293.77 776.203 2295.04 778.57Z" fill="#2F2F2F" fill-rule="evenodd"/><path d="M2286.78 851.058C2288.05 853.425 2275.68 862.568 2259.14 871.48 2242.59 880.391 2228.15 885.696 2226.87 883.329 2225.6 880.962 2237.98 871.819 2254.52 862.907 2271.06 853.996 2285.5 848.691 2286.78 851.058Z" fill="#2F2F2F" fill-rule="evenodd"/><path d="M2518.84 677.721C2534.36 701.603 2527.58 733.539 2503.69 749.052 2479.81 764.566 2447.88 757.782 2432.36 733.901 2416.85 710.019 2423.63 678.083 2447.51 662.57 2471.4 647.056 2503.33 653.84 2518.84 677.721Z" fill="#737373" fill-rule="evenodd"/><path d="M2460.62 705.207C2462.17 707.595 2461.49 710.789 2459.1 712.34 2456.71 713.891 2453.52 713.213 2451.97 710.825 2450.42 708.437 2451.09 705.243 2453.48 703.692 2455.87 702.14 2459.06 702.819 2460.62 705.207Z" fill="#2F2F2F" fill-rule="evenodd"/><path d="M2491.63 704.361C2493.96 707.943 2492.94 712.734 2489.36 715.06 2485.78 717.388 2480.99 716.37 2478.66 712.788 2476.33 709.206 2477.35 704.416 2480.93 702.088 2484.52 699.761 2489.31 700.779 2491.63 704.361Z" fill="#D2D2D2" fill-rule="evenodd"/><path d="M2471.56 675.284C2475.05 680.657 2473.52 687.843 2468.15 691.333 2462.78 694.824 2455.59 693.298 2452.1 687.924 2448.61 682.551 2450.13 675.365 2455.51 671.875 2460.88 668.384 2468.07 669.91 2471.56 675.284Z" fill="#2F2F2F" fill-rule="evenodd"/><path d="M435.05 2064.92C432.393 2073.78 423.051 2078.82 414.186 2076.16 405.32 2073.5 400.288 2064.16 402.945 2055.3 405.602 2046.43 414.943 2041.4 423.808 2044.06 432.674 2046.71 437.707 2056.05 435.05 2064.92Z" fill="#FFC000" fill-rule="evenodd"/><path d="M493.354 2019.45C492.026 2023.88 487.355 2026.4 482.923 2025.07 478.49 2023.74 475.973 2019.07 477.302 2014.64 478.63 2010.21 483.301 2007.69 487.734 2009.02 492.167 2010.35 494.683 2015.02 493.354 2019.45Z" fill="#D2D2D2" fill-rule="evenodd"/><path d="M827.044 1275.54C825.715 1279.97 821.045 1282.49 816.612 1281.16 812.18 1279.83 809.663 1275.16 810.992 1270.73 812.32 1266.29 816.991 1263.78 821.423 1265.1 825.856 1266.43 828.372 1271.1 827.044 1275.54Z" fill="#D2D2D2" fill-rule="evenodd"/><path d="M999.759 1202.15C998.43 1206.58 993.76 1209.1 989.327 1207.77 984.895 1206.44 982.378 1201.77 983.707 1197.34 985.035 1192.91 989.706 1190.39 994.139 1191.72 998.571 1193.05 1001.09 1197.72 999.759 1202.15Z" fill="#D2D2D2" fill-rule="evenodd"/><path d="M953.568 1347.29C950.911 1356.15 941.57 1361.19 932.705 1358.53 923.839 1355.87 918.806 1346.53 921.464 1337.66 924.121 1328.8 933.461 1323.77 942.327 1326.42 951.192 1329.08 956.225 1338.42 953.568 1347.29Z" fill="#505050" fill-rule="evenodd"/><path d="M962.178 1260.19C959.521 1269.06 950.18 1274.09 941.314 1271.43 932.449 1268.78 927.416 1259.43 930.073 1250.57 932.731 1241.7 942.071 1236.67 950.937 1239.33 959.802 1241.98 964.835 1251.33 962.178 1260.19Z" fill="#F2F2F2" fill-rule="evenodd"/><path d="M1125.6 1289.66C1124.27 1294.09 1119.6 1296.61 1115.17 1295.28 1110.73 1293.95 1108.22 1289.28 1109.55 1284.85 1110.87 1280.41 1115.54 1277.9 1119.98 1279.23 1124.41 1280.56 1126.93 1285.23 1125.6 1289.66Z" fill="#D2D2D2" fill-rule="evenodd"/><path d="M1233.82 1054.3C1232.49 1058.73 1227.82 1061.25 1223.39 1059.92 1218.96 1058.59 1216.44 1053.92 1217.77 1049.49 1219.1 1045.05 1223.77 1042.54 1228.2 1043.87 1232.63 1045.19 1235.15 1049.86 1233.82 1054.3Z" fill="#D2D2D2" fill-rule="evenodd"/><path d="M1181.98 1132.96C1180.65 1137.39 1175.98 1139.91 1171.55 1138.58 1167.12 1137.25 1164.6 1132.58 1165.93 1128.15 1167.26 1123.72 1171.93 1121.2 1176.36 1122.53 1180.8 1123.86 1183.31 1128.53 1181.98 1132.96Z" fill="#F2F2F2" fill-rule="evenodd"/><path d="M1341.39 910.92C1338.73 919.786 1329.39 924.819 1320.52 922.162 1311.66 919.505 1306.62 910.163 1309.28 901.298 1311.94 892.433 1321.28 887.4 1330.15 890.057 1339.01 892.714 1344.04 902.055 1341.39 910.92Z" fill="#FFC000" fill-rule="evenodd"/><path d="M1291.31 1113.92C1288.65 1122.78 1279.31 1127.82 1270.45 1125.16 1261.58 1122.5 1256.55 1113.16 1259.21 1104.3 1261.86 1095.43 1271.2 1090.4 1280.07 1093.05 1288.93 1095.71 1293.97 1105.05 1291.31 1113.92Z" fill="#D2D2D2" fill-rule="evenodd"/><path d="M1038.32 1274.53C1035.66 1283.4 1026.32 1288.43 1017.45 1285.77 1008.59 1283.12 1003.55 1273.78 1006.21 1264.91 1008.87 1256.05 1018.21 1251.01 1027.07 1253.67 1035.94 1256.33 1040.97 1265.67 1038.32 1274.53Z" fill="#D2D2D2" fill-rule="evenodd"/><path d="M1820.78 796.41C1817.1 808.685 1804.16 815.653 1791.89 811.974 1779.61 808.295 1772.64 795.362 1776.32 783.086 1780 770.811 1792.94 763.843 1805.21 767.522 1817.49 771.201 1824.46 784.134 1820.78 796.41Z" fill="#FFC000" fill-rule="evenodd"/><path d="M1914.31 834.538C1912.99 838.97 1908.32 841.487 1903.88 840.158 1899.45 838.83 1896.93 834.159 1898.26 829.726 1899.59 825.294 1904.26 822.777 1908.69 824.106 1913.13 825.435 1915.64 830.105 1914.31 834.538Z" fill="#D2D2D2" fill-rule="evenodd"/><path d="M1858.99 812.575C1857.67 817.008 1853 819.524 1848.56 818.195 1844.13 816.867 1841.61 812.196 1842.94 807.764 1844.27 803.331 1848.94 800.815 1853.37 802.143 1857.81 803.472 1860.32 808.142 1858.99 812.575Z" fill="#D2D2D2" fill-rule="evenodd"/><path d="M2107.34 765.221C2104.68 774.087 2095.34 779.12 2086.48 776.463 2077.61 773.805 2072.58 764.464 2075.24 755.599 2077.89 746.733 2087.23 741.701 2096.1 744.358 2104.97 747.015 2110 756.356 2107.34 765.221Z" fill="#D2D2D2" fill-rule="evenodd"/><path d="M1813.02 876.173C1810.36 885.039 1801.02 890.072 1792.15 887.415 1783.29 884.757 1778.26 875.416 1780.91 866.551 1783.57 857.685 1792.91 852.653 1801.78 855.31 1810.64 857.967 1815.68 867.308 1813.02 876.173Z" fill="#D2D2D2" fill-rule="evenodd"/><path d="M1657.18 1342.26C1653.5 1354.53 1640.56 1361.5 1628.29 1357.82 1616.01 1354.14 1609.04 1341.21 1612.72 1328.93 1616.4 1316.66 1629.34 1309.69 1641.61 1313.37 1653.89 1317.05 1660.86 1329.98 1657.18 1342.26Z" fill="#D2D2D2" fill-rule="evenodd"/><path d="M1750.71 1380.38C1749.39 1384.82 1744.72 1387.33 1740.28 1386 1735.85 1384.68 1733.33 1380.01 1734.66 1375.57 1735.99 1371.14 1740.66 1368.62 1745.09 1369.95 1749.53 1371.28 1752.04 1375.95 1750.71 1380.38Z" fill="#D2D2D2" fill-rule="evenodd"/><path d="M1695.39 1358.42C1694.07 1362.85 1689.4 1365.37 1684.96 1364.04 1680.53 1362.71 1678.01 1358.04 1679.34 1353.61 1680.67 1349.18 1685.34 1346.66 1689.77 1347.99 1694.21 1349.32 1696.72 1353.99 1695.39 1358.42Z" fill="#D2D2D2" fill-rule="evenodd"/><path d="M1943.74 1311.07C1941.09 1319.93 1931.74 1324.97 1922.88 1322.31 1914.01 1319.65 1908.98 1310.31 1911.64 1301.44 1914.29 1292.58 1923.64 1287.55 1932.5 1290.2 1941.37 1292.86 1946.4 1302.2 1943.74 1311.07Z" fill="#FFC000" fill-rule="evenodd"/><path d="M1649.42 1422.02C1646.76 1430.88 1637.42 1435.92 1628.55 1433.26 1619.69 1430.6 1614.66 1421.26 1617.31 1412.4 1619.97 1403.53 1629.31 1398.5 1638.18 1401.16 1647.04 1403.81 1652.08 1413.15 1649.42 1422.02Z" fill="#D2D2D2" fill-rule="evenodd"/><path d="M1409.62 1607.57C1408.29 1612 1403.62 1614.51 1399.18 1613.19 1394.75 1611.86 1392.24 1607.19 1393.56 1602.75 1394.89 1598.32 1399.56 1595.81 1404 1597.13 1408.43 1598.46 1410.94 1603.13 1409.62 1607.57Z" fill="#D2D2D2" fill-rule="evenodd"/><path d="M1611.49 1519.39C1610.16 1523.83 1605.49 1526.34 1601.05 1525.01 1596.62 1523.69 1594.11 1519.02 1595.43 1514.58 1596.76 1510.15 1601.43 1507.63 1605.87 1508.96 1610.3 1510.29 1612.81 1514.96 1611.49 1519.39Z" fill="#FFC000" fill-rule="evenodd"/></g></svg>