<svg width="2301" height="1424" xmlns="http://www.w3.org/2000/svg" xmlns:xlink="http://www.w3.org/1999/xlink" overflow="hidden"><defs><clipPath id="clip0"><rect x="271" y="129" width="2301" height="1424"/></clipPath></defs><g clip-path="url(#clip0)" transform="translate(-271 -129)"><path d="M339.413 1319.15C333.858 1317.32 328.231 1316.51 322.71 1316.57 322.667 1316.57 322.661 1316.59 322.696 1316.62 340.802 1328.93 349.7 1351.97 343.08 1374.06 336.46 1396.15 316.355 1410.49 294.463 1410.82 294.419 1410.82 294.413 1410.84 294.449 1410.86 298.671 1413.71 303.383 1415.99 308.52 1417.53 336.599 1425.94 366.228 1409.29 373.383 1380.5 379.82 1354.6 364.776 1327.47 339.413 1319.15Z" fill="#505050" fill-rule="evenodd"/><path d="M343.08 1374.06C335.279 1400.08 313.477 1416.54 294.382 1410.82 275.287 1405.1 266.131 1379.36 273.932 1353.33 281.732 1327.31 303.535 1310.85 322.63 1316.57 341.725 1322.29 350.881 1348.03 343.08 1374.06Z" fill="#737373" fill-rule="evenodd"/><path d="M629.969 1251.68C629.046 1237.32 625.119 1222.94 617.85 1209.45 596.846 1170.46 554.355 1150.47 512.919 1156.2 476.057 1187.39 441.044 1258.71 433.683 1302.1 434.501 1303.84 435.359 1305.57 436.279 1307.28 449.416 1331.66 470.965 1348.59 495.394 1356.47 526.739 1351.15 616.409 1281.85 629.969 1251.68Z" fill="#D2D2D2" fill-rule="evenodd"/><path d="M629.969 1251.68C629.046 1237.32 625.119 1222.94 617.85 1209.45 596.846 1170.46 554.355 1150.47 512.919 1156.2 476.057 1187.39 441.044 1258.71 433.683 1302.1 434.501 1303.84 435.359 1305.57 436.279 1307.28 449.416 1331.66 470.965 1348.59 495.394 1356.47 526.739 1351.15 616.409 1281.85 629.969 1251.68Z" fill="#D2D2D2" fill-rule="evenodd"/><path d="M575.982 1349.15C612.631 1329.4 632.478 1290.67 629.969 1251.67 615.967 1256.48 601.576 1262.73 587.247 1270.45 542.391 1294.62 509.03 1327.14 495.393 1356.47 521.203 1364.8 550.224 1363.03 575.982 1349.15Z" fill="#E6E6E6" fill-rule="evenodd"/><path d="M575.982 1349.15C612.631 1329.4 632.478 1290.67 629.969 1251.67 615.967 1256.48 601.576 1262.73 587.247 1270.45 542.391 1294.62 509.03 1327.14 495.393 1356.47 521.203 1364.8 550.224 1363.03 575.982 1349.15Z" fill="#E6E6E6" fill-rule="evenodd"/><path d="M512.919 1156.2C501.068 1157.83 489.299 1161.57 478.148 1167.58 429.722 1193.67 410.593 1252.91 433.683 1302.1 461.505 1284.48 489.098 1243.27 504.719 1191.15 508.267 1179.3 510.987 1167.58 512.919 1156.2Z" fill="#E6E6E6" fill-rule="evenodd"/><path d="M512.919 1156.2C501.068 1157.83 489.299 1161.57 478.148 1167.58 429.722 1193.67 410.593 1252.91 433.683 1302.1 461.505 1284.48 489.098 1243.27 504.719 1191.15 508.267 1179.3 510.987 1167.58 512.919 1156.2Z" fill="#E6E6E6" fill-rule="evenodd"/><path d="M550.786 1275.48C549.338 1280.31 544.287 1283.07 539.505 1281.63 534.722 1280.2 532.019 1275.12 533.467 1270.29 534.916 1265.46 539.967 1262.7 544.749 1264.13 549.531 1265.57 552.234 1270.65 550.786 1275.48Z" fill="#F2F2F2" fill-rule="evenodd"/><path d="M558.202 1234.61C556.028 1241.86 548.464 1246 541.308 1243.86 534.152 1241.72 530.115 1234.1 532.289 1226.84 534.464 1219.58 542.028 1215.44 549.183 1217.59 556.339 1219.73 560.377 1227.35 558.202 1234.61Z" fill="#F2F2F2" fill-rule="evenodd"/><path d="M704.943 939.641C711.697 952.176 707.01 967.813 694.476 974.566 681.941 981.32 666.305 976.633 659.551 964.098 652.797 951.563 657.483 935.927 670.018 929.173 682.553 922.42 698.189 927.106 704.943 939.641Z" fill="#FFC000" fill-rule="evenodd"/><path d="M726.243 1196.16C738.148 1206.73 751.814 1218 766.377 1229.32 775.594 1232.42 785.293 1234.56 795.391 1235.52 811.534 1237.06 827.249 1235.52 841.998 1231.44 844.363 1203.76 828.543 1141.6 806.604 1099.85 783.446 1055.79 755.944 1022.23 721.329 1011.45 698.183 1032.3 682.469 1061.53 679.286 1094.98 677.255 1116.28 680.566 1136.85 688.069 1155.41 697.606 1170.18 714.129 1185.41 726.243 1196.16Z" fill="#FFFFFF" fill-rule="evenodd"/><path d="M814.701 1087.21C842.436 1157.72 905.134 1171.01 920.601 1169.29 928.83 1154.34 934.225 1137.5 935.944 1119.43 942.308 1052.64 896.502 992.934 831.886 980.622 819.022 993.766 796.778 1041.65 814.701 1087.21Z" fill="#FFFFFF" fill-rule="evenodd"/><path d="M766.377 1229.32C760.585 1215.46 753.614 1199.71 735.334 1186.3 722.275 1176.72 720.149 1180.58 705.757 1170.53 703.609 1169.03 696.364 1163.83 688.164 1155.51 688.142 1155.49 688.107 1155.51 688.118 1155.53 701.997 1189.76 730.239 1217.05 766.072 1229.22 766.099 1229.22 766.237 1229.28 766.377 1229.32Z" fill="#FFC000" fill-rule="evenodd"/><path d="M920.599 1169.29C912.587 1165.18 905.206 1158.01 901.937 1148.6 893.676 1124.81 901.843 1104.3 886.782 1090.18 870.586 1075 840.325 1094.68 828.24 1079.43 819.068 1067.85 828.036 1045.85 829.095 1043.25 837.697 1022.15 855.654 1016.64 853.296 1006.71 851.11 997.51 834.906 998.962 831.662 989.113 830.83 986.581 830.989 983.671 831.887 980.619 827.935 979.868 823.924 979.271 819.839 978.882 782.417 975.317 747.221 988.135 721.33 1011.45 737.813 1022.97 749.3 1060.76 744.379 1091.34 739.712 1120.35 718.375 1154.68 717.515 1156.07 717.498 1156.1 717.519 1156.1 717.555 1156.09 738.949 1148.95 765.43 1143.73 779.578 1156.85 790.617 1167.08 786.425 1181.32 793.876 1197.05 799.709 1209.37 812.662 1222.54 841.976 1231.43 875.475 1222.16 903.901 1199.61 920.599 1169.29Z" fill="#FFC000" fill-rule="evenodd"/><path d="M1040.02 864.843C1002.62 884.994 982.702 924.917 986.202 964.712L1153.03 874.824C1121.72 850.013 1077.42 844.692 1040.02 864.843Z" fill="#505050" fill-rule="evenodd"/><path d="M1025.75 1037.12C1029.9 1040.34 1034.27 1043.21 1038.82 1045.74 1038.82 1045.74 1065.29 1050.35 1093.93 1042.79 1122.57 1035.22 1189.18 979.801 1189.18 979.801 1191.7 969.362 1192.59 958.522 1191.75 947.675 1191.75 947.675 1128.3 928.534 1078.55 961.201 1028.79 993.868 1025.75 1037.12 1025.75 1037.12Z" fill="#737373" fill-rule="evenodd"/><path d="M1137.85 1046.41C1164.71 1031.94 1182.54 1007.29 1189.18 979.801 1189.18 979.801 1167.54 968.621 1122.83 1007.65 1080.27 1044.8 1041.14 1045.72 1038.92 1045.74 1038.87 1045.74 1038.87 1045.76 1038.91 1045.79 1068.6 1062.22 1105.76 1063.71 1137.85 1046.41Z" fill="#505050" fill-rule="evenodd"/><path d="M1153.03 874.824C1153.03 874.824 1109.35 868.491 1045.97 908.493 1012.98 929.317 986.202 964.712 986.202 964.712 987.393 978.268 991.288 991.805 998.153 1004.54 998.909 1005.94 999.703 1007.32 1000.51 1008.67 1000.51 1008.67 1045.57 1004.43 1080.63 975.819 1115.68 947.203 1169.05 890.705 1169.05 890.705 1164.24 884.762 1158.87 879.451 1153.03 874.824Z" fill="#2F2F2F" fill-rule="evenodd"/><path d="M1179.72 906.713C1176.62 900.948 1173.02 895.619 1169.05 890.705 1169.05 890.705 1116.58 898.173 1081.42 936.247 1022.25 1000.35 1000.51 1008.67 1000.51 1008.67 1007.26 1019.95 1015.88 1029.48 1025.75 1037.12 1025.75 1037.12 1041.45 987.072 1086.68 994.916 1129.86 1002.41 1191.75 947.673 1191.75 947.673 1190.69 933.742 1186.78 919.806 1179.72 906.713Z" fill="#505050" fill-rule="evenodd"/><path d="M1139.55 966.847C1138.1 971.66 1133.03 974.392 1128.22 972.95 1123.41 971.507 1120.67 966.436 1122.12 961.623 1123.56 956.81 1128.63 954.078 1133.44 955.52 1138.26 956.963 1140.99 962.034 1139.55 966.847Z" fill="#737373" fill-rule="evenodd"/><path d="M1164.2 930.537C1162.03 937.757 1154.43 941.855 1147.21 939.691 1139.99 937.528 1135.89 929.921 1138.05 922.701 1140.22 915.482 1147.82 911.383 1155.04 913.547 1162.26 915.711 1166.36 923.318 1164.2 930.537Z" fill="#2F2F2F" fill-rule="evenodd"/><path d="M1553.95 719.522C1553.95 719.522 1526.23 681.676 1444.24 657.938 1365.23 635.068 1315 661.148 1315 661.148 1308.35 666.513 1302.21 672.331 1296.65 678.583 1296.65 678.583 1308.63 701.805 1420.75 735.409 1532.87 769.013 1563.39 748.605 1563.39 748.605 1561.25 738.769 1558.12 729.035 1553.95 719.522Z" fill="#E6E6E6" fill-rule="evenodd"/><path d="M1548.42 708.065C1542.78 697.597 1536.07 688.08 1528.56 679.493 1489.4 634.73 1428.17 616.443 1370.87 632.395 1359.97 635.431 1349.24 639.666 1338.86 645.26 1330.3 649.87 1322.39 655.201 1315.08 661.085 1315.04 661.118 1315.04 661.142 1315.09 661.132 1317.66 660.703 1373.55 651.848 1465.64 679.45 1526.55 697.705 1552.25 718.139 1553.86 719.454 1553.91 719.49 1553.93 719.475 1553.9 719.419 1552.23 715.599 1550.43 711.804 1548.42 708.065Z" fill="#D2D2D2" fill-rule="evenodd"/><path d="M1563.39 748.605C1563.39 748.605 1536.31 725.372 1443.12 697.442 1341.83 667.085 1296.65 678.58 1296.65 678.58 1284.1 692.683 1274.42 708.852 1267.8 726.151L1535.41 861.553 1546.84 857.626C1565.29 824.951 1571.56 786.108 1563.39 748.605Z" fill="#F2F2F2" fill-rule="evenodd"/><path d="M1546.84 857.626C1546.84 857.626 1423.17 814.757 1458.15 774.268 1496.04 730.428 1267.8 726.152 1267.8 726.152 1263.58 737.211 1260.61 748.724 1258.99 760.474 1258.99 760.474 1276.08 787.057 1387.21 831.757 1503.05 878.353 1535.25 875.208 1535.25 875.208 1539.53 869.594 1543.39 863.72 1546.84 857.626Z" fill="#D2D2D2" fill-rule="evenodd"/><path d="M1546.84 857.626C1546.84 857.626 1423.17 814.757 1458.15 774.268 1496.04 730.428 1267.8 726.152 1267.8 726.152 1263.58 737.211 1260.61 748.724 1258.99 760.474 1258.99 760.474 1276.08 787.057 1387.21 831.757 1503.05 878.353 1535.25 875.208 1535.25 875.208 1539.53 869.594 1543.39 863.72 1546.84 857.626Z" fill="#D2D2D2" fill-rule="evenodd"/><path d="M1472.91 923.705C1472.91 923.705 1460.06 905.985 1382.51 882.743 1304.96 859.501 1283.31 866.881 1283.31 866.881 1324.4 929.022 1404.41 953.002 1472.91 923.705Z" fill="#D2D2D2" fill-rule="evenodd"/><path d="M1485.61 917.616C1505.65 906.82 1522.31 892.211 1535.25 875.208L1258.99 760.474C1254.68 791.839 1259.89 824.804 1276.05 854.809 1278.3 858.988 1280.74 862.997 1283.31 866.881 1283.31 866.881 1341.89 895.476 1376.82 905.944 1411.75 916.412 1472.9 923.705 1472.9 923.705 1477.19 921.871 1481.43 919.867 1485.61 917.616Z" fill="#E6E6E6" fill-rule="evenodd"/><path d="M1485.61 917.616C1505.65 906.82 1522.31 892.211 1535.25 875.208L1258.99 760.474C1254.68 791.839 1259.89 824.804 1276.05 854.809 1278.3 858.988 1280.74 862.997 1283.31 866.881 1283.31 866.881 1341.89 895.476 1376.82 905.944 1411.75 916.412 1472.9 923.705 1472.9 923.705 1477.19 921.871 1481.43 919.867 1485.61 917.616Z" fill="#E6E6E6" fill-rule="evenodd"/><path d="M1429.67 868.127C1425.58 881.766 1390.2 883.213 1350.65 871.358 1311.09 859.503 1282.34 838.835 1286.43 825.196 1290.52 811.557 1325.9 810.111 1365.45 821.966 1405 833.821 1433.75 854.488 1429.67 868.127Z" fill="#D2D2D2" fill-rule="evenodd"/><path d="M1394.9 850.842C1393.21 856.461 1378.63 857.054 1362.32 852.167 1346.02 847.279 1334.16 838.763 1335.85 833.144 1337.53 827.526 1352.11 826.933 1368.42 831.82 1384.73 836.707 1396.58 845.224 1394.9 850.842Z" fill="#E6E6E6" fill-rule="evenodd"/><path d="M1845.46 694.443C1854.57 689.535 1862.82 683.665 1870.22 677.062 1870.22 677.062 1867.33 610.342 1845.58 555.379 1823.84 500.416 1776.82 452.273 1776.82 452.273 1758.6 453.318 1740.3 458.248 1723.17 467.479 1704.4 477.591 1689.18 491.705 1677.94 508.171 1677.94 508.171 1688.24 557.741 1726.92 617.244 1765.61 676.746 1808.83 707.547 1808.83 707.547 1821.32 705.123 1833.66 700.799 1845.46 694.443Z" fill="#F2F2F2" fill-rule="evenodd"/><path d="M1845.46 694.443C1854.57 689.535 1862.82 683.665 1870.22 677.062 1870.22 677.062 1867.33 610.342 1845.58 555.379 1823.84 500.416 1776.82 452.273 1776.82 452.273 1758.6 453.318 1740.3 458.248 1723.17 467.479 1704.4 477.591 1689.18 491.705 1677.94 508.171 1677.94 508.171 1688.24 557.741 1726.92 617.244 1765.61 676.746 1808.83 707.547 1808.83 707.547 1821.32 705.123 1833.66 700.799 1845.46 694.443Z" fill="#F2F2F2" fill-rule="evenodd"/><path d="M1677.94 508.17C1673.75 514.303 1670.1 520.753 1667.05 527.461 1667.05 527.461 1672.98 587.081 1699.52 633.252 1726.05 679.423 1764.5 708.322 1764.5 708.322 1779.04 710.598 1794.04 710.416 1808.83 707.547L1677.94 508.17Z" fill="#D2D2D2" fill-rule="evenodd"/><path d="M1677.94 508.17C1673.75 514.303 1670.1 520.753 1667.05 527.461 1667.05 527.461 1672.98 587.081 1699.52 633.252 1726.05 679.423 1764.5 708.322 1764.5 708.322 1779.04 710.598 1794.04 710.416 1808.83 707.547L1677.94 508.17Z" fill="#D2D2D2" fill-rule="evenodd"/><path d="M1670.83 642.104C1690.72 679.022 1726.03 702.307 1764.49 708.325L1667.05 527.461C1650.91 562.897 1650.94 605.188 1670.83 642.104Z" fill="#E6E6E6" fill-rule="evenodd"/><path d="M1670.83 642.104C1690.72 679.022 1726.03 702.307 1764.49 708.325L1667.05 527.461C1650.91 562.897 1650.94 605.188 1670.83 642.104Z" fill="#E6E6E6" fill-rule="evenodd"/><path d="M1897.8 519.818C1873.26 474.275 1825.27 449.484 1776.82 452.272L1870.22 677.062C1913.71 638.251 1926.66 573.383 1897.8 519.818Z" fill="#D2D2D2" fill-rule="evenodd"/><path d="M1897.8 519.818C1873.26 474.275 1825.27 449.484 1776.82 452.272L1870.22 677.062C1913.71 638.251 1926.66 573.383 1897.8 519.818Z" fill="#D2D2D2" fill-rule="evenodd"/><path d="M1871.56 675.716C1867.87 679.136 1863.93 682.341 1859.78 685.355 1864.98 709.103 1864.1 725.519 1855.89 729.945 1847.34 734.552 1832.3 725.348 1814.4 706.464 1792.82 683.703 1767.07 646.864 1743.43 602.986 1719.79 559.109 1703.19 517.341 1696.05 486.801 1690.12 461.464 1690.71 443.848 1699.26 439.241 1707.47 434.816 1721.67 443.115 1738.64 460.514 1743.43 458.71 1748.28 457.181 1753.17 455.978 1716.17 407.288 1683.06 379.918 1666.91 388.619 1649.96 397.752 1655.93 444.344 1678.87 506.4 1690.71 538.417 1707.06 574.547 1727.12 611.777 1747.18 649.011 1768.36 682.539 1788.59 710.031 1827.8 763.325 1863.43 793.933 1880.38 784.799 1896.53 776.098 1891.88 733.399 1871.56 675.716Z" fill="#E6E6E6" fill-rule="evenodd"/><path d="M2128.49 396.326C2111.84 365.426 2056.42 344.043 2029.33 364.695 2005.6 388.213 1999.06 425.386 2015.71 456.286 2032.36 487.19 2067 502.172 2099.69 495.294 2126.29 489.867 2145.14 427.227 2128.49 396.326Z" fill="#737373" fill-rule="evenodd"/><path d="M2052.93 348.68C2043.84 352.65 2035.96 358.127 2029.39 364.634 2029.35 364.668 2029.36 364.688 2029.41 364.677 2062.08 357.845 2096.67 372.827 2113.31 403.702 2129.94 434.576 2123.43 471.711 2099.75 495.233 2099.72 495.267 2099.73 495.286 2099.77 495.275 2106.84 493.785 2113.81 491.287 2120.49 487.689 2159.29 466.783 2173.02 417.495 2149.84 379.341 2130.91 348.185 2086.34 334.094 2052.93 348.68Z" fill="#505050" fill-rule="evenodd"/><path d="M2129.11 385.586C2130.39 387.953 2118.01 397.096 2101.47 406.008 2084.93 414.919 2070.48 420.224 2069.21 417.857 2067.93 415.49 2080.31 406.347 2096.85 397.435 2113.39 388.524 2127.84 383.219 2129.11 385.586Z" fill="#2F2F2F" fill-rule="evenodd"/><path d="M2329.75 286.368C2315.92 260.703 2265.6 240.588 2241.86 257.528 2227.14 280.432 2224.97 310.426 2238.79 336.091 2252.62 361.759 2278.87 376.442 2306.09 376.748 2331.94 365.257 2343.58 312.037 2329.75 286.368Z" fill="#505050" fill-rule="evenodd"/><path d="M2273.29 229.733C2259.92 236.2 2249.31 245.945 2241.88 257.488 2241.87 257.51 2241.88 257.53 2241.9 257.529 2269.11 257.848 2295.33 272.53 2309.15 298.183 2322.97 323.832 2320.81 353.807 2306.12 376.708 2306.1 376.731 2306.11 376.749 2306.14 376.749 2318.79 376.88 2331.65 373.917 2343.57 367.494 2382.61 346.454 2396.27 296.691 2372.49 258.443 2351.82 225.187 2308.55 212.689 2273.29 229.733Z" fill="#737373" fill-rule="evenodd"/><path d="M2339.27 253.704C2340.55 256.071 2328.17 265.215 2311.63 274.126 2295.08 283.037 2280.64 288.343 2279.36 285.975 2278.09 283.608 2290.47 274.465 2307.01 265.553 2323.55 256.642 2338 251.337 2339.27 253.704Z" fill="#2F2F2F" fill-rule="evenodd"/><path d="M2331.01 326.192C2332.28 328.559 2319.91 337.703 2303.36 346.614 2286.82 355.526 2272.38 360.831 2271.1 358.463 2269.83 356.096 2282.2 346.953 2298.75 338.042 2315.29 329.13 2329.73 323.825 2331.01 326.192Z" fill="#2F2F2F" fill-rule="evenodd"/><path d="M2563.07 152.855C2578.59 176.737 2571.8 208.673 2547.92 224.186 2524.04 239.7 2492.1 232.916 2476.59 209.035 2461.08 185.154 2467.86 153.218 2491.74 137.704 2515.62 122.191 2547.56 128.974 2563.07 152.855Z" fill="#737373" fill-rule="evenodd"/><path d="M2504.84 180.341C2506.39 182.729 2505.72 185.923 2503.33 187.474 2500.94 189.026 2497.75 188.347 2496.19 185.959 2494.64 183.571 2495.32 180.377 2497.71 178.826 2500.1 177.275 2503.29 177.953 2504.84 180.341Z" fill="#2F2F2F" fill-rule="evenodd"/><path d="M2535.86 179.496C2538.19 183.078 2537.17 187.868 2533.59 190.195 2530 192.522 2525.21 191.504 2522.89 187.922 2520.56 184.34 2521.58 179.55 2525.16 177.223 2528.74 174.896 2533.53 175.913 2535.86 179.496Z" fill="#D2D2D2" fill-rule="evenodd"/><path d="M2515.78 150.418C2519.28 155.792 2517.75 162.977 2512.38 166.468 2507 169.958 2499.82 168.432 2496.33 163.059 2492.84 157.685 2494.36 150.5 2499.73 147.009 2505.11 143.519 2512.29 145.045 2515.78 150.418Z" fill="#2F2F2F" fill-rule="evenodd"/><path d="M479.277 1540.05C476.62 1548.92 467.278 1553.95 458.413 1551.29 449.547 1548.64 444.515 1539.3 447.172 1530.43 449.829 1521.57 459.17 1516.53 468.035 1519.19 476.901 1521.85 481.934 1531.19 479.277 1540.05Z" fill="#FFC000" fill-rule="evenodd"/><path d="M537.581 1494.59C536.253 1499.02 531.582 1501.54 527.15 1500.21 522.717 1498.88 520.2 1494.21 521.529 1489.78 522.858 1485.34 527.528 1482.83 531.961 1484.15 536.394 1485.48 538.91 1490.15 537.581 1494.59Z" fill="#D2D2D2" fill-rule="evenodd"/><path d="M871.271 750.671C869.942 755.104 865.272 757.62 860.839 756.291 856.407 754.963 853.89 750.293 855.219 745.86 856.547 741.427 861.218 738.911 865.65 740.239 870.083 741.568 872.599 746.238 871.271 750.671Z" fill="#D2D2D2" fill-rule="evenodd"/><path d="M1043.99 677.285C1042.66 681.718 1037.99 684.234 1033.55 682.906 1029.12 681.577 1026.61 676.907 1027.93 672.474 1029.26 668.042 1033.93 665.525 1038.37 666.854 1042.8 668.182 1045.31 672.853 1043.99 677.285Z" fill="#D2D2D2" fill-rule="evenodd"/><path d="M997.795 822.421C995.138 831.287 985.797 836.32 976.932 833.663 968.066 831.005 963.033 821.664 965.691 812.799 968.348 803.934 977.688 798.901 986.554 801.558 995.419 804.215 1000.45 813.556 997.795 822.421Z" fill="#505050" fill-rule="evenodd"/><path d="M1006.41 735.326C1003.75 744.191 994.407 749.224 985.541 746.567 976.676 743.91 971.643 734.569 974.3 725.703 976.958 716.838 986.298 711.805 995.164 714.462 1004.03 717.119 1009.06 726.46 1006.41 735.326Z" fill="#F2F2F2" fill-rule="evenodd"/><path d="M1169.82 764.793C1168.5 769.225 1163.83 771.742 1159.39 770.413 1154.96 769.085 1152.44 764.414 1153.77 759.981 1155.1 755.549 1159.77 753.032 1164.2 754.361 1168.64 755.69 1171.15 760.36 1169.82 764.793Z" fill="#D2D2D2" fill-rule="evenodd"/><path d="M1278.05 529.431C1276.72 533.864 1272.05 536.38 1267.61 535.052 1263.18 533.723 1260.67 529.053 1261.99 524.62 1263.32 520.188 1267.99 517.671 1272.43 519 1276.86 520.328 1279.37 524.999 1278.05 529.431Z" fill="#D2D2D2" fill-rule="evenodd"/><path d="M1226.21 608.095C1224.88 612.528 1220.21 615.044 1215.78 613.715 1211.35 612.387 1208.83 607.717 1210.16 603.284 1211.49 598.851 1216.16 596.335 1220.59 597.663 1225.02 598.992 1227.54 603.662 1226.21 608.095Z" fill="#F2F2F2" fill-rule="evenodd"/><path d="M1385.61 386.055C1382.96 394.92 1373.62 399.953 1364.75 397.296 1355.88 394.639 1350.85 385.298 1353.51 376.432 1356.17 367.567 1365.51 362.534 1374.37 365.191 1383.24 367.848 1388.27 377.189 1385.61 386.055Z" fill="#FFC000" fill-rule="evenodd"/><path d="M1335.54 589.052C1332.88 597.918 1323.54 602.951 1314.67 600.294 1305.81 597.637 1300.78 588.295 1303.43 579.43 1306.09 570.565 1315.43 565.532 1324.3 568.189 1333.16 570.846 1338.19 580.187 1335.54 589.052Z" fill="#D2D2D2" fill-rule="evenodd"/><path d="M1082.54 749.668C1079.89 758.533 1070.54 763.566 1061.68 760.909 1052.81 758.252 1047.78 748.911 1050.44 740.045 1053.1 731.18 1062.44 726.147 1071.3 728.804 1080.17 731.461 1085.2 740.802 1082.54 749.668Z" fill="#D2D2D2" fill-rule="evenodd"/><path d="M1865 271.544C1861.32 283.819 1848.39 290.788 1836.12 287.108 1823.84 283.429 1816.87 270.496 1820.55 258.221 1824.23 245.945 1837.16 238.977 1849.44 242.656 1861.71 246.335 1868.68 259.269 1865 271.544Z" fill="#FFC000" fill-rule="evenodd"/><path d="M1958.54 309.672C1957.21 314.105 1952.54 316.621 1948.11 315.292 1943.68 313.964 1941.16 309.294 1942.49 304.861 1943.82 300.428 1948.49 297.912 1952.92 299.24 1957.35 300.569 1959.87 305.239 1958.54 309.672Z" fill="#D2D2D2" fill-rule="evenodd"/><path d="M1903.22 287.709C1901.89 292.142 1897.22 294.658 1892.79 293.33 1888.36 292.001 1885.84 287.331 1887.17 282.898 1888.5 278.465 1893.17 275.949 1897.6 277.277 1902.03 278.606 1904.55 283.276 1903.22 287.709Z" fill="#D2D2D2" fill-rule="evenodd"/><path d="M2151.57 240.356C2148.91 249.221 2139.57 254.254 2130.71 251.597 2121.84 248.94 2116.81 239.599 2119.46 230.733 2122.12 221.868 2131.46 216.835 2140.33 219.492 2149.19 222.149 2154.23 231.49 2151.57 240.356Z" fill="#D2D2D2" fill-rule="evenodd"/><path d="M1857.25 351.308C1854.59 360.173 1845.25 365.206 1836.38 362.549 1827.52 359.892 1822.48 350.551 1825.14 341.685 1827.8 332.82 1837.14 327.787 1846 330.444 1854.87 333.101 1859.9 342.442 1857.25 351.308Z" fill="#D2D2D2" fill-rule="evenodd"/><path d="M1701.4 817.39C1697.72 829.665 1684.79 836.633 1672.52 832.954 1660.24 829.275 1653.27 816.342 1656.95 804.067 1660.63 791.791 1673.56 784.823 1685.84 788.502 1698.11 792.181 1705.08 805.114 1701.4 817.39Z" fill="#D2D2D2" fill-rule="evenodd"/><path d="M1794.94 855.518C1793.61 859.951 1788.94 862.467 1784.51 861.138 1780.08 859.81 1777.56 855.139 1778.89 850.707 1780.22 846.274 1784.89 843.757 1789.32 845.086 1793.75 846.415 1796.27 851.085 1794.94 855.518Z" fill="#D2D2D2" fill-rule="evenodd"/><path d="M1739.62 833.554C1738.29 837.987 1733.62 840.503 1729.19 839.175 1724.76 837.846 1722.24 833.176 1723.57 828.743 1724.9 824.31 1729.57 821.794 1734 823.122 1738.43 824.451 1740.95 829.122 1739.62 833.554Z" fill="#D2D2D2" fill-rule="evenodd"/><path d="M1987.97 786.201C1985.31 795.066 1975.97 800.099 1967.11 797.442 1958.24 794.785 1953.21 785.444 1955.86 776.579 1958.52 767.713 1967.86 762.68 1976.73 765.338 1985.59 767.995 1990.63 777.336 1987.97 786.201Z" fill="#FFC000" fill-rule="evenodd"/><path d="M1693.65 897.153C1690.99 906.019 1681.65 911.052 1672.78 908.395 1663.92 905.738 1658.88 896.396 1661.54 887.531 1664.2 878.666 1673.54 873.633 1682.4 876.29 1691.27 878.947 1696.3 888.288 1693.65 897.153Z" fill="#D2D2D2" fill-rule="evenodd"/><path d="M1453.84 1082.7C1452.51 1087.13 1447.84 1089.65 1443.41 1088.32 1438.98 1086.99 1436.46 1082.32 1437.79 1077.89 1439.12 1073.46 1443.79 1070.94 1448.22 1072.27 1452.65 1073.6 1455.17 1078.27 1453.84 1082.7Z" fill="#D2D2D2" fill-rule="evenodd"/><path d="M1655.71 994.529C1654.38 998.962 1649.71 1001.48 1645.28 1000.15 1640.85 998.821 1638.33 994.15 1639.66 989.718 1640.99 985.285 1645.66 982.768 1650.09 984.097 1654.53 985.426 1657.04 990.096 1655.71 994.529Z" fill="#FFC000" fill-rule="evenodd"/></g></svg>