<svg width="720" height="720" xmlns="http://www.w3.org/2000/svg" xmlns:xlink="http://www.w3.org/1999/xlink" overflow="hidden"><defs><clipPath id="clip0"><rect x="280" y="0" width="720" height="720"/></clipPath></defs><g clip-path="url(#clip0)" transform="translate(-280 0)"><path d="M632.44 608.217 646.744 608.217 646.744 675.717 632.44 675.717Z" fill="#F1F1F1"/><path d="M596.44 595.467 606.94 595.467 606.94 675.717 596.44 675.717Z" fill="#D1D1D1"/><path d="M620.44 521.967 627.94 521.967 627.94 675.717 620.44 675.717Z" fill="#737373"/><path d="M664.69 524.217 673.69 524.217 673.69 675.717 664.69 675.717Z" fill="#737373"/><path d="M656.924 521.423 659.924 521.423 659.924 675.717 656.924 675.717Z" fill="#D1D1D1"/><path d="M681.94 566.967 692.44 566.967 692.44 675.717 681.94 675.717Z" fill="#D1D1D1"/><path d="M545.507 308.155C538.797 299.452 541.312 286.832 550.791 281.272 579.796 264.256 628.016 229.008 596.194 197.186 580.913 181.904 550.341 170.582 516.966 162.312L492.779 221.051C492.779 221.051 470.85 189.059 490.616 156.47 482.113 154.783 473.639 153.272 465.386 151.923L444.518 172.79C444.518 163.861 446.169 155.964 448.44 149.322 411.12 143.954 381.94 142.03 381.94 142.03 381.94 142.03 383.808 170.383 389.003 206.936 396.201 204.14 405.089 201.958 415.351 201.958L391.833 225.476C395.32 246.818 399.894 269.647 405.796 290.589 437.105 274.414 466.793 294.765 466.793 294.765L414.215 316.414C420.615 333.254 428.181 347.37 437.095 356.283 465.218 384.406 496.017 350.014 514.542 321.617 519.8 313.558 529.875 311.345 537.753 315.095 541.193 316.732 545.187 314.28 545.386 310.476L545.507 308.155ZM431.791 260.005C419.157 260.005 408.916 257.99 408.916 255.505 408.916 253.019 419.157 251.005 431.791 251.005 444.425 251.005 454.666 253.019 454.666 255.505 454.666 257.99 444.425 260.005 431.791 260.005Z" fill="#F1F1F1"/><path d="M631.69 506.217C605.4 436.594 584.487 360.284 532.656 306.878L531.827 306.023 536.069 301.78 536.069 301.78C590.374 354.483 621.19 432.716 645.94 505.466L631.69 506.217Z" fill="#F1F1F1"/><path d="M653.44 502.467C676.69 422.217 698.393 360.284 750.224 306.878L751.053 306.023 746.81 301.78 746.81 301.78C692.506 354.483 658.69 431.216 638.44 502.466" fill="#F1F1F1"/><path d="M737.502 310.615C737.699 314.353 741.636 316.79 745.005 315.156 752.901 311.323 763.054 313.518 768.339 321.62 786.865 350.016 817.664 384.408 845.786 356.285 854.7 347.372 862.267 333.257 868.667 316.417L816.089 294.767C816.089 294.767 845.776 274.416 877.086 290.591 882.987 269.65 887.561 246.82 891.049 225.479L867.531 201.96C877.792 201.96 886.681 204.143 893.878 206.939 899.073 170.386 900.942 142.033 900.942 142.033 900.942 142.033 871.761 143.955 834.441 149.324 836.712 155.966 838.363 163.863 838.363 172.792L817.496 151.925C809.243 153.275 800.768 154.785 792.266 156.473 812.031 189.061 790.103 221.053 790.103 221.053L765.916 162.314C732.54 170.585 701.969 181.907 686.688 197.188 654.866 229.01 703.086 264.258 732.09 281.274 741.569 286.835 744.083 299.454 737.375 308.158L737.502 310.615ZM828.215 255.505C828.215 253.019 838.456 251.005 851.09 251.005 863.724 251.005 873.965 253.019 873.965 255.505 873.965 257.99 863.724 260.005 851.09 260.005 838.456 260.005 828.215 257.99 828.215 255.505Z" fill="#F1F1F1"/><path d="M674.44 446.967C673.612 446.967 672.94 446.295 672.94 445.467L672.94 157.467C672.94 156.639 673.612 155.967 674.44 155.967 675.268 155.967 675.94 156.639 675.94 157.467L675.94 445.467C675.94 446.296 675.268 446.967 674.44 446.967Z" fill="#F1F1F1"/><path d="M657.492 310.453C653.732 311.389 650.781 312.644 648.546 314.116 651.447 292.004 662.417 271.643 679.635 256.996L675.747 252.426C654.154 270.794 641.769 297.589 641.769 325.938L641.769 675.716 647.769 675.716 647.769 331.919C651.057 333.862 656.063 334.399 663.007 332.67 674.985 329.69 681.938 316.164 681.938 316.164 681.938 316.164 669.47 307.472 657.492 310.453Z" fill="#F1F1F1"/><path d="M771.998 141.794C758.876 152.279 745.685 162.888 734.402 175.352 696.92 217.217 675.642 269.588 664.668 324.303 664.135 323.269 663.326 322.16 662.286 321.121 659.65 318.484 656.564 317.297 655.392 318.469 654.221 319.64 655.407 322.727 658.043 325.363 660.075 327.395 662.372 328.561 663.856 328.453 658.2 358.105 655.514 388.382 654.866 417.995 654.409 435.882 654.552 461.951 654.382 479.944L654.191 504.716C654.183 505.552 654.866 506.235 655.702 506.227 656.531 506.221 657.197 505.544 657.191 504.716 657.191 504.716 657 479.944 657 479.944 656.948 458.25 656.568 430.367 657.013 408.758 659.52 338.26 673.684 265.518 713.278 205.965 727.292 185.44 750.965 155.978 774.706 147.553 779.768 146.073 776.156 138.949 771.998 141.794Z" fill="#D1D1D1"/><path d="M794.435 145.105C794.531 144.175 793.338 143.211 791.391 142.455 791.385 142.453 791.385 142.444 791.39 142.441 793.245 141.482 794.329 140.397 794.134 139.482 793.938 138.567 792.505 138.019 790.42 137.902 790.414 137.902 790.411 137.893 790.416 137.889 791.884 136.404 792.579 135.036 792.111 134.226 791.642 133.416 790.109 133.338 788.09 133.87 788.084 133.872 788.078 133.866 788.082 133.86 789.019 131.994 789.258 130.478 788.561 129.853 787.865 129.227 786.383 129.626 784.628 130.757 784.622 130.761 784.616 130.757 784.617 130.75 784.932 128.685 784.69 127.17 783.835 126.79 782.98 126.411 781.694 127.248 780.374 128.867 780.37 128.872 780.362 128.87 780.361 128.863 780.022 126.802 779.324 125.435 778.394 125.339 777.463 125.242 776.499 126.436 775.743 128.382 775.741 128.388 775.733 128.388 775.73 128.383 774.771 126.527 773.685 125.443 772.77 125.639 771.854 125.834 771.306 127.268 771.189 129.353 771.189 129.358 771.181 129.361 771.177 129.357 769.692 127.889 768.323 127.193 767.513 127.662 766.08 128.492 766.935 132.652 769.425 136.954 770.967 139.618 772.774 141.712 774.266 142.723 775.184 143.345 775.776 144.331 775.848 145.411 775.967 147.211 776.885 149.845 778.442 152.534 780.932 156.835 784.113 159.65 785.547 158.82 786.357 158.351 786.434 156.819 785.902 154.799 785.901 154.793 785.906 154.788 785.912 154.791 787.779 155.729 789.294 155.967 789.92 155.271 790.545 154.575 790.146 153.093 789.015 151.338 789.011 151.333 789.016 151.326 789.023 151.327 791.088 151.642 792.602 151.4 792.983 150.545 793.363 149.69 792.525 148.404 790.907 147.084 790.901 147.08 790.904 147.072 790.911 147.071 792.971 146.734 794.338 146.036 794.435 145.105Z" fill="#FFC000"/><path d="M849.053 226.822C855.512 220.362 851.792 206.188 840.747 195.162 829.702 184.136 815.513 180.435 809.055 186.894 806.129 189.82 805.294 194.33 806.283 199.413 807.18 204.027 798.769 216.986 796.998 221.337 794.624 227.174 794.23 234.143 798.006 237.913 801.783 241.682 808.757 241.283 814.596 238.904 818.949 237.13 831.909 228.713 836.527 229.604 841.615 230.587 846.128 229.748 849.053 226.822Z" fill="#FFFFFF"/><path d="M836.112 200.8C829.702 194.389 822.049 191.65 819.019 194.68 816.126 197.572 818.501 204.675 824.297 210.891 824.301 210.894 824.306 210.894 824.309 210.891 824.678 210.46 825.05 210.03 825.396 209.573 826.322 208.334 827.183 207.024 827.831 205.478 828.504 203.869 830.295 202.937 831.971 203.42 833.979 203.998 834.986 206.165 834.21 208.041 833.8 209.033 832.962 209.736 832.008 210.024 830.375 210.507 828.962 211.235 827.615 212.037 827.171 212.306 826.75 212.602 826.325 212.892 826.321 212.895 826.32 212.901 826.324 212.904 832.465 218.495 839.386 220.738 842.232 217.893 845.262 214.863 842.523 207.21 836.112 200.8Z" fill="#FFC000"/><path d="M575.541 213.419C576.381 212.223 576.941 210.119 576.941 207.718 576.941 203.99 575.598 200.968 573.941 200.968 572.405 200.968 571.14 203.565 570.964 206.914 558.867 190.237 543.604 173.219 524.35 155.569 525.221 155.752 526.189 155.856 527.215 155.856 530.943 155.856 533.965 154.513 533.966 152.856 533.966 151.199 530.944 149.856 527.216 149.856 523.997 149.856 521.31 150.858 520.634 152.197 519.39 151.081 518.135 149.963 516.858 148.842L514.879 151.096C516.144 152.207 517.382 153.314 518.615 154.421 517.623 155.522 516.94 157.813 516.94 160.468 516.94 164.196 518.283 167.218 519.94 167.218 521.597 167.218 522.94 164.197 522.94 160.469 522.94 159.667 522.875 158.902 522.761 158.188 614.639 242.647 614.259 312.644 613.765 400.627 613.728 407.156 613.69 413.908 613.69 420.717L616.69 420.717C616.69 413.917 616.728 407.17 616.765 400.644 617.147 332.501 617.463 275.057 575.541 213.419Z" fill="#D1D1D1"/><path d="M506.979 112.981C501.025 107.027 490.974 107.405 490.807 107.412 490.803 107.412 490.805 107.41 490.805 107.414 490.802 107.497 490.692 110.392 491.491 113.979 487.904 113.18 485.01 113.289 484.926 113.292 484.923 113.292 484.925 113.29 484.924 113.294 484.921 113.378 484.811 116.272 485.61 119.859 482.024 119.06 479.129 119.169 479.046 119.172 479.042 119.172 479.044 119.171 479.043 119.174 479.036 119.341 478.658 129.393 484.612 135.347 490.616 141.352 497.858 143.846 500.786 140.917 501.874 139.829 502.212 138.145 501.901 136.151 503.895 136.462 505.579 136.125 506.667 135.037 507.754 133.949 508.091 132.265 507.781 130.271 509.775 130.582 511.459 130.245 512.547 129.157 515.477 126.228 512.983 118.986 506.979 112.981Z" fill="#FFC000"/><path d="M515.871 138.745C511.325 133.061 504.861 129.934 499.091 127.895 490.03 124.693 481.2 125.509 475.743 130.967 475.185 131.525 474.675 132.118 474.213 132.744 476.272 136.489 478.999 140.155 482.359 143.514 494.761 155.917 511.327 159.752 520.71 152.822 521.336 152.359 518.875 142.5 515.871 138.745Z" fill="#E5E5E5"/><path d="M514.709 111.163C511.35 107.804 507.685 105.076 503.94 103.017 503.314 103.479 502.721 103.988 502.163 104.547 496.705 110.005 495.889 118.835 499.091 127.895 501.13 133.664 504.794 139.529 509.94 144.675 513.299 148.034 516.965 150.762 520.71 152.821 521.336 152.359 521.929 151.85 522.487 151.291 523.045 150.733 523.555 150.139 524.017 149.514 530.948 140.132 527.112 123.565 514.709 111.163Z" fill="#D1D1D1"/><path d="M570.48 163.565C566.897 161.684 557.999 171.569 550.605 185.646 549.931 186.929 549.294 188.203 548.693 189.459 548.69 189.466 548.681 189.464 548.68 189.457 548.541 188.201 548.379 186.926 548.19 185.631 545.897 169.897 540.792 157.615 536.787 158.198 532.782 158.782 531.394 172.01 533.687 187.744 533.97 189.689 534.297 191.581 534.659 193.402 534.66 193.409 534.651 193.414 534.646 193.408 533.355 191.931 531.978 190.437 530.523 188.945 519.42 177.564 508.07 170.628 505.174 173.455 502.277 176.281 508.929 187.798 520.032 199.181 521.405 200.588 522.781 201.926 524.145 203.187 524.15 203.192 524.145 203.201 524.138 203.199 522.225 202.763 520.234 202.363 518.18 202.013 502.507 199.33 489.248 200.391 488.566 204.38 487.884 208.369 500.035 213.778 515.708 216.459 517.645 216.79 519.546 217.064 521.39 217.283 521.397 217.284 521.399 217.294 521.392 217.297 519.588 218.068 517.742 218.916 515.873 219.839 501.618 226.881 491.515 235.531 493.307 239.161 495.1 242.789 508.109 240.022 522.365 232.979 526.029 231.17 529.418 229.257 532.399 227.345 537.852 223.85 541.502 214.199 543.701 212.15 545.901 210.1 554.352 207.199 557.091 203.242 559.268 200.098 561.488 196.449 563.583 192.461 570.974 178.384 574.063 165.447 570.48 163.565Z" fill="#FFC000"/><path d="M607.53 289.655C600.141 271.053 589.218 254.441 575.092 240.315L555.818 220.641C551.561 216.277 550.354 213.477 553.754 207.967L557.145 203.197C551.088 196.988 540.73 198.002 534.522 204.059 528.315 210.115 526.37 221.125 532.427 227.333L537.268 224.05C542.87 220.047 546.63 221.717 551.273 226.476L569.789 245.619C583.189 259.018 593.549 274.775 600.559 292.419 607.157 309.029 610.317 326.805 610.317 344.677L610.317 357.718 600.216 357.718C600.213 357.724 600.213 357.724 600.211 357.731L610.317 364.727 610.317 536.968 617.817 536.968 617.817 344.743C617.815 325.903 614.485 307.164 607.53 289.655Z" fill="#D1D1D1"/><path d="M592.241 371.297C578.859 344.395 562.272 319.402 542.943 297.01 531.365 283.6 518.758 271.088 505.262 259.573 505.977 258.34 506.441 256.403 506.441 254.218 506.441 250.49 505.098 247.468 503.441 247.468 501.784 247.468 500.441 250.49 500.441 254.217 500.441 254.686 500.463 255.144 500.503 255.587 492.317 248.849 483.824 242.465 475.035 236.478L473.346 238.957C498.347 255.991 520.998 276.183 540.672 298.972 559.839 321.173 576.285 345.956 589.556 372.633 615.649 425.086 629.441 485.293 629.441 546.746L629.441 675.718 632.441 675.718 632.441 546.745C632.44 484.832 618.539 424.162 592.241 371.297Z" fill="#D1D1D1"/><path d="M443.744 221.967 450.935 245.967C452.3 250.523 449.713 255.324 445.157 256.689 440.6 258.054 435.8 255.467 434.435 250.911 433.932 249.232 433.964 247.528 434.435 245.967L441.626 221.967C441.801 221.382 442.417 221.051 443.002 221.225 443.37 221.336 443.639 221.626 443.744 221.967Z" fill="#FFC000"/><path d="M447.509 220.055 467.434 235.245C471.217 238.129 471.945 243.533 469.061 247.315 466.178 251.099 460.774 251.827 456.991 248.943 455.598 247.881 454.622 246.482 454.085 244.943L445.796 221.3C445.594 220.724 445.897 220.094 446.473 219.892 446.835 219.764 447.224 219.842 447.509 220.055Z" fill="#FFC000"/><path d="M449.432 216.296 474.479 216.872C479.234 216.982 483.001 220.925 482.892 225.681 482.782 230.436 478.839 234.202 474.083 234.093 472.331 234.053 470.72 233.494 469.381 232.565L448.778 218.309C448.276 217.962 448.151 217.273 448.498 216.772 448.716 216.457 449.076 216.29 449.432 216.296Z" fill="#FFC000"/><path d="M448.778 212.124 469.381 197.868C473.292 195.161 478.657 196.139 481.364 200.05 484.07 203.961 483.093 209.326 479.182 212.033 477.741 213.029 476.109 213.525 474.48 213.56L449.432 214.137C448.822 214.151 448.316 213.668 448.302 213.058 448.292 212.675 448.486 212.329 448.778 212.124Z" fill="#FFC000"/><path d="M445.797 209.134 454.086 185.491C455.659 181.002 460.574 178.639 465.062 180.213 469.551 181.787 471.914 186.701 470.34 191.19 469.76 192.843 468.732 194.203 467.434 195.19L447.509 210.38C447.024 210.749 446.331 210.656 445.961 210.17 445.728 209.864 445.681 209.471 445.797 209.134Z" fill="#FFC000"/><path d="M441.626 208.467 434.435 184.467C433.07 179.911 435.657 175.11 440.214 173.745 444.77 172.38 449.57 174.967 450.935 179.523 451.438 181.202 451.406 182.906 450.935 184.467L443.745 208.467C443.569 209.052 442.953 209.384 442.368 209.209 442.001 209.099 441.732 208.807 441.626 208.467Z" fill="#FFC000"/><path d="M437.862 210.378 417.937 195.188C414.154 192.305 413.426 186.901 416.31 183.118 419.193 179.335 424.597 178.607 428.38 181.49 429.773 182.552 430.749 183.951 431.286 185.49L439.575 209.133C439.777 209.709 439.474 210.34 438.898 210.541 438.535 210.669 438.146 210.592 437.862 210.378Z" fill="#FFC000"/><path d="M435.939 214.138 410.891 213.561C406.136 213.451 402.369 209.508 402.479 204.752 402.588 199.997 406.532 196.231 411.288 196.34 413.039 196.381 414.651 196.939 415.989 197.868L436.592 212.124C437.094 212.471 437.22 213.16 436.872 213.661 436.655 213.977 436.295 214.144 435.939 214.138Z" fill="#FFC000"/><path d="M436.592 218.309 415.989 232.565C412.078 235.272 406.713 234.295 404.007 230.384 401.3 226.472 402.277 221.107 406.188 218.401 407.629 217.404 409.261 216.908 410.89 216.873L435.938 216.296C436.548 216.282 437.054 216.766 437.068 217.376 437.078 217.759 436.884 218.104 436.592 218.309Z" fill="#FFC000"/><path d="M439.575 221.3 431.286 244.943C429.712 249.432 424.797 251.795 420.309 250.221 415.82 248.647 413.456 243.733 415.031 239.244 415.611 237.591 416.639 236.23 417.937 235.244L437.862 220.055C438.347 219.685 439.04 219.778 439.41 220.264 439.643 220.569 439.689 220.963 439.575 221.3Z" fill="#FFC000"/><path d="M606.94 506.967C605.512 456.931 601.79 419.043 568.235 378.748 553.478 362.262 538.139 345.937 527.096 326.561L511.284 342.373C552.15 367.914 578.659 394.791 590.676 430.37 589.289 429.391 587.725 428.371 585.969 427.309 574.59 420.428 562.287 419.967 562.287 419.967 562.287 419.967 568.43 430.662 579.808 437.543 586.367 441.509 591.175 443.375 594.405 443.711 597.28 456.497 598.5 470.377 598.047 485.645 593.878 481.322 587.367 476.318 578.063 470.719 556.212 457.573 532.587 456.717 532.587 456.717 532.587 456.717 544.391 477.177 566.244 490.324 580.791 499.076 590.872 502.489 596.953 502.199 596.953 503.851 597.026 506.968 597.026 506.968L606.94 506.968Z" fill="#D1D1D1"/><path d="M587.439 490.467C587.308 490.467 587.174 490.432 587.054 490.36 586.866 490.247 568.088 478.951 552.485 467.063 552.156 466.812 552.093 466.341 552.344 466.012 552.594 465.683 553.065 465.62 553.395 465.87 568.929 477.707 587.639 488.962 587.826 489.074 588.182 489.286 588.297 489.747 588.083 490.102 587.943 490.337 587.694 490.467 587.439 490.467Z" fill="#E5E5E5"/><path d="M563.716 333.323C560.964 332.707 558.26 332.178 555.634 331.732 555.627 331.73 555.626 331.721 555.633 331.717 558.272 330.742 560.979 329.661 563.723 328.473 584.63 319.422 599.71 307.77 597.406 302.449 595.102 297.128 576.286 300.151 555.38 309.202 552.792 310.322 550.294 311.482 547.906 312.665 547.899 312.669 547.893 312.661 547.897 312.655 549.459 310.315 551.013 307.849 552.535 305.275 564.129 285.664 569.48 267.373 564.489 264.422 559.496 261.471 546.051 274.977 534.458 294.588 533.023 297.016 531.683 299.423 530.448 301.783 530.444 301.789 530.434 301.787 530.434 301.78 530.322 298.968 530.13 296.06 529.848 293.083 527.701 270.404 521.279 252.461 515.506 253.007 509.732 253.554 506.794 272.383 508.941 295.064 509.207 297.871 509.539 300.605 509.926 303.241 509.927 303.249 509.918 303.253 509.913 303.247 508.17 301.038 506.306 298.798 504.328 296.555 489.259 279.469 473.518 268.727 469.169 272.563 464.819 276.398 473.509 293.359 488.578 310.445 490.443 312.56 492.319 314.578 494.182 316.483 494.187 316.488 494.182 316.497 494.174 316.495 491.466 315.732 488.641 315.016 485.723 314.364 463.489 309.398 444.44 309.96 443.176 315.62 441.912 321.279 458.912 329.893 481.146 334.858 483.898 335.474 486.601 336.003 489.228 336.449 489.235 336.451 489.236 336.461 489.229 336.464 486.59 337.439 483.883 338.52 481.139 339.708 460.232 348.759 445.151 360.411 447.456 365.732 449.759 371.054 468.576 368.03 489.482 358.979 492.07 357.859 494.568 356.698 496.956 355.516 496.962 355.512 496.969 355.52 496.965 355.526 495.402 357.866 493.848 360.332 492.326 362.906 480.733 382.517 475.381 400.807 480.373 403.759 485.365 406.71 498.81 393.204 510.404 373.593 511.839 371.165 513.178 368.759 514.414 366.398 514.418 366.392 514.427 366.394 514.427 366.401 514.539 369.213 514.731 372.121 515.013 375.098 517.161 397.777 523.582 415.721 529.355 415.174 535.129 414.627 538.068 395.798 535.92 373.117 534.811 361.404 532.561 350.963 529.85 343.671 536.753 347.423 547.187 351.147 559.139 353.816 581.372 358.782 600.422 358.22 601.685 352.561 602.949 346.903 585.95 338.289 563.716 333.323Z" fill="#FFC000"/><path d="M533.335 331.264C534.902 337.276 531.299 343.421 525.286 344.989 519.274 346.556 513.129 342.953 511.561 336.941 509.994 330.928 513.597 324.783 519.61 323.216 525.622 321.648 531.767 325.251 533.335 331.264Z" fill="#FFFFFF"/><path d="M885.403 181.679C885.403 182.922 884.396 183.929 883.153 183.929 881.91 183.929 880.903 182.922 880.903 181.679 880.903 180.437 881.91 179.429 883.153 179.429 884.396 179.429 885.403 180.437 885.403 181.679Z" fill="#FFC000"/><path d="M880.646 184.183C881.232 184.769 880.638 186.313 879.32 187.631 878.002 188.949 876.459 189.542 875.873 188.956 875.287 188.371 875.881 186.827 877.199 185.509 878.517 184.191 880.06 183.598 880.646 184.183Z" fill="#FFFFFF"/><path d="M884.653 188.592C884.653 190.456 883.981 191.967 883.153 191.967 882.325 191.967 881.653 190.456 881.653 188.592 881.653 186.728 882.325 185.217 883.153 185.217 883.981 185.217 884.653 186.728 884.653 188.592Z" fill="#FFFFFF"/><path d="M889.096 185.509C890.414 186.827 891.007 188.37 890.422 188.956 889.836 189.542 888.293 188.948 886.975 187.63 885.657 186.312 885.063 184.769 885.649 184.183 886.234 183.597 887.778 184.191 889.096 185.509Z" fill="#FFFFFF"/><path d="M893.44 181.679C893.44 182.508 891.929 183.179 890.065 183.179 888.201 183.179 886.69 182.508 886.69 181.679 886.69 180.851 888.201 180.179 890.065 180.179 891.929 180.179 893.44 180.851 893.44 181.679Z" fill="#FFFFFF"/><path d="M890.422 174.408C891.008 174.994 890.414 176.537 889.096 177.855 887.778 179.173 886.235 179.767 885.649 179.181 885.063 178.595 885.657 177.052 886.975 175.734 888.293 174.416 889.836 173.822 890.422 174.408Z" fill="#FFFFFF"/><path d="M884.653 174.767C884.653 176.631 883.981 178.142 883.153 178.142 882.325 178.142 881.653 176.631 881.653 174.767 881.653 172.903 882.325 171.392 883.153 171.392 883.981 171.392 884.653 172.903 884.653 174.767Z" fill="#FFFFFF"/><path d="M879.32 175.733C880.638 177.051 881.232 178.595 880.646 179.181 880.061 179.766 878.517 179.173 877.199 177.855 875.881 176.537 875.288 174.993 875.873 174.408 876.459 173.822 878.003 174.415 879.32 175.733Z" fill="#FFFFFF"/><path d="M879.615 181.679C879.615 182.508 878.104 183.179 876.24 183.179 874.376 183.179 872.865 182.508 872.865 181.679 872.865 180.851 874.376 180.179 876.24 180.179 878.104 180.179 879.615 180.851 879.615 181.679Z" fill="#FFFFFF"/><path d="M866.978 162.504C866.978 163.747 865.97 164.754 864.728 164.754 863.485 164.754 862.478 163.747 862.478 162.504 862.478 161.261 863.485 160.254 864.728 160.254 865.97 160.254 866.978 161.261 866.978 162.504Z" fill="#FFC000"/><path d="M862.221 165.008C862.807 165.594 862.213 167.137 860.895 168.455 859.577 169.773 858.034 170.367 857.448 169.781 856.862 169.195 857.456 167.652 858.774 166.334 860.092 165.016 861.635 164.422 862.221 165.008Z" fill="#FFFFFF"/><path d="M866.228 169.417C866.228 171.281 865.556 172.792 864.728 172.792 863.899 172.792 863.228 171.281 863.228 169.417 863.228 167.553 863.899 166.042 864.728 166.042 865.556 166.042 866.228 167.553 866.228 169.417Z" fill="#FFFFFF"/><path d="M870.671 166.334C871.989 167.652 872.582 169.195 871.997 169.781 871.411 170.367 869.868 169.773 868.55 168.455 867.232 167.137 866.638 165.594 867.224 165.008 867.81 164.422 869.353 165.016 870.671 166.334Z" fill="#FFFFFF"/><path d="M875.015 162.504C875.015 163.332 873.504 164.004 871.64 164.004 869.776 164.004 868.265 163.332 868.265 162.504 868.265 161.676 869.776 161.004 871.64 161.004 873.504 161.004 875.015 161.676 875.015 162.504Z" fill="#FFFFFF"/><path d="M871.997 155.233C872.583 155.819 871.989 157.362 870.671 158.68 869.353 159.998 867.81 160.592 867.224 160.006 866.638 159.42 867.232 157.877 868.55 156.559 869.868 155.241 871.411 154.647 871.997 155.233Z" fill="#FFFFFF"/><path d="M866.228 155.592C866.228 157.456 865.556 158.967 864.728 158.967 863.899 158.967 863.228 157.456 863.228 155.592 863.228 153.728 863.899 152.217 864.728 152.217 865.556 152.217 866.228 153.728 866.228 155.592Z" fill="#FFFFFF"/><path d="M860.896 156.558C862.214 157.876 862.807 159.42 862.221 160.005 861.635 160.591 860.092 159.997 858.774 158.679 857.456 157.361 856.863 155.818 857.448 155.232 858.034 154.647 859.578 155.24 860.896 156.558Z" fill="#FFFFFF"/><path d="M861.19 162.504C861.19 163.332 859.679 164.004 857.815 164.004 855.951 164.004 854.44 163.332 854.44 162.504 854.44 161.676 855.951 161.004 857.815 161.004 859.679 161.004 861.19 161.676 861.19 162.504Z" fill="#FFFFFF"/><path d="M590.375 165.782 589.949 165.355 589.949 109.919C589.949 109.091 589.277 108.419 588.449 108.419 587.621 108.419 586.949 109.091 586.949 109.919L586.949 162.355 571.328 146.734C572.132 146.884 573.014 146.968 573.939 146.968 577.667 146.968 580.689 145.624 580.69 143.968 580.69 142.311 577.668 140.968 573.94 140.968 570.983 140.968 568.475 141.814 567.563 142.991 566.974 142.51 566.108 142.538 565.56 143.087 565.098 143.548 565.006 144.234 565.271 144.791 563.813 145.25 562.69 148.06 562.69 151.468 562.69 155.195 564.033 158.218 565.69 158.218 567.347 158.218 568.69 155.196 568.69 151.468 568.69 150.146 568.518 148.917 568.227 147.876L588.254 167.903C588.546 168.197 588.93 168.343 589.314 168.343 589.698 168.343 590.082 168.197 590.375 167.903 590.962 167.317 590.962 166.367 590.375 165.782Z" fill="#D1D1D1"/><path d="M565.547 122.348C562.973 120.27 559.703 119.02 556.136 119.021 547.852 119.021 541.136 125.736 541.136 134.021 541.136 137.2 542.133 140.143 543.82 142.57 546.529 146.465 560 150.7 566.15 143.7 571.944 137.105 568.953 125.098 565.547 122.348Z" fill="#737373"/><path d="M555.745 135.767C550.746 135.98 546.384 138.629 543.82 142.57 546.529 146.465 551.032 149.021 556.136 149.021 557.955 149.021 559.69 148.68 561.302 148.087 564.364 146.962 564.801 142.45 563.55 139.649 560.841 135.755 555.962 135.757 555.745 135.767Z" fill="#505050"/><path d="M565.547 122.348C560.006 124.384 556.01 129.585 555.745 135.767 555.736 135.983 555.712 136.196 555.712 136.415 555.712 141.133 557.896 145.338 561.302 148.087 564.364 146.962 566.958 144.878 568.71 142.184 570.24 139.834 571.136 137.034 571.136 134.021 571.136 129.301 568.953 125.098 565.547 122.348Z" fill="#2F2F2F"/><path d="M603.104 95.9955C602.754 92.706 601.325 89.5103 598.803 86.9888 592.945 81.1305 583.448 81.1305 577.59 86.9888 575.343 89.2373 573.965 92.0228 573.443 94.932 572.604 99.6015 577 110.775 588.1 110.925 598.524 111.066 603.569 100.349 603.104 95.9955Z" fill="#737373"/><path d="M577.59 108.202C578.877 109.487 580.344 110.474 581.903 111.195 587.05 111.825 589.75 108.525 589.975 104.775 590.187 101.253 586.526 98.7 586.685 98.553 582.999 95.1697 578.042 93.9577 573.443 94.9312 572.604 99.6015 573.98 104.592 577.59 108.202Z" fill="#505050"/><path d="M603.104 95.9955C597.746 93.5175 591.244 94.3695 586.685 98.5537 586.525 98.7 586.358 98.8343 586.203 98.9888 582.866 102.326 581.437 106.842 581.902 111.195 584.862 112.564 588.171 112.924 591.315 112.258 594.058 111.678 596.672 110.333 598.802 108.202 602.14 104.865 603.569 100.349 603.104 95.9955Z" fill="#D1D1D1"/><path d="M650.835 109.631C650.66 106.692 650.219 103.757 649.13 100.874 648.969 100.446 648.605 100.089 648.07 99.9615 647.491 99.8235 646.889 100.097 646.563 100.595L646.551 100.614C644.904 103.133 643.659 105.574 642.426 107.962 641.214 110.351 640.072 112.686 639 115.019 636.847 119.678 634.826 124.306 632.931 129.172 631.045 134.029 629.417 139.213 627.935 144.6L625.913 151.77C625.911 151.778 625.898 151.777 625.898 151.768 626.035 148.37 626.168 144.971 626.31 141.572 626.622 133.471 627.147 125.371 627.156 117.27 627.161 113.219 627.051 109.169 626.831 105.119 626.675 103.094 626.414 101.069 625.947 99.0435 625.482 97.0185 624.875 94.9935 623.863 92.9678 623.796 92.832 623.685 92.7165 623.539 92.6438 623.181 92.4653 622.746 92.61 622.567 92.9678 621.555 94.9928 620.948 97.0185 620.484 99.0435 620.016 101.068 619.755 103.094 619.599 105.119 619.38 109.17 619.27 113.22 619.274 117.27 619.283 125.371 619.807 133.471 620.12 141.572 620.262 144.971 620.395 148.37 620.531 151.768 620.531 151.777 620.52 151.779 620.516 151.77L618.495 144.6C617.014 139.214 615.385 134.029 613.5 129.172 611.603 124.307 609.583 119.679 607.431 115.019 606.359 112.685 605.216 110.351 604.004 107.962 602.771 105.574 601.526 103.133 599.879 100.614L599.865 100.593C599.662 100.282 599.337 100.045 598.925 99.963 598.228 99.8242 597.528 100.263 597.279 100.928 596.205 103.794 595.769 106.711 595.595 109.632 595.439 112.57 595.604 115.511 596.073 118.386 596.995 124.147 599.01 129.637 601.663 134.63 604.322 139.642 607.763 144.069 611.266 148.331 612.137 149.401 612.994 150.475 613.837 151.552 614.69 152.625 615.52 153.709 616.31 154.813 617.868 156.98 619.295 159.221 620.55 161.551 620.991 167.136 621.345 172.724 621.599 178.315 621.724 181.163 621.827 184.009 621.888 186.859 621.932 189.71 621.986 192.559 621.92 195.414 621.919 195.466 621.921 195.526 621.927 195.579 622.016 196.441 622.93 197.017 623.804 196.609 624.291 196.381 624.562 195.845 624.51 195.309L624.509 195.292C624.447 192.479 624.499 189.67 624.542 186.86 624.603 184.011 624.706 181.163 624.831 178.316 625.084 172.724 625.438 167.137 625.879 161.552 627.135 159.222 628.561 156.981 630.119 154.814 630.909 153.71 631.739 152.626 632.592 151.553 633.436 150.475 634.292 149.402 635.163 148.332 638.667 144.07 642.108 139.643 644.766 134.631 647.42 129.638 649.435 124.148 650.356 118.387 650.826 115.511 650.991 112.569 650.835 109.631Z" fill="#E5E5E5"/><path d="M642.896 145.481C642.896 145.481 630.682 168.174 624.098 193.5 623.977 193.964 623.534 195.754 623.472 196.004 623.47 196.012 623.459 196.012 623.458 196.004 623.396 195.752 622.946 193.936 622.821 193.46 616.235 168.15 604.032 145.482 604.032 145.482 585.661 147.669 577.648 173.908 584.884 201.841 585.65 204.795 586.559 207.646 587.585 210.383 610.25 239.451 637.749 238.451 659.338 210.399 660.367 207.656 661.278 204.801 662.046 201.841 669.281 173.907 661.269 147.668 642.896 145.481Z" fill="#FFC000"/><path d="M642.212 342.806C635.785 344.405 631.113 346.697 627.94 349.396L627.94 323.891 633.183 314.978C633.186 314.972 633.182 314.966 633.177 314.966L627.94 314.966 627.94 243.596C642.616 239.617 656.311 218.446 659.333 210.409 659.336 210.404 659.332 210.398 659.326 210.4 656.75 210.833 643.886 213.401 634.589 222.699 633.884 223.405 633.205 224.114 632.546 224.825 632.562 224.176 632.58 223.527 632.58 222.865 632.58 208.322 623.669 196.508 623.51 196.298 623.507 196.294 623.508 196.294 623.505 196.298 623.346 196.508 614.435 208.322 614.435 222.865 614.435 223.526 614.451 224.176 614.468 224.825 613.808 224.114 613.13 223.405 612.425 222.699 603.018 213.293 589.958 210.774 587.597 210.385 587.591 210.384 587.588 210.389 587.589 210.395 590.712 218.7 605.223 241.388 620.44 243.997L620.44 285.947C618.326 283.855 615.622 281.773 612.247 279.742 597.976 271.158 578.44 277.424 578.44 277.424 578.44 277.424 582.041 297.607 596.312 306.19 607.139 312.703 615.239 312.93 620.44 309.473L620.44 450.716 614.453 450.716C614.447 450.716 614.443 450.722 614.446 450.727L620.439 460.916 620.439 530.966 627.939 530.966 627.939 400.391 633.182 391.477C633.185 391.472 633.182 391.466 633.176 391.466L627.939 391.466 627.939 371.023C632.318 374.242 639.436 375.316 649.645 372.776 665.805 368.755 675.189 350.51 675.189 350.51 675.189 350.51 658.373 338.785 642.212 342.806Z" fill="#737373"/><path d="M616.69 302.967C616.492 302.967 616.295 302.889 616.148 302.734 600.746 286.599 588.104 282.723 587.978 282.686 587.581 282.568 587.354 282.152 587.471 281.755 587.589 281.357 588.006 281.132 588.402 281.247 588.931 281.403 601.525 285.243 617.233 301.699 617.519 301.998 617.508 302.473 617.208 302.759 617.063 302.898 616.876 302.967 616.69 302.967Z" fill="#505050"/><path d="M626.754 362.217C626.447 362.217 626.159 362.027 626.049 361.723 625.907 361.333 626.109 360.903 626.498 360.762 647.069 353.303 666 353.217 666.189 353.217 666.603 353.217 666.939 353.553 666.939 353.967 666.939 354.381 666.604 354.717 666.189 354.717 666.003 354.717 647.322 354.807 627.009 362.173 626.925 362.203 626.839 362.217 626.754 362.217Z" fill="#505050"/><path d="M769.863 247.623C770.832 246.43 766.885 241.67 767.708 240.404 768.545 239.119 774.495 240.798 775.182 239.449 775.877 238.085 771.022 234.257 771.564 232.841 772.111 231.414 778.281 231.811 778.672 230.345 779.066 228.87 773.519 226.138 773.756 224.636 773.993 223.13 780.111 222.237 780.19 220.717 780.27 219.197 774.277 217.672 774.198 216.151 774.119 214.631 779.92 212.492 779.683 210.986 779.447 209.485 773.269 209.234 772.876 207.759 772.484 206.293 777.715 202.995 777.168 201.568 776.626 200.152 770.533 201.196 769.838 199.831 769.151 198.484 773.576 194.164 772.74 192.879 771.916 191.613 766.176 193.908 765.207 192.715 764.258 191.545 767.688 186.4 766.599 185.311 765.51 184.222 760.365 187.652 759.195 186.703 758.002 185.734 760.296 179.994 759.031 179.171 757.745 178.334 753.427 182.759 752.078 182.072 750.714 181.376 751.758 175.283 750.342 174.741 748.915 174.194 745.617 179.425 744.15 179.033 742.675 178.639 742.424 172.462 740.923 172.225 739.417 171.988 737.278 177.789 735.758 177.71 734.237 177.631 732.712 171.639 731.191 171.718 729.672 171.798 728.778 177.915 727.272 178.153 725.771 178.389 723.039 172.843 721.564 173.236 720.098 173.628 720.495 179.797 719.067 180.344 717.652 180.887 713.823 176.032 712.459 176.727 711.111 177.414 712.79 183.363 711.504 184.2 710.238 185.023 705.479 181.076 704.286 182.045 703.115 182.993 768.913 248.793 769.863 247.623Z" fill="#FFC000"/><path d="M725.361 204.696C731.417 198.487 741.776 199.502 747.984 205.558 754.191 211.614 755.901 222.859 749.844 229.067L745.239 225.549C739.637 221.546 735.877 223.216 731.234 227.975L709.874 249.904 704.628 244.786 726.688 222.14C730.944 217.777 732.152 214.976 728.752 209.466L725.361 204.696Z" fill="#D1D1D1"/><path d="M711.008 162.717C711.008 150.29 699.37 140.967 686.943 140.967 674.516 140.967 661.508 150.29 661.508 162.717L669.758 164.217C679.508 165.717 681.693 171.19 681.693 180.717L681.693 506.217 692.193 506.217 692.193 179.281C692.193 170.547 693.758 166.466 702.758 164.216L711.008 162.717Z" fill="#D1D1D1"/><path d="M764.261 135.413C762.469 129.898 743.452 131.134 721.785 138.174 719.799 138.82 717.859 139.492 715.975 140.185 717.096 138.749 718.214 137.27 719.323 135.743 732.714 117.312 739.766 99.6075 735.074 96.1987 730.383 92.79 715.724 104.968 702.334 123.399 700.67 125.688 699.106 127.966 697.649 130.207 697.803 127.389 697.887 124.467 697.887 121.467 697.887 98.685 693.186 80.217 687.387 80.217 681.588 80.217 676.887 98.685 676.887 121.467 676.887 124.297 676.96 127.059 677.098 129.729 675.567 127.358 673.917 124.945 672.153 122.518 658.763 104.087 644.104 91.9088 639.413 95.3175 634.721 98.7262 641.774 116.43 655.164 134.861 656.828 137.15 658.51 139.342 660.191 141.421 657.558 140.403 654.805 139.421 651.952 138.493 630.285 131.453 611.268 130.217 609.477 135.733 607.685 141.248 623.796 151.426 645.463 158.466 664.521 164.658 681.522 166.357 686.561 162.925 686.569 162.93 686.575 162.938 686.583 162.943 687.224 163.409 688.013 163.763 689 164.026 695.625 165.925 711.151 163.861 728.301 158.288 749.966 151.247 766.052 140.929 764.261 135.413Z" fill="#FFC000"/><path d="M835.624 260.551C835.394 260.031 834.818 259.755 834.263 259.873L834.255 259.874C831.794 260.389 829.617 261.095 827.48 261.778 825.35 262.468 823.311 263.198 821.289 263.922 817.262 265.395 813.344 266.956 809.346 268.697 805.364 270.449 801.341 272.552 797.284 274.857L791.795 277.931C791.788 277.936 791.78 277.925 791.786 277.919L798.112 272.109 805.598 265.243C808.104 262.965 810.567 260.644 812.961 258.254 815.348 255.857 817.683 253.408 819.945 250.886 821.053 249.602 822.092 248.249 823.013 246.778 823.934 245.307 824.771 243.753 825.37 241.959 825.41 241.839 825.413 241.705 825.37 241.576 825.264 241.259 824.922 241.088 824.604 241.193 822.811 241.792 821.256 242.63 819.786 243.551 818.314 244.471 816.961 245.51 815.677 246.618 813.155 248.88 810.706 251.216 808.309 253.602 805.92 255.997 803.598 258.46 801.32 260.966L794.454 268.453 788.644 274.778C788.638 274.785 788.628 274.777 788.632 274.769L791.706 269.281C794.012 265.224 796.114 261.201 797.866 257.219 799.607 253.22 801.168 249.303 802.641 245.276 803.366 243.254 804.096 241.215 804.786 239.085 805.468 236.947 806.174 234.77 806.689 232.31L806.693 232.289C806.745 232.042 806.721 231.776 806.605 231.529 806.321 230.921 805.581 230.682 804.97 230.96 802.643 232.018 800.662 233.483 798.834 235.105 797.002 236.745 795.388 238.595 793.947 240.558 791.081 244.502 789.051 248.942 787.656 253.453 786.264 257.982 785.684 262.63 785.235 267.216 784.986 269.504 784.753 271.783 784.386 274.023 784.026 276.223 783.545 278.389 782.91 280.506 779.873 284.064 776.782 287.573 773.63 291.026 772.027 292.785 770.391 294.514 768.755 296.242 767.098 297.951 765.447 299.666 763.722 301.312 763.691 301.342 763.657 301.379 763.629 301.414 763.251 301.88 763.323 302.562 763.788 302.939 764.223 303.291 764.837 303.238 765.224 302.853 765.232 302.852 765.236 302.858 765.252 302.841 765.27 302.821 765.291 302.802 765.309 302.783 765.311 302.781 765.312 302.78 765.313 302.779 765.315 302.778 765.316 302.776 765.318 302.774 766.944 301.074 768.635 299.443 770.322 297.809 772.05 296.172 773.779 294.535 775.539 292.933 778.991 289.78 782.5 286.689 786.058 283.651 788.176 283.017 790.341 282.535 792.541 282.176 794.781 281.809 797.06 281.576 799.348 281.326 803.933 280.878 808.581 280.298 813.111 278.905 817.622 277.511 822.062 275.481 826.006 272.615 827.969 271.174 829.819 269.56 831.458 267.728 833.09 265.888 834.564 263.894 835.623 261.549 835.76 261.252 835.776 260.894 835.624 260.551Z" fill="#737373"/><path d="M807.683 282.131C807.683 282.131 786.248 288.565 767.112 300.047 766.856 300.199 766.599 300.338 766.564 300.303 766.544 300.284 766.661 300.006 766.815 299.751 778.297 280.615 784.73 259.178 784.73 259.178 772.589 249.62 752.361 260.384 740.138 281.154 738.846 283.351 737.699 285.572 736.688 287.794 733.549 319.15 750.349 333.35 779.055 330.179 781.282 329.168 783.506 328.019 785.708 326.724 806.477 314.501 817.242 294.273 807.683 282.131Z" fill="#FFC000"/><path d="M743.741 332.559C755.148 336.854 773.039 332.906 779.045 330.184 779.05 330.182 779.052 330.176 779.047 330.173 777.269 328.906 768.156 322.828 757.175 322.827 756.341 322.827 755.522 322.846 754.713 322.877 755.105 322.502 755.499 322.13 755.89 321.739 764.472 313.156 766.191 300.928 766.223 300.692 766.224 300.687 766.225 300.689 766.22 300.689 765.984 300.721 753.755 302.44 745.173 311.022 744.783 311.413 744.409 311.806 744.035 312.199 744.066 311.39 744.083 310.57 744.084 309.737 744.083 298.628 737.859 289.428 736.694 287.802 736.69 287.797 736.685 287.798 736.683 287.803 733.599 294.604 728.724 316.852 736.416 327.282L723.086 343.067 717.501 337.483C717.496 337.478 717.487 337.482 717.489 337.49L719.324 347.582C697.336 374.665 679.203 411.354 669.338 448.369 667.203 446.227 664.45 444.095 660.996 442.018 646.725 433.433 627.189 439.699 627.189 439.699 627.189 439.699 630.79 459.882 645.061 468.466 653.99 473.836 661.065 474.934 666.189 473.216L666.189 507.716 675.189 507.716 675.189 462.445C676.372 456.977 677.758 451.494 679.32 446.028L687.171 440.978C687.177 440.974 687.175 440.965 687.167 440.965L680.975 440.465C682.926 434.15 685.114 427.873 687.516 421.684 691.547 426.289 699.274 428.287 711.259 425.305 727.419 421.284 736.803 403.039 736.803 403.039 736.803 403.039 719.985 391.314 703.825 395.335 701.885 395.818 700.107 396.365 698.479 396.966 707.159 379.676 717.412 363.737 728.639 350.443L743.741 332.559Z" fill="#737373"/><path d="M663.191 464.217C662.94 464.217 662.694 464.091 662.552 463.862 653.084 448.568 634.699 443.99 634.515 443.946 634.112 443.848 633.864 443.443 633.961 443.042 634.058 442.638 634.464 442.393 634.865 442.487 635.056 442.534 654.029 447.243 663.828 463.072 664.046 463.424 663.938 463.886 663.585 464.105 663.462 464.181 663.326 464.217 663.191 464.217Z" fill="#505050"/><path d="M693.404 413.507C693.151 413.507 692.904 413.379 692.763 413.147 692.548 412.793 692.661 412.332 693.014 412.117 712.579 400.216 727.199 404.531 727.811 404.721 728.207 404.843 728.428 405.262 728.307 405.658 728.186 406.053 727.768 406.274 727.37 406.154 727.227 406.11 712.742 401.873 693.793 413.398 693.672 413.472 693.537 413.507 693.404 413.507Z" fill="#505050"/><path d="M649.784 422.073C671.636 408.926 683.441 388.466 683.441 388.466 683.441 388.466 659.817 389.322 637.965 402.469 616.114 415.615 609.618 425.504 612.882 430.918 616.146 436.331 627.932 435.22 649.784 422.073Z" fill="#D1D1D1"/><path d="M618.941 425.217C618.662 425.217 618.394 425.061 618.265 424.793 618.085 424.42 618.242 423.971 618.615 423.791 618.818 423.694 639.178 413.84 668.792 395.332 669.145 395.111 669.607 395.219 669.826 395.57 670.046 395.921 669.939 396.384 669.588 396.603 639.897 415.16 619.469 425.045 619.266 425.143 619.161 425.194 619.049 425.217 618.941 425.217Z" fill="#E5E5E5"/><path d="M716.668 268.352C718.182 263.739 727.686 260.477 727.701 255.871 727.717 251.099 718.184 247.773 716.75 243.325 715.302 238.832 721.09 230.576 718.331 226.747 715.599 222.955 705.959 225.833 702.105 223.017 698.387 220.299 698.245 210.202 693.633 208.688 689.021 207.173 682.921 215.22 678.315 215.205 673.542 215.189 667.485 207.156 663.037 208.59 658.544 210.038 658.311 220.118 654.482 222.878 650.69 225.61 641.042 222.637 638.225 226.49 635.507 230.208 641.226 238.469 639.712 243.082 638.198 247.694 628.694 250.957 628.679 255.562 628.663 260.335 638.195 263.66 639.63 268.108 641.078 272.601 635.29 280.857 638.049 284.686 640.781 288.479 650.421 285.6 654.275 288.416 657.992 291.134 658.135 301.231 662.747 302.746 667.359 304.26 673.459 296.213 678.065 296.228 682.838 296.244 688.895 304.277 693.343 302.843 697.836 301.395 698.069 291.315 701.898 288.556 705.69 285.823 715.338 288.797 718.155 284.943 720.872 281.225 715.154 272.964 716.668 268.352Z" fill="#FFC000"/><path d="M712.063 254.896C712.067 253.766 704.371 252.826 694.875 252.797 689.51 252.78 684.719 253.057 681.564 253.505 684.391 252.034 688.461 249.461 692.832 246.307 700.532 240.748 706.239 235.5 705.577 234.584 704.916 233.668 698.137 237.431 690.437 242.989 686.087 246.128 682.375 249.168 680.087 251.385 681.509 248.533 683.289 244.058 684.97 238.939 687.933 229.917 689.465 222.316 688.391 221.964 687.318 221.611 684.045 228.64 681.082 237.663 679.408 242.761 678.192 247.402 677.643 250.541 677.118 247.399 675.929 242.732 674.279 237.6 671.372 228.559 668.145 221.51 667.068 221.856 665.993 222.202 667.477 229.811 670.383 238.853 672.025 243.959 673.77 248.43 675.17 251.292 672.898 249.059 669.193 245.983 664.843 242.801 657.177 237.195 650.423 233.39 649.756 234.302 649.089 235.214 654.762 240.498 662.428 246.104 666.758 249.271 670.796 251.862 673.612 253.354 670.461 252.883 665.654 252.572 660.266 252.556 650.77 252.526 643.068 253.418 643.065 254.548 643.062 255.677 650.757 256.618 660.254 256.647 665.619 256.663 670.409 256.386 673.564 255.938 670.737 257.409 666.667 259.982 662.297 263.137 654.596 268.695 648.89 273.943 649.551 274.859 650.213 275.775 656.991 272.012 664.692 266.455 669.042 263.315 672.753 260.276 675.042 258.059 673.62 260.91 671.84 265.385 670.159 270.504 667.196 279.526 665.664 287.127 666.738 287.479 667.811 287.832 671.084 280.804 674.047 271.78 675.721 266.683 676.938 262.041 677.486 258.902 678.011 262.045 679.2 266.711 680.85 271.844 683.756 280.885 686.984 287.933 688.061 287.588 689.136 287.242 687.652 279.632 684.746 270.591 683.104 265.483 681.359 261.013 679.958 258.151 682.231 260.385 685.936 263.461 690.287 266.643 697.953 272.249 704.707 276.054 705.374 275.142 706.041 274.23 700.367 268.946 692.702 263.34 688.372 260.174 684.334 257.582 681.518 256.091 684.669 256.561 689.475 256.872 694.863 256.888 704.358 256.918 712.059 256.026 712.063 254.896Z" fill="#FFFFFF"/><path d="M763.567 420.502C718.392 420.502 681.64 457.254 681.64 502.428L681.64 530.967 692.14 530.967 692.14 502.428C692.14 502.102 692.148 501.779 692.153 501.454 695.366 502.612 699.755 502.726 705.458 501.307 717.436 498.326 724.388 484.801 724.388 484.801 724.388 484.801 711.92 476.108 699.942 479.09 698.354 479.485 696.914 479.939 695.608 480.44 704.903 451.782 731.852 431.002 763.567 431.002L793.39 431.002 793.39 420.502 763.567 420.502Z" fill="#D1D1D1"/><path d="M829.104 423.468C826.413 422.594 823.763 421.809 821.182 421.116 823.91 420.392 826.715 419.569 829.568 418.642 851.234 411.602 867.346 401.424 865.554 395.909 863.762 390.393 844.745 391.63 823.079 398.669 820.388 399.544 817.783 400.466 815.287 401.423 817.069 399.234 818.854 396.919 820.617 394.492 834.008 376.062 841.06 358.357 836.369 354.949 831.677 351.54 817.019 363.719 803.628 382.149 801.965 384.438 800.4 386.716 798.943 388.957 799.098 386.139 799.182 383.216 799.182 380.217 799.182 357.435 794.48 338.967 788.682 338.967 782.883 338.967 778.182 357.435 778.182 380.217 778.182 383.047 778.254 385.809 778.392 388.478 776.861 386.107 775.211 383.694 773.448 381.267 760.057 362.837 745.398 350.658 740.707 354.067 736.016 357.475 743.068 375.179 756.458 393.611 758.122 395.9 759.804 398.092 761.485 400.17 758.852 399.152 756.099 398.17 753.246 397.243 731.58 390.203 712.562 388.966 710.771 394.482 708.979 399.997 725.09 410.175 746.757 417.215 749.448 418.09 752.098 418.874 754.68 419.567 751.952 420.291 749.147 421.115 746.294 422.042 724.627 429.082 708.516 439.259 710.307 444.775 712.099 450.29 731.116 449.053 752.783 442.014 755.474 441.139 758.078 440.217 760.574 439.26 758.793 441.449 757.008 443.764 755.244 446.191 741.854 464.621 734.802 482.326 739.493 485.734 744.184 489.143 758.843 476.965 772.233 458.534 773.897 456.245 775.461 453.967 776.918 451.727 776.764 454.544 776.68 457.466 776.68 460.466 776.68 483.248 781.381 501.716 787.18 501.716 792.979 501.716 797.68 483.248 797.68 460.466 797.68 457.637 797.607 454.874 797.469 452.205 799.001 454.576 800.65 456.989 802.414 459.416 815.805 477.847 830.463 490.025 835.154 486.617 839.846 483.208 832.793 465.503 819.403 447.073 817.74 444.784 816.057 442.591 814.377 440.513 817.009 441.531 819.762 442.513 822.615 443.441 844.282 450.481 863.299 451.717 865.091 446.201 866.883 440.686 850.771 430.508 829.104 423.468Z" fill="#FFC000"/><path d="M806.415 421.932C801.333 420.281 796.705 419.082 793.565 418.541 793.557 418.539 793.557 418.529 793.565 418.527 796.706 417.988 801.351 416.788 806.457 415.129 815.489 412.194 822.527 408.944 822.178 407.87 821.828 406.795 814.224 408.303 805.192 411.238 800.11 412.889 795.66 414.64 792.801 416.047 792.794 416.051 792.789 416.042 792.794 416.036 795.018 413.755 798.071 410.052 801.226 405.709 806.808 398.026 810.592 391.259 809.678 390.595 808.763 389.93 803.498 395.621 797.916 403.303 794.775 407.627 792.204 411.658 790.719 414.476 790.715 414.483 790.705 414.48 790.707 414.473 791.165 411.32 791.458 406.529 791.458 401.161 791.458 391.665 790.542 383.966 789.412 383.966 788.282 383.966 787.366 391.665 787.366 401.161 787.366 406.504 787.656 411.275 788.111 414.429 788.112 414.437 788.102 414.44 788.098 414.434 786.615 411.613 784.038 407.566 780.883 403.225 775.301 395.542 770.035 389.852 769.121 390.516 768.207 391.18 771.991 397.947 777.573 405.63 780.713 409.951 783.752 413.641 785.973 415.925 785.979 415.931 785.973 415.94 785.965 415.936 783.107 414.527 778.643 412.768 773.54 411.11 764.508 408.176 756.903 406.668 756.554 407.742 756.204 408.817 763.243 412.066 772.275 415.001 777.357 416.652 781.985 417.851 785.125 418.393 785.133 418.394 785.133 418.405 785.125 418.406 781.984 418.945 777.339 420.145 772.234 421.805 763.202 424.739 756.163 427.989 756.512 429.064 756.862 430.138 764.466 428.63 773.498 425.695 778.579 424.045 783.028 422.294 785.887 420.887 785.895 420.883 785.901 420.893 785.895 420.898 783.671 423.18 780.619 426.882 777.464 431.224 771.882 438.907 768.099 445.673 769.013 446.338 769.927 447.002 775.193 441.312 780.775 433.629 783.915 429.307 786.485 425.277 787.971 422.458 787.974 422.451 787.985 422.455 787.983 422.463 787.525 425.617 787.232 430.406 787.232 435.771 787.232 445.268 788.148 452.966 789.279 452.966 790.408 452.966 791.324 445.268 791.324 435.771 791.324 430.43 791.034 425.657 790.58 422.504 790.578 422.495 790.589 422.492 790.592 422.499 792.075 425.32 794.652 429.366 797.807 433.708 803.39 441.391 808.656 447.081 809.57 446.417 810.484 445.752 806.699 438.986 801.118 431.302 797.978 426.98 794.938 423.29 792.716 421.006 792.711 421 792.717 420.992 792.724 420.996 795.582 422.406 800.046 424.165 805.15 425.823 814.182 428.758 821.786 430.265 822.136 429.191 822.486 428.117 815.447 424.867 806.415 421.932Z" fill="#FFFFFF"/><path d="M559.69 97.467C559.69 101.609 556.332 104.967 552.19 104.967 548.048 104.967 544.69 101.609 544.69 97.467 544.69 93.3249 548.048 89.967 552.19 89.967 556.332 89.967 559.69 93.3249 559.69 97.467Z" fill="#FFC000"/><path d="M536.44 107.217C536.44 109.288 534.761 110.967 532.69 110.967 530.619 110.967 528.94 109.288 528.94 107.217 528.94 105.146 530.619 103.467 532.69 103.467 534.761 103.467 536.44 105.146 536.44 107.217Z" fill="#FFC000"/><path d="M819.94 137.967C819.94 142.109 816.582 145.467 812.44 145.467 808.298 145.467 804.94 142.109 804.94 137.967 804.94 133.825 808.298 130.467 812.44 130.467 816.582 130.467 819.94 133.825 819.94 137.967Z" fill="#FFC000"/><path d="M822.19 117.717C822.19 121.859 818.832 125.217 814.69 125.217 810.548 125.217 807.19 121.859 807.19 117.717 807.19 113.575 810.548 110.217 814.69 110.217 818.832 110.217 822.19 113.575 822.19 117.717Z" fill="#FFC000"/><path d="M832.69 114.717C832.69 116.788 831.011 118.467 828.94 118.467 826.869 118.467 825.19 116.788 825.19 114.717 825.19 112.646 826.869 110.967 828.94 110.967 831.011 110.967 832.69 112.646 832.69 114.717Z" fill="#FFC000"/><path d="M840.19 133.467C840.19 137.609 836.832 140.967 832.69 140.967 828.548 140.967 825.19 137.609 825.19 133.467 825.19 129.325 828.548 125.967 832.69 125.967 836.832 125.967 840.19 129.325 840.19 133.467Z" fill="#FFC000"/><path d="M428.44 159.717C428.44 163.859 425.082 167.217 420.94 167.217 416.798 167.217 413.44 163.859 413.44 159.717 413.44 155.575 416.798 152.217 420.94 152.217 425.082 152.217 428.44 155.575 428.44 159.717Z" fill="#FFC000"/><path d="M429.19 123.717C429.19 127.859 425.832 131.217 421.69 131.217 417.548 131.217 414.19 127.859 414.19 123.717 414.19 119.575 417.548 116.217 421.69 116.217 425.832 116.217 429.19 119.575 429.19 123.717Z" fill="#FFC000"/><path d="M460.69 132.717C460.69 136.859 457.332 140.217 453.19 140.217 449.048 140.217 445.69 136.859 445.69 132.717 445.69 128.575 449.048 125.217 453.19 125.217 457.332 125.217 460.69 128.575 460.69 132.717Z" fill="#FFC000"/><path d="M596.522 502.377 692.522 502.377 692.522 613.377 596.522 613.377Z" fill="#737373"/><path d="M692.522 544.015 596.522 515.57 596.522 517.135 692.522 545.579Z" fill="#505050"/><path d="M596.522 550.467 692.522 550.467 692.522 551.967 596.522 551.967Z" fill="#505050"/><path d="M596.522 560.967 692.522 560.967 692.522 562.467 596.522 562.467Z" fill="#505050"/><path d="M692.522 600.929 596.522 577.419 596.522 578.963 692.522 602.474Z" fill="#505050"/><path d="M692.815 557.967 692.815 544.563 596.44 544.467 596.44 557.967 662.844 558.034C655.886 564.905 651.565 574.44 651.565 584.968L664.315 584.968C664.315 574.36 670.926 565.273 680.243 561.594 682.075 580.783 698.279 595.843 717.94 595.843L717.94 583.093C704.086 583.092 692.815 571.821 692.815 557.967Z" fill="#FFC000"/></g></svg>