<svg width="1955" height="1023" xmlns="http://www.w3.org/2000/svg" xmlns:xlink="http://www.w3.org/1999/xlink" overflow="hidden"><defs><clipPath id="clip0"><rect x="2066" y="423" width="1955" height="1023"/></clipPath></defs><g clip-path="url(#clip0)" transform="translate(-2066 -423)"><path d="M3453.63 702.186C3455.73 721.512 3441.77 738.88 3422.44 740.98 3403.12 743.079 3385.75 729.114 3383.65 709.788 3381.55 690.463 3395.51 673.094 3414.84 670.995 3434.16 668.895 3451.53 682.86 3453.63 702.186Z" fill="#FFC000" fill-rule="evenodd"/><path d="M3332.62 671.308C3344.68 686.581 3342.1 708.714 3326.87 720.743 3311.63 732.773 3289.51 730.143 3277.45 714.87 3265.39 699.596 3267.96 677.463 3283.19 665.434 3298.43 653.405 3320.56 656.034 3332.62 671.308Z" fill="#FFC000" fill-rule="evenodd"/><path d="M3760.46 1083.75C3762.56 1103.08 3748.59 1120.45 3729.27 1122.55 3709.94 1124.65 3692.57 1110.68 3690.47 1091.36 3688.37 1072.03 3702.34 1054.66 3721.67 1052.56 3740.99 1050.46 3758.36 1064.43 3760.46 1083.75Z" fill="#FFC000" fill-rule="evenodd"/><path d="M3855 1052C3855 1062.49 3846.27 1071 3835.5 1071 3824.73 1071 3816 1062.49 3816 1052 3816 1041.51 3824.73 1033 3835.5 1033 3846.27 1033 3855 1041.51 3855 1052Z" fill="#FFC000" fill-rule="evenodd"/><path d="M2411 704C2411 714.493 2402.49 723 2392 723 2381.51 723 2373 714.493 2373 704 2373 693.507 2381.51 685 2392 685 2402.49 685 2411 693.507 2411 704Z" fill="#FFC000" fill-rule="evenodd"/><path d="M2535 498C2535 508.493 2526.27 517 2515.5 517 2504.73 517 2496 508.493 2496 498 2496 487.507 2504.73 479 2515.5 479 2526.27 479 2535 487.507 2535 498Z" fill="#FFC000" fill-rule="evenodd"/><path d="M2446 491C2446 501.493 2437.27 510 2426.5 510 2415.73 510 2407 501.493 2407 491 2407 480.507 2415.73 472 2426.5 472 2437.27 472 2446 480.507 2446 491Z" fill="#FFC000" fill-rule="evenodd"/><path d="M2517 442C2517 452.493 2508.49 461 2498 461 2487.51 461 2479 452.493 2479 442 2479 431.507 2487.51 423 2498 423 2508.49 423 2517 431.507 2517 442Z" fill="#FFC000" fill-rule="evenodd"/><path d="M2161 1142C2161 1152.49 2152.49 1161 2142 1161 2131.51 1161 2123 1152.49 2123 1142 2123 1131.51 2131.51 1123 2142 1123 2152.49 1123 2161 1131.51 2161 1142Z" fill="#FFC000" fill-rule="evenodd"/><path d="M2226 1173C2226 1183.49 2217.49 1192 2207 1192 2196.51 1192 2188 1183.49 2188 1173 2188 1162.51 2196.51 1154 2207 1154 2217.49 1154 2226 1162.51 2226 1173Z" fill="#FFC000" fill-rule="evenodd"/><path d="M2453.93 881.599C2465.06 892.293 2465.42 909.99 2454.73 921.127 2444.03 932.265 2426.34 932.624 2415.2 921.93 2404.06 911.236 2403.7 893.538 2414.4 882.401 2425.09 871.264 2442.79 870.905 2453.93 881.599Z" fill="#FFC000" fill-rule="evenodd"/><path d="M2789.99 787.394C2790.01 787.384 2790 787.353 2789.98 787.347L2722.66 765.011C2719.03 763.806 2715.42 762.547 2711.82 761.246 2708.28 738.095 2694.55 704.701 2667.2 660.1 2625.11 591.476 2563.82 549.685 2545.44 538.156 2542.36 536.226 2540.37 535.072 2540.07 534.912 2540.06 534.902 2540.04 534.915 2540.04 534.935 2540.06 535.281 2540.19 537.725 2540.54 541.622 2542.43 562.022 2550.76 625.628 2584.74 688.813 2584.76 688.839 2584.73 688.862 2584.71 688.846 2536.16 649.11 2496.15 599.023 2468.51 541.89 2468.51 541.89 2467.37 539.632 2466.44 537.973 2466.41 537.913 2466.35 537.872 2466.29 537.859 2454.01 535.343 2438.41 532.701 2423.28 530.747 2328.99 518.568 2247 550.811 2246.09 551.169 2246.08 551.174 2246.08 551.169 2246.09 551.177 2246.88 551.755 2317.94 603.769 2412.21 615.951 2446.62 620.397 2474.06 621.378 2495.24 619.714 2550.38 694.704 2628.16 752 2717.19 781.539L2744.88 790.726C2744.9 790.733 2744.9 790.761 2744.88 790.772 2713.7 807.07 2683.21 824.609 2653.46 843.289 2634.5 831.546 2606.92 819.425 2569.31 807.591 2479.26 779.25 2393.54 796.175 2391.4 796.606 2391.39 796.609 2391.38 796.632 2391.39 796.645 2391.5 796.756 2391.89 797.164 2392.56 797.837 2401.5 806.838 2459.88 863.216 2543.65 889.583 2554.01 892.844 2563.72 895.626 2572.87 898.005 2572.89 898.01 2572.9 898.036 2572.88 898.046 2547.41 916.742 2522.63 936.353 2498.55 956.788L2458.31 916.504C2456.02 914.208 2452.34 913.893 2449.79 915.906 2446.74 918.321 2446.54 922.775 2449.21 925.448L2478.86 955.126C2478.87 955.142 2478.86 955.17 2478.84 955.17L2395.23 955.17C2391.99 955.17 2389.17 957.552 2388.79 960.78 2388.33 964.651 2391.34 967.938 2395.12 967.938L2485.55 967.938C2485.57 967.938 2485.58 967.966 2485.57 967.982 2414.68 1029.7 2350.2 1098.81 2293.58 1174.14 2270.73 1177.99 2239.28 1189.63 2198.35 1211.5 2117.45 1254.72 2069.81 1324.98 2066.06 1330.63 2065.93 1330.83 2066.02 1331 2066.26 1331 2072.72 1331.01 2150 1330.22 2225.26 1294.1 2229.86 1291.89 2246.96 1270.28 2246.96 1270.28 2271.66 1238.9 2316.15 1173.22 2316.27 1173.02 2323.71 1163.36 2331.26 1153.78 2338.95 1144.32 2338.97 1144.3 2339 1144.32 2338.99 1144.34 2321.87 1223.5 2335.61 1292.14 2335.78 1292.96 2335.78 1292.97 2335.78 1292.97 2335.79 1292.96 2336.49 1292.29 2400.13 1231.3 2428.64 1140.51 2445.35 1087.29 2450.13 1050.21 2446.76 1027.1 2542.53 934.712 2652.04 856.752 2771.28 796.8L2789.99 787.394Z" fill="#D1D1D1" fill-rule="evenodd"/><path d="M2317 931.852C2317.03 913.786 2287.08 899.08 2250.11 899 2214.64 898.922 2185.56 928.951 2183.23 931.414 2183.13 931.512 2183.13 931.637 2183.23 931.735 2184.43 933.016 2192.74 941.677 2205.37 949.762 2192.7 957.793 2184.35 966.415 2183.15 967.693 2183.06 967.791 2183.05 967.916 2183.15 968.017 2184.35 969.297 2192.66 977.958 2205.29 986.044 2192.62 994.075 2184.28 1002.7 2183.07 1003.97 2182.98 1004.07 2182.98 1004.2 2183.07 1004.3 2185.38 1006.77 2214.34 1036.92 2249.81 1037 2286.79 1037.08 2316.8 1022.5 2316.84 1004.43 2316.89 984.447 2316.97 951.833 2317 931.852Z" fill="#FFC000" fill-rule="evenodd"/><path d="M2413.92 956.97C2415.96 973.664 2380.37 987.046 2359.75 987 2328.16 986.931 2298.38 980.845 2271.05 966.749 2233.46 948.784 2208.93 919.289 2209 885.974 2209.01 882.568 2209.27 879.2 2209.78 875.882 2227.6 870.773 2247.23 867.954 2267.85 868.001 2343.97 868.167 2406.5 907.161 2413.92 956.97Z" fill="#E5E5E5" fill-rule="evenodd"/><path d="M2209 1047.71C2208.99 1051.13 2209.24 1054.51 2209.73 1057.84 2227.54 1063.04 2247.15 1065.95 2267.77 1066 2343.89 1066.17 2406.58 1027.33 2414.22 977.407 2414.73 974.079 2414.99 970.704 2415 967.287 2415.01 963.869 2414.76 960.492 2414.26 957.163 2396.46 951.961 2376.85 949.044 2356.23 949 2324.64 948.931 2295.39 955.601 2271.4 966.971 2233.73 984.823 2209.07 1014.29 2209 1047.71Z" fill="#D1D1D1" fill-rule="evenodd"/><path d="M3105.95 850.06 3081.71 825.829 3081.71 690.05C3081.71 684.792 3077.77 680.081 3072.52 679.807 3066.92 679.515 3062.29 683.968 3062.29 689.503L3062.29 806.353C3062.29 806.376 3062.27 806.386 3062.25 806.371L2920.96 665.109C2917.25 661.393 2911.13 660.842 2907.22 664.36 2903.06 668.11 2902.93 674.533 2906.85 678.446L3092.59 864.156C3094.48 866.052 3096.97 867 3099.45 867 3101.79 867 3104.12 866.163 3105.97 864.49 3110.12 860.727 3109.91 854.022 3105.95 850.06Z" fill="#D1D1D1" fill-rule="evenodd"/><path d="M2907.19 531.428C2907.18 531.428 2907.18 531.428 2907.19 531.428 2890.5 518.047 2869.31 509.998 2846.21 510 2792.52 510 2749 553.252 2749 606.609 2749 627.086 2755.45 646.044 2766.39 661.673 2783.95 686.761 2860.27 712.859 2907.16 666.251 2949.75 623.93 2929.26 549.139 2907.19 531.428Z" fill="#737373" fill-rule="evenodd"/><path d="M2845.95 704C2857.75 703.997 2869.01 701.794 2879.48 697.948 2902.52 688.163 2905.63 652.256 2891.47 636.719 2874.46 618.06 2851.4 618 2843.41 618 2810.96 619.388 2782.65 636.566 2766 662.129 2766 662.139 2766 662.15 2766 662.16 2783.6 687.428 2812.82 704 2845.95 704Z" fill="#505050" fill-rule="evenodd"/><path d="M2906.77 531.006C2906.76 531.001 2906.75 530.999 2906.75 531.001 2870.83 544.137 2844.94 577.677 2843.22 617.538 2843.15 618.936 2843 620.308 2843 621.723 2843 652.152 2857.16 679.265 2879.24 697 2899.1 689.748 2915.91 676.298 2927.26 658.928 2937.19 643.766 2943 625.71 2943 606.276 2943 575.85 2928.85 548.742 2906.77 531.006Z" fill="#D1D1D1" fill-rule="evenodd"/><path d="M3166.85 585.532C3166.85 585.532 3166.85 585.529 3166.85 585.529 3164.57 564.29 3155.31 543.65 3138.96 527.371 3100.98 489.543 3039.4 489.543 3001.42 527.371 2986.84 541.89 2977.91 559.878 2974.52 578.664 2969.09 608.823 3006.5 683 3071.19 683 3127.59 682.997 3169.86 613.645 3166.85 585.532Z" fill="#FFC000" fill-rule="evenodd"/><path d="M3001.47 664.292C3009.81 672.641 3019.34 679.045 3029.46 683.731 3046.45 691.329 3078.57 679.929 3082.71 648.31 3085.86 624.315 3062.13 602.973 3060.5 601.633 3036.58 579.665 3004.41 571.794 2974.56 578.11 2974.55 578.113 2974.55 578.12 2974.54 578.131 2969.1 608.457 2978.04 640.856 3001.47 664.292Z" fill="#505050" fill-rule="evenodd"/><path d="M3166.45 585.02C3166.45 585.01 3166.44 585.002 3166.44 584.999 3131.84 568.87 3089.86 574.422 3060.43 601.658 3059.4 602.612 3058.32 603.485 3057.32 604.493 3035.77 626.216 3026.55 655.624 3029.55 683.962 3048.67 692.879 3070.02 695.22 3090.32 690.888 3108.04 687.108 3124.92 678.347 3138.67 664.476 3160.21 642.758 3169.44 613.358 3166.45 585.02Z" fill="#737373" fill-rule="evenodd"/><path d="M3889.89 753.905C3886.7 732.016 3814.31 724.428 3728.21 736.959 3715.43 738.817 3703.09 741.021 3691.31 743.488 3691.29 743.493 3691.27 743.462 3691.29 743.444 3700.29 735.692 3709.42 727.35 3718.53 718.468 3780.82 657.786 3818.77 595.755 3803.31 579.921 3787.84 564.087 3724.81 600.444 3662.52 661.128 3654.81 668.643 3647.47 676.177 3640.56 683.641 3640.54 683.659 3640.51 683.643 3640.52 683.617 3642.91 673.149 3645.1 662.248 3647.03 650.999 3661.7 565.344 3655.9 492.881 3634.07 489.15 3612.24 485.419 3582.64 551.832 3567.97 637.49 3566.15 648.098 3564.65 658.499 3563.45 668.595 3563.45 668.62 3563.42 668.625 3563.41 668.602 3559.18 658.731 3554.53 648.626 3549.47 638.394 3510.93 560.483 3463.59 505.264 3443.73 515.061 3423.88 524.857 3439.02 595.961 3477.56 673.872 3487.52 694.008 3498.01 712.67 3508.58 729 3511.37 733.318 3560.22 751.555 3589.57 780.861 3618.92 810.168 3635.29 860.16 3640.39 863.723 3657.51 875.696 3677.51 887.709 3699.3 899.135 3776.33 939.544 3847.13 956.426 3857.43 936.841 3867.73 917.258 3813.63 868.626 3736.59 828.217 3730.44 824.988 3724.33 821.924 3718.28 819.002 3718.25 818.992 3718.26 818.958 3718.29 818.956 3725.33 818.181 3732.49 817.277 3739.77 816.219 3825.87 803.698 3893.08 775.795 3889.89 753.905Z" fill="#FFC000" fill-rule="evenodd"/><path d="M3640.17 863.678C3673.96 830.692 3668.44 774.276 3635.47 740.464 3602.51 706.652 3542.64 696.001 3508.85 728.987L3526.65 755.417C3548.44 785.93 3539.35 806.405 3513.45 831.696L3503.75 840.214C3495.21 847.722 3494.7 860.863 3502.64 869.007L3502.64 869.007C3510.05 876.61 3522.13 877.033 3530.06 869.967L3545.21 856.455C3568.96 833.271 3584.2 826.697 3614.2 845.215L3640.17 863.678Z" fill="#737373" fill-rule="evenodd"/><path d="M3691.49 594.193C3696.34 585.428 3700.53 576.379 3704.67 567.305 3708.75 558.207 3712.59 549.004 3716.27 539.732 3719.97 530.47 3723.41 521.089 3726.8 511.688L3729.27 504.606C3730.07 502.236 3731.02 499.931 3731.51 497.422 3732.01 494.922 3732.14 492.258 3731.88 489.426 3731.58 486.571 3730.91 483.562 3729.23 480.11 3723.67 468.67 3728.43 454.887 3739.88 449.324 3751.32 443.761 3765.11 448.526 3770.68 459.966 3776.24 471.406 3771.47 485.189 3760.03 490.752 3758.96 491.269 3757.75 491.732 3756.65 492.075 3752.98 493.192 3750.32 494.75 3748.02 496.467 3745.77 498.204 3743.9 500.109 3742.41 502.179 3740.9 504.238 3739.86 506.504 3738.66 508.702L3735.15 515.328C3730.56 524.204 3726.01 533.101 3721.74 542.113 3717.44 551.118 3713.3 560.19 3709.4 569.37 3705.55 578.57 3701.77 587.799 3698.64 597.311 3697.96 599.362 3695.75 600.479 3693.69 599.802 3691.64 599.125 3690.52 596.914 3691.2 594.86 3691.28 594.633 3691.38 594.396 3691.49 594.193Z" fill="#E5E5E5" fill-rule="evenodd"/><path d="M3779.59 690.399C3789.04 686.965 3798.2 682.891 3807.32 678.752 3816.42 674.565 3825.4 670.138 3834.31 665.557 3843.23 660.996 3852.03 656.169 3860.8 651.299L3867.35 647.575C3869.52 646.308 3871.76 645.197 3873.79 643.62 3875.82 642.066 3877.67 640.136 3879.35 637.83 3881 635.475 3882.48 632.764 3883.49 629.053 3886.82 616.759 3899.53 609.485 3911.87 612.802 3924.22 616.121 3931.53 628.775 3928.2 641.069 3924.86 653.363 3912.15 660.637 3899.81 657.321 3898.66 657.012 3897.43 656.566 3896.38 656.105 3892.86 654.536 3889.81 653.964 3886.93 653.747 3884.08 653.579 3881.41 653.791 3878.91 654.376 3876.41 654.937 3874.12 655.965 3871.76 656.837L3864.73 659.532C3855.39 663.219 3846.07 666.95 3836.88 670.947 3827.68 674.923 3818.56 679.054 3809.55 683.424 3800.56 687.843 3791.6 692.327 3782.95 697.45 3781.08 698.555 3778.66 697.944 3777.55 696.084 3776.44 694.224 3777.06 691.819 3778.92 690.714 3779.13 690.59 3779.37 690.482 3779.59 690.399Z" fill="#E5E5E5" fill-rule="evenodd"/><path d="M3733.41 1288.42C3750.2 1296.5 3757.25 1316.66 3749.17 1333.44 3741.09 1350.23 3720.93 1357.28 3704.15 1349.2 3687.36 1341.12 3680.31 1320.96 3688.39 1304.18 3696.47 1287.4 3716.63 1280.34 3733.41 1288.42Z" fill="#FFC000" fill-rule="evenodd"/><path d="M3695.64 1303C3693.67 1303 3691.7 1302.25 3690.2 1300.76L3641.42 1252.21C3639.84 1250.64 3638.87 1248.49 3639.01 1246.28 3639.28 1242.03 3642.74 1239 3646.7 1239L3765.88 1239C3770.04 1239 3773.77 1242.1 3773.99 1246.24 3774.22 1250.65 3770.69 1254.3 3766.31 1254.3L3665.33 1254.3C3665.31 1254.3 3665.3 1254.33 3665.31 1254.35L3700.74 1289.6C3703.93 1292.78 3704.09 1298.15 3700.7 1301.11 3699.25 1302.37 3697.44 1303 3695.64 1303Z" fill="#D1D1D1" fill-rule="evenodd"/><path d="M4020.84 1238.54C4019.61 1237.22 4009.56 1226.72 3994.19 1216.93 4009.61 1207.2 4019.7 1196.74 4020.94 1195.43 4021.02 1195.35 4021.02 1195.25 4020.94 1195.16 4018.59 1192.64 3983.61 1156.09 3940.71 1156 3896.29 1155.91 3860.23 1173.34 3860.19 1194.95 3860.17 1202.97 3860.02 1273.68 3860 1281.7 3859.95 1303.31 3895.93 1320.91 3940.35 1321 3983.18 1321.09 4018.28 1284.81 4020.74 1282.2 4020.83 1282.11 4020.83 1281.99 4020.74 1281.9 4019.45 1280.53 4009.42 1270.07 3994.1 1260.31 4009.52 1250.58 4019.61 1240.12 4020.85 1238.81 4020.92 1238.73 4020.92 1238.62 4020.84 1238.54Z" fill="#FFC000" fill-rule="evenodd"/><path d="M3742.15 1252.18C3739.03 1223.73 3785.44 1215.95 3810.38 1216 3848.59 1216.09 3878.62 1224.76 3914.95 1240.33 3960.42 1262.1 3990.09 1297.85 3990 1338.22 3989.99 1342.35 3989.67 1346.43 3989.06 1350.45 3967.5 1356.64 3943.76 1360.05 3918.82 1360 3826.75 1359.8 3751.12 1312.54 3742.15 1252.18Z" fill="#E5E5E5" fill-rule="evenodd"/><path d="M3990 1142.19C3990.01 1138.05 3989.71 1133.95 3989.11 1129.91 3967.68 1123.59 3944.07 1120.05 3919.25 1120 3827.61 1119.8 3752.13 1166.93 3742.94 1227.52 3742.33 1231.56 3742.01 1235.66 3742 1239.8 3741.99 1243.95 3742.29 1248.05 3742.89 1252.09 3764.32 1258.41 3787.93 1261.95 3812.75 1262 3850.78 1262.08 3886 1253.99 3914.88 1240.19 3960.23 1218.52 3989.91 1182.75 3990 1142.19Z" fill="#D1D1D1" fill-rule="evenodd"/><path d="M3033.6 1108.5C3033.6 1131.88 2973.32 1161.71 2978.29 1183.59 2983.43 1206.18 3050.81 1206.93 3060.65 1227.31 3070.65 1248.03 3029.34 1301.15 3043.55 1318.95 3057.84 1336.83 3118.85 1308.32 3136.74 1322.6 3154.54 1336.81 3140.25 1402.64 3160.97 1412.63 3181.36 1422.47 3223.91 1370.38 3246.5 1375.51 3268.39 1380.49 3284.11 1446 3307.5 1446 3330.89 1446 3346.61 1380.49 3368.5 1375.51 3391.1 1370.38 3433.64 1422.47 3454.03 1412.63 3474.75 1402.64 3460.47 1336.82 3478.27 1322.6 3496.15 1308.33 3557.16 1336.83 3571.45 1318.95 3585.66 1301.15 3544.36 1248.03 3554.35 1227.31 3564.19 1206.93 3631.57 1206.18 3636.71 1183.59 3641.68 1161.71 3581.4 1131.89 3581.4 1108.5 3581.4 1085.12 3641.68 1055.29 3636.71 1033.41 3631.57 1010.82 3564.19 1010.07 3554.35 989.688 3544.35 968.969 3585.66 915.849 3571.45 898.054 3557.16 880.171 3496.15 908.676 3478.26 894.395 3460.46 880.187 3474.75 814.364 3454.03 804.368 3433.64 794.534 3391.09 846.623 3368.5 841.487 3346.61 836.514 3330.89 771 3307.5 771 3284.11 771 3268.39 836.514 3246.5 841.487 3223.91 846.623 3181.36 794.534 3160.97 804.368 3140.25 814.364 3154.53 880.184 3136.73 894.395 3118.85 908.674 3057.83 880.171 3043.55 898.054 3029.34 915.849 3070.64 968.969 3060.65 989.688 3050.81 1010.07 2983.43 1010.82 2978.29 1033.41 2973.32 1055.29 3033.6 1085.11 3033.6 1108.5Z" fill="#D1D1D1" fill-rule="evenodd"/><path d="M2581.97 1151C2581.97 1169.92 2533.21 1194.04 2537.24 1211.74 2541.39 1230.01 2595.89 1230.62 2603.85 1247.11 2611.93 1263.87 2578.52 1306.83 2590.02 1321.23 2601.57 1335.69 2650.92 1312.64 2665.39 1324.19 2679.78 1335.68 2668.23 1388.92 2684.99 1397.01 2701.48 1404.96 2735.89 1362.83 2754.17 1366.98 2771.87 1371.01 2784.58 1424 2803.5 1424 2822.42 1424 2835.13 1371.01 2852.83 1366.98 2871.11 1362.83 2905.52 1404.96 2922.01 1397.01 2938.77 1388.92 2927.22 1335.68 2941.61 1324.19 2956.08 1312.64 3005.43 1335.69 3016.98 1321.23 3028.48 1306.83 2995.07 1263.87 3003.15 1247.11 3011.11 1230.62 3065.61 1230.02 3069.76 1211.74 3073.79 1194.04 3025.03 1169.92 3025.03 1151 3025.03 1132.08 3073.79 1107.96 3069.76 1090.26 3065.61 1071.99 3011.11 1071.38 3003.15 1054.89 2995.07 1038.13 3028.48 995.165 3016.98 980.771 3005.43 966.307 2956.08 989.363 2941.61 977.812 2927.22 966.318 2938.77 913.075 2922.01 904.991 2905.52 897.038 2871.11 939.17 2852.83 935.015 2835.13 930.993 2822.42 878 2803.5 878 2784.58 878 2771.87 930.993 2754.17 935.015 2735.89 939.17 2701.48 897.038 2684.99 904.991 2668.23 913.075 2679.78 966.318 2665.39 977.812 2650.92 989.363 2601.57 966.307 2590.02 980.771 2578.52 995.165 2611.93 1038.13 2603.85 1054.89 2595.89 1071.38 2541.39 1071.98 2537.24 1090.26 2533.21 1107.96 2581.97 1132.08 2581.97 1151Z" fill="#FFC000" fill-rule="evenodd"/><path d="M2692.52 1151C2692.52 1160.49 2668.1 1172.6 2670.12 1181.48 2672.2 1190.65 2699.5 1190.96 2703.49 1199.23 2707.54 1207.64 2690.8 1229.2 2696.56 1236.43 2702.35 1243.68 2727.07 1232.12 2734.32 1237.91 2741.53 1243.68 2735.74 1270.4 2744.14 1274.46 2752.4 1278.45 2769.63 1257.3 2778.79 1259.39 2787.65 1261.41 2794.02 1288 2803.5 1288 2812.98 1288 2819.35 1261.41 2828.21 1259.39 2837.37 1257.3 2854.61 1278.45 2862.87 1274.46 2871.27 1270.4 2865.47 1243.68 2872.69 1237.91 2879.93 1232.12 2904.65 1243.68 2910.44 1236.42 2916.2 1229.2 2899.47 1207.64 2903.52 1199.23 2907.5 1190.95 2934.8 1190.65 2936.88 1181.48 2938.9 1172.6 2914.48 1160.49 2914.48 1151 2914.48 1141.51 2938.9 1129.4 2936.88 1120.52 2934.8 1111.35 2907.5 1111.04 2903.52 1102.77 2899.46 1094.36 2916.2 1072.8 2910.44 1065.57 2904.65 1058.32 2879.93 1069.89 2872.69 1064.09 2865.47 1058.32 2871.26 1031.6 2862.87 1027.54 2854.6 1023.55 2837.37 1044.7 2828.21 1042.61 2819.35 1040.59 2812.98 1014 2803.5 1014 2794.02 1014 2787.65 1040.59 2778.79 1042.61 2769.63 1044.7 2752.39 1023.55 2744.13 1027.54 2735.73 1031.6 2741.53 1058.32 2734.31 1064.09 2727.07 1069.89 2702.35 1058.32 2696.56 1065.58 2690.8 1072.8 2707.53 1094.36 2703.49 1102.77 2699.5 1111.05 2672.2 1111.35 2670.12 1120.52 2668.1 1129.4 2692.52 1141.51 2692.52 1151Z" fill="#FFFFFF" fill-rule="evenodd"/><path d="M2829 1086C2829 1098.7 2818.93 1109 2806.5 1109 2794.07 1109 2784 1098.7 2784 1086 2784 1073.3 2794.07 1063 2806.5 1063 2818.93 1063 2829 1073.3 2829 1086Z" fill="#FFC000" fill-rule="evenodd"/><path d="M2782 1102.5C2782 1114.93 2771.93 1125 2759.5 1125 2747.07 1125 2737 1114.93 2737 1102.5 2737 1090.07 2747.07 1080 2759.5 1080 2771.93 1080 2782 1090.07 2782 1102.5Z" fill="#FFC000" fill-rule="evenodd"/><path d="M2761 1148C2761 1160.7 2750.93 1171 2738.5 1171 2726.07 1171 2716 1160.7 2716 1148 2716 1135.3 2726.07 1125 2738.5 1125 2750.93 1125 2761 1135.3 2761 1148Z" fill="#FFC000" fill-rule="evenodd"/><path d="M2778 1194.5C2778 1206.93 2767.93 1217 2755.5 1217 2743.07 1217 2733 1206.93 2733 1194.5 2733 1182.07 2743.07 1172 2755.5 1172 2767.93 1172 2778 1182.07 2778 1194.5Z" fill="#FFC000" fill-rule="evenodd"/><path d="M2823 1216.5C2823 1228.93 2812.93 1239 2800.5 1239 2788.07 1239 2778 1228.93 2778 1216.5 2778 1204.07 2788.07 1194 2800.5 1194 2812.93 1194 2823 1204.07 2823 1216.5Z" fill="#FFC000" fill-rule="evenodd"/><path d="M2870 1199.5C2870 1211.93 2859.93 1222 2847.5 1222 2835.07 1222 2825 1211.93 2825 1199.5 2825 1187.07 2835.07 1177 2847.5 1177 2859.93 1177 2870 1187.07 2870 1199.5Z" fill="#FFC000" fill-rule="evenodd"/><path d="M2891 1154.5C2891 1166.93 2880.93 1177 2868.5 1177 2856.07 1177 2846 1166.93 2846 1154.5 2846 1142.07 2856.07 1132 2868.5 1132 2880.93 1132 2891 1142.07 2891 1154.5Z" fill="#FFC000" fill-rule="evenodd"/><path d="M2874 1107.5C2874 1119.93 2863.93 1130 2851.5 1130 2839.07 1130 2829 1119.93 2829 1107.5 2829 1095.07 2839.07 1085 2851.5 1085 2863.93 1085 2874 1095.07 2874 1107.5Z" fill="#FFC000" fill-rule="evenodd"/><path d="M3553 1103.5C3553 1066.86 3529.87 1035.63 3497.41 1023.6 3511.85 992.138 3506.13 953.695 3480.22 927.784 3454.31 901.874 3415.86 896.15 3384.4 910.591 3372.37 878.134 3341.14 855 3304.5 855 3267.86 855 3236.63 878.134 3224.6 910.591 3193.14 896.147 3154.69 901.874 3128.78 927.784 3102.87 953.695 3097.15 992.135 3111.59 1023.6 3079.13 1035.63 3056 1066.86 3056 1103.5 3056 1140.14 3079.13 1171.37 3111.59 1183.4 3097.15 1214.86 3102.87 1253.31 3128.78 1279.22 3154.69 1305.13 3193.14 1310.85 3224.6 1296.41 3236.63 1328.87 3267.86 1352 3304.5 1352 3341.14 1352 3372.38 1328.87 3384.41 1296.41 3415.86 1310.85 3454.31 1305.13 3480.22 1279.22 3506.13 1253.31 3511.86 1214.86 3497.41 1183.4 3529.87 1171.37 3553 1140.14 3553 1103.5Z" fill="#737373" fill-rule="evenodd"/><path d="M3375.05 1033.07C3413.91 1071.93 3413.91 1134.95 3375.05 1173.81 3336.18 1212.67 3273.17 1212.67 3234.31 1173.81 3195.45 1134.95 3195.44 1071.93 3234.31 1033.07 3273.17 994.207 3336.18 994.207 3375.05 1033.07Z" fill="#D1D1D1" fill-rule="evenodd"/><path d="M3275.04 1078.79C3269.53 1072.16 3263.63 1065.93 3257.62 1059.8 3251.62 1053.66 3245.47 1047.68 3239.19 1041.82 3232.93 1035.94 3226.5 1030.24 3220.03 1024.57L3215.13 1020.37C3213.48 1018.98 3211.94 1017.49 3210.08 1016.32 3206.32 1014.01 3201.94 1012.33 3195.5 1012.7 3184.82 1013.33 3175.66 1005.18 3175.03 994.498 3174.41 983.819 3182.56 974.656 3193.24 974.034 3203.92 973.408 3213.08 981.559 3213.7 992.237 3213.74 992.961 3213.74 993.79 3213.7 994.498 3213.32 1000.94 3215.01 1005.33 3217.32 1009.08 3218.5 1010.94 3219.98 1012.49 3221.37 1014.14L3225.57 1019.03C3231.24 1025.5 3236.94 1031.94 3242.82 1038.19 3248.68 1044.47 3254.66 1050.63 3260.8 1056.62 3266.93 1062.63 3273.16 1068.54 3279.78 1074.04 3281.22 1075.23 3281.41 1077.36 3280.22 1078.78 3279.03 1080.22 3276.91 1080.41 3275.48 1079.22 3275.32 1079.09 3275.17 1078.94 3275.04 1078.79Z" fill="#E5E5E5" fill-rule="evenodd"/><path d="M3266.34 1105.88C3257.78 1105.08 3249.23 1104.85 3240.68 1104.76 3232.13 1104.66 3223.58 1104.78 3215.03 1105.08 3206.48 1105.36 3197.92 1105.88 3189.37 1106.45L3182.96 1106.94C3180.82 1107.13 3178.68 1107.17 3176.55 1107.65 3172.27 1108.68 3168 1110.61 3163.72 1115.46 3156.64 1123.51 3144.44 1124.23 3136.47 1117.07 3128.51 1109.91 3127.79 1097.59 3134.88 1089.54 3141.96 1081.49 3154.16 1080.77 3162.13 1087.93 3162.67 1088.42 3163.25 1089.01 3163.72 1089.54 3168 1094.4 3172.27 1096.32 3176.55 1097.35 3178.68 1097.83 3180.82 1097.87 3182.96 1098.06L3189.37 1098.56C3197.92 1099.12 3206.48 1099.65 3215.03 1099.92 3223.58 1100.22 3232.13 1100.34 3240.68 1100.24 3249.23 1100.15 3257.78 1099.92 3266.34 1099.12 3268.18 1098.95 3269.82 1100.32 3269.99 1102.19 3270.16 1104.05 3268.8 1105.7 3266.95 1105.87 3266.75 1105.9 3266.53 1105.9 3266.34 1105.88Z" fill="#E5E5E5" fill-rule="evenodd"/><path d="M3279.79 1129.96C3273.16 1135.47 3266.93 1141.38 3260.8 1147.38 3254.66 1153.38 3248.68 1159.53 3242.82 1165.81 3236.94 1172.07 3231.24 1178.5 3225.57 1184.97L3221.37 1189.86C3219.98 1191.51 3218.49 1193.06 3217.32 1194.92 3215.01 1198.68 3213.33 1203.06 3213.7 1209.5 3214.33 1220.18 3206.18 1229.34 3195.5 1229.97 3184.82 1230.59 3175.66 1222.44 3175.03 1211.76 3174.41 1201.08 3182.56 1191.92 3193.24 1191.3 3193.96 1191.26 3194.79 1191.26 3195.5 1191.3 3201.94 1191.68 3206.33 1189.99 3210.08 1187.68 3211.94 1186.5 3213.49 1185.02 3215.14 1183.63L3220.03 1179.43C3226.5 1173.76 3232.93 1168.06 3239.19 1162.18 3245.47 1156.32 3251.63 1150.34 3257.62 1144.2 3263.63 1138.07 3269.54 1131.84 3275.04 1125.22 3276.23 1123.78 3278.36 1123.59 3279.78 1124.78 3281.22 1125.97 3281.41 1128.09 3280.22 1129.52 3280.1 1129.68 3279.94 1129.83 3279.79 1129.96Z" fill="#E5E5E5" fill-rule="evenodd"/><path d="M3305.88 1138.66C3305.08 1147.22 3304.85 1155.77 3304.76 1164.32 3304.66 1172.87 3304.78 1181.42 3305.08 1189.97 3305.36 1198.52 3305.88 1207.08 3306.45 1215.63L3306.94 1222.04C3307.13 1224.18 3307.17 1226.32 3307.65 1228.45 3308.68 1232.73 3310.61 1237 3315.46 1241.28 3323.51 1248.36 3324.23 1260.56 3317.07 1268.53 3309.91 1276.49 3297.59 1277.21 3289.54 1270.12 3281.49 1263.04 3280.77 1250.84 3287.93 1242.87 3288.42 1242.33 3289.01 1241.75 3289.54 1241.28 3294.4 1237 3296.32 1232.73 3297.35 1228.45 3297.83 1226.32 3297.87 1224.18 3298.06 1222.04L3298.56 1215.63C3299.12 1207.08 3299.65 1198.52 3299.92 1189.97 3300.22 1181.42 3300.34 1172.87 3300.24 1164.32 3300.15 1155.77 3299.92 1147.22 3299.12 1138.66 3298.95 1136.82 3300.32 1135.18 3302.19 1135.01 3304.05 1134.84 3305.7 1136.2 3305.88 1138.05 3305.9 1138.25 3305.9 1138.47 3305.88 1138.66Z" fill="#E5E5E5" fill-rule="evenodd"/><path d="M3330.96 1125.21C3336.46 1131.84 3342.37 1138.07 3348.38 1144.2 3354.37 1150.34 3360.53 1156.32 3366.81 1162.18 3373.06 1168.06 3379.5 1173.76 3385.97 1179.43L3390.86 1183.63C3392.51 1185.02 3394.06 1186.51 3395.92 1187.68 3399.68 1189.99 3404.06 1191.67 3410.5 1191.3 3421.18 1190.67 3430.34 1198.82 3430.97 1209.5 3431.59 1220.18 3423.44 1229.34 3412.76 1229.97 3402.08 1230.59 3392.92 1222.44 3392.3 1211.76 3392.26 1211.04 3392.26 1210.21 3392.3 1209.5 3392.68 1203.06 3390.99 1198.67 3388.68 1194.92 3387.5 1193.06 3386.02 1191.51 3384.63 1189.86L3380.43 1184.97C3374.76 1178.5 3369.06 1172.06 3363.18 1165.81 3357.32 1159.53 3351.34 1153.38 3345.2 1147.38 3339.07 1141.37 3332.84 1135.46 3326.22 1129.96 3324.78 1128.77 3324.59 1126.64 3325.78 1125.22 3326.97 1123.78 3329.09 1123.59 3330.52 1124.78 3330.68 1124.9 3330.83 1125.06 3330.96 1125.21Z" fill="#E5E5E5" fill-rule="evenodd"/><path d="M3338.69 1099.12C3347.3 1099.92 3355.92 1100.15 3364.53 1100.24 3373.14 1100.34 3381.75 1100.22 3390.36 1099.92 3398.98 1099.64 3407.59 1099.12 3416.2 1098.56L3422.66 1098.06C3424.81 1097.87 3426.97 1097.83 3429.12 1097.35 3433.43 1096.32 3437.73 1094.39 3442.04 1089.54 3449.17 1081.49 3461.46 1080.77 3469.48 1087.93 3477.5 1095.09 3478.22 1107.41 3471.09 1115.46 3463.95 1123.51 3451.66 1124.23 3443.64 1117.07 3443.1 1116.59 3442.51 1115.99 3442.04 1115.46 3437.73 1110.6 3433.43 1108.68 3429.12 1107.65 3426.97 1107.17 3424.81 1107.13 3422.66 1106.94L3416.2 1106.45C3407.59 1105.88 3398.98 1105.35 3390.36 1105.08 3381.75 1104.78 3373.14 1104.66 3364.53 1104.76 3355.92 1104.85 3347.3 1105.08 3338.69 1105.88 3336.83 1106.05 3335.18 1104.68 3335.01 1102.81 3334.84 1100.95 3336.21 1099.3 3338.07 1099.13 3338.27 1099.1 3338.49 1099.1 3338.69 1099.12Z" fill="#E5E5E5" fill-rule="evenodd"/><path d="M3326.22 1074.04C3332.84 1068.53 3339.07 1062.63 3345.2 1056.62 3351.34 1050.62 3357.32 1044.47 3363.18 1038.19 3369.06 1031.93 3374.76 1025.5 3380.43 1019.03L3384.63 1014.13C3386.02 1012.48 3387.51 1010.94 3388.68 1009.08 3390.99 1005.32 3392.68 1000.94 3392.3 994.497 3391.67 983.819 3399.82 974.656 3410.5 974.034 3421.18 973.408 3430.34 981.558 3430.97 992.237 3431.59 1002.92 3423.44 1012.08 3412.76 1012.7 3412.04 1012.74 3411.21 1012.74 3410.5 1012.7 3404.06 1012.32 3399.68 1014.01 3395.92 1016.32 3394.06 1017.5 3392.51 1018.98 3390.86 1020.37L3385.97 1024.57C3379.5 1030.24 3373.06 1035.94 3366.81 1041.82 3360.53 1047.68 3354.37 1053.66 3348.38 1059.8 3342.37 1065.93 3336.46 1072.16 3330.96 1078.78 3329.77 1080.22 3327.64 1080.41 3326.22 1079.22 3324.78 1078.03 3324.59 1075.91 3325.78 1074.48 3325.91 1074.32 3326.06 1074.17 3326.22 1074.04Z" fill="#E5E5E5" fill-rule="evenodd"/><path d="M3299.12 1066.31C3299.92 1057.7 3300.15 1049.08 3300.24 1040.47 3300.34 1031.86 3300.22 1023.25 3299.92 1014.64 3299.65 1006.02 3299.12 997.409 3298.56 988.798L3298.06 982.339C3297.87 980.186 3297.83 978.032 3297.35 975.879 3296.32 971.572 3294.4 967.268 3289.54 962.961 3281.49 955.827 3280.77 943.539 3287.93 935.519 3295.09 927.5 3307.41 926.779 3315.46 933.915 3323.51 941.049 3324.23 953.336 3317.07 961.356 3316.59 961.902 3315.99 962.485 3315.46 962.961 3310.6 967.268 3308.68 971.572 3307.65 975.879 3307.17 978.032 3307.13 980.186 3306.94 982.339L3306.45 988.798C3305.88 997.409 3305.35 1006.02 3305.08 1014.64 3304.78 1023.25 3304.66 1031.86 3304.76 1040.47 3304.85 1049.08 3305.08 1057.7 3305.88 1066.31 3306.05 1068.17 3304.68 1069.82 3302.81 1069.99 3300.95 1070.16 3299.3 1068.79 3299.13 1066.93 3299.1 1066.73 3299.1 1066.51 3299.12 1066.31Z" fill="#E5E5E5" fill-rule="evenodd"/></g></svg>