<svg width="2082" height="1065" xmlns="http://www.w3.org/2000/svg" xmlns:xlink="http://www.w3.org/1999/xlink" overflow="hidden"><defs><clipPath id="clip0"><rect x="649" y="268" width="2082" height="1065"/></clipPath></defs><g clip-path="url(#clip0)" transform="translate(-649 -268)"><path d="M1217.46 1333C1213.25 1333 1208.93 1332.65 1204.51 1331.94 1151.51 1323.44 1075.84 1253.52 1063.1 1184.05 1062.48 1180.68 1064.71 1177.45 1068.08 1176.83 1071.45 1176.22 1074.68 1178.44 1075.3 1181.81 1087.9 1250.5 1163.56 1312.81 1206.48 1319.7 1222.48 1322.27 1236.92 1319.31 1247.12 1311.36 1254.91 1305.3 1259.67 1296.57 1260.54 1286.8 1262.14 1268.66 1240.18 1254.59 1214.75 1238.29 1184.85 1219.14 1150.97 1197.44 1143.27 1160.84 1136.84 1130.26 1145.64 1092.38 1165.69 1064.35 1178.22 1046.83 1193.29 1036.19 1208.13 1034.37 1234.1 1031.21 1265.56 1048.5 1292.28 1080.66 1295.48 1084.5 1298.66 1088.67 1301.75 1093.12 1326.69 1102.55 1351.19 1122.76 1365.41 1141.9 1384.62 1167.77 1392.55 1200.02 1388.98 1237.78 1387.44 1254.17 1383.98 1268.37 1380.9 1278.46 1465.51 1238.13 1509.8 1228.19 1523.85 1246.16 1531.42 1255.85 1527.11 1268.77 1522.94 1281.26 1519.69 1291.02 1516.32 1301.12 1520.08 1306.23 1524.33 1311.98 1539.36 1317.44 1563.37 1316.71 1597.74 1315.63 1640.56 1301.91 1658.74 1273.68 1687.69 1228.77 1658.46 1132.76 1559.44 1049.83 1556.82 1047.63 1556.47 1043.72 1558.67 1041.1 1560.87 1038.47 1564.78 1038.12 1567.4 1040.33 1614.26 1079.57 1650.15 1125.91 1668.44 1170.8 1686.27 1214.54 1686.52 1253.47 1669.17 1280.4 1655.39 1301.77 1619.52 1327.35 1563.76 1329.1 1537.53 1329.92 1517.98 1324.27 1510.1 1313.58 1502.52 1303.3 1507.12 1289.51 1511.17 1277.34 1514.31 1267.95 1517.54 1258.25 1514.07 1253.8 1509.51 1247.96 1486.62 1240.41 1372.82 1296.14 1370.51 1297.27 1367.73 1296.86 1365.85 1295.1 1363.98 1293.35 1363.38 1290.61 1364.35 1288.23 1367.78 1279.85 1396.66 1204.79 1355.45 1149.29 1344.73 1134.86 1329.5 1121.63 1313.64 1112.55 1327.92 1139.35 1336.6 1171.4 1327.67 1199.66 1322.32 1216.58 1306.6 1241.99 1285.22 1242.65 1275.17 1242.97 1264.74 1238.24 1255.03 1229 1237.37 1212.19 1225.18 1183.38 1224.69 1157.31 1224.43 1143.08 1226.47 1108.42 1250.92 1093.88 1260.33 1088.29 1271.13 1086.76 1282.38 1088.15 1258.8 1059.95 1230.96 1044.05 1209.63 1046.68 1198.44 1048.04 1186.1 1057.11 1175.77 1071.56 1157.92 1096.51 1149.74 1131.37 1155.4 1158.29 1162.03 1189.8 1193.59 1210.02 1221.43 1227.86 1249.06 1245.55 1275.15 1262.27 1272.88 1287.9 1271.71 1301.14 1265.27 1312.94 1254.73 1321.14 1244.73 1328.94 1231.8 1333 1217.46 1333ZM1274.54 1100.21C1268.14 1100.21 1262.26 1101.56 1257.27 1104.53 1237.88 1116.07 1236.93 1147.66 1237.1 1157.07 1237.53 1180.05 1248.18 1205.34 1263.59 1220.01 1270.84 1226.91 1278.19 1230.45 1284.85 1230.25 1297.59 1229.86 1310.62 1212.49 1315.86 1195.92 1323.94 1170.33 1315.42 1135.52 1294.05 1103.67 1287.27 1101.45 1280.66 1100.21 1274.54 1100.21Z" fill="#737373" fill-rule="evenodd"/><path d="M649.001 1097.76C648.857 1090.8 661.028 1084.21 661.507 1077.41 661.996 1070.48 650.884 1062.24 651.989 1055.5 653.112 1048.65 666.28 1044.42 668.008 1037.8 669.757 1031.1 660.355 1020.94 662.694 1014.5 665.054 1008 678.777 1006.28 681.706 1000.08 684.653 993.837 677.286 982.112 680.779 976.203 684.287 970.267 698.091 971.104 702.114 965.535 706.148 959.954 701.05 947.072 705.571 941.89 710.097 936.706 723.514 940.06 728.493 935.315 733.47 930.573 730.804 916.973 736.202 912.703 741.586 908.443 754.166 914.198 759.938 910.439 765.685 906.698 765.556 892.838 771.656 889.626 777.717 886.435 789.022 894.412 795.399 891.782 801.723 889.172 804.147 875.526 810.751 873.496 817.278 871.49 826.917 881.424 833.689 880.018 840.365 878.631 845.262 865.667 852.147 864.892 858.911 864.13 866.563 875.668 873.503 875.523 880.442 875.378 887.613 863.531 894.403 864.014 901.314 864.505 906.744 877.253 913.471 878.363 920.297 879.488 929.516 869.162 936.12 870.894 942.802 872.647 945.79 886.182 952.214 888.526 958.695 890.891 969.662 882.452 975.849 885.39 982.078 888.343 982.518 902.198 988.417 905.699 994.339 909.215 1006.67 902.942 1012.22 906.974 1017.79 911.017 1015.69 924.718 1020.86 929.248 1026.03 933.784 1039.3 929.876 1044.04 934.869 1048.77 939.856 1044.21 952.94 1048.47 958.348 1052.72 963.744 1066.47 962.336 1070.22 968.122 1073.96 973.882 1067.08 985.904 1070.28 992.017 1073.47 998.092 1087.25 999.246 1089.88 1005.64 1092.48 1011.98 1083.51 1022.52 1085.53 1029.13 1087.53 1035.67 1100.86 1039.36 1102.27 1046.15 1103.65 1052.84 1092.89 1061.54 1093.66 1068.44 1094.42 1075.22 1106.85 1081.29 1107 1088.25 1107.14 1095.2 1094.97 1101.79 1094.49 1108.59 1094 1115.52 1105.12 1123.76 1104.01 1130.51 1102.89 1137.35 1089.72 1141.58 1087.99 1148.21 1086.24 1154.9 1095.64 1165.06 1093.31 1171.5 1090.95 1178 1077.22 1179.72 1074.29 1185.92 1071.35 1192.17 1078.71 1203.89 1075.22 1209.8 1071.71 1215.74 1057.91 1214.9 1053.89 1220.47 1049.85 1226.05 1054.95 1238.93 1050.43 1244.11 1045.9 1249.3 1032.49 1245.94 1027.51 1250.69 1022.53 1255.43 1025.2 1269.03 1019.8 1273.3 1014.41 1277.56 1001.83 1271.8 996.062 1275.56 990.315 1279.3 990.444 1293.17 984.344 1296.38 978.284 1299.56 966.978 1291.59 960.601 1294.22 954.277 1296.83 951.853 1310.48 945.249 1312.51 938.722 1314.51 929.083 1304.58 922.311 1305.99 915.635 1307.37 910.739 1320.34 903.853 1321.11 897.089 1321.87 889.437 1310.34 882.497 1310.48 875.558 1310.62 868.387 1322.47 861.597 1321.99 854.686 1321.5 849.257 1308.75 842.529 1307.64 835.703 1306.51 826.484 1316.84 819.88 1315.11 813.198 1313.35 810.21 1299.82 803.786 1297.47 797.305 1295.11 786.338 1303.55 780.151 1300.61 773.922 1297.66 773.482 1283.8 767.583 1280.3 761.662 1276.78 749.331 1283.06 743.775 1279.03 738.206 1274.98 740.306 1261.28 735.139 1256.75 729.966 1252.22 716.699 1256.12 711.964 1251.13 707.232 1246.14 711.794 1233.06 707.534 1227.65 703.284 1222.26 689.524 1223.66 685.776 1217.88 682.044 1212.12 688.921 1200.1 685.717 1193.98 682.533 1187.91 668.753 1186.75 666.125 1180.36 663.521 1174.02 672.495 1163.48 670.471 1156.87 668.469 1150.33 655.137 1146.64 653.733 1139.85 652.35 1133.16 663.112 1124.46 662.336 1117.56 661.576 1110.79 649.146 1104.71 649.001 1097.76Z" fill="#505050" fill-rule="evenodd"/><path d="M687.793 1054.75C701.672 1048.95 716.025 1044.04 730.774 1040.07 759.93 1027.8 787.258 1011.33 812 990.982 810.465 986.028 809.046 981.034 807.739 976 764.916 1012.68 713.571 1036.91 658.238 1046.77 658.233 1046.77 658.231 1046.77 658.228 1046.77 654.806 1049.34 651.608 1051.96 651.078 1055.15 650.72 1057.3 651.639 1059.62 653.024 1061.99 653.029 1062 653.04 1062 653.05 1062 664.804 1060.19 676.4 1057.77 687.793 1054.75Z" fill="#737373" fill-rule="evenodd"/><path d="M804 962.562C802.831 957.081 801.793 951.556 800.891 946 761.888 983.38 714.048 1008.56 662.021 1019.5 662.008 1019.51 661.998 1019.52 662 1019.54 662.946 1023.77 665.872 1028.64 667.07 1032.98 667.072 1032.99 667.085 1033 667.101 1033 717.929 1021.92 764.889 997.863 804 962.562Z" fill="#737373" fill-rule="evenodd"/><path d="M680.045 1002C724.764 988.882 765.571 964.414 799 930.125 798.266 923.791 797.717 917.412 797.328 911 795.208 913.388 793.056 915.755 790.838 918.075 759.858 950.532 721.987 973.941 680.41 986.939 680.398 986.945 680.39 986.957 680.392 986.97 681.482 991.772 682.892 996.749 681.302 1000.13 680.993 1000.78 680.547 1001.38 680.022 1001.95 679.986 1001.99 679.996 1002.01 680.045 1002Z" fill="#737373" fill-rule="evenodd"/><path d="M797 892.936C796.995 892.286 796.987 891.634 796.985 890.987 796.985 890.966 796.961 890.953 796.943 890.966 796.427 891.366 795.892 891.716 795.316 891.951 791.518 893.507 785.987 891.361 780.834 890.001 780.824 889.998 780.814 890.001 780.808 890.009 777.887 893.396 774.89 896.736 771.759 899.982 751.646 920.825 728.242 937.446 702.775 949.501 702.767 949.506 702.759 949.514 702.759 949.524 702.689 954.854 703.8 961.125 701.766 964.901 701.644 965.128 701.205 965.714 701.018 965.951 700.985 965.995 700.998 966.013 701.05 965.99 731.148 953.014 758.698 934.087 782.095 909.841 787.346 904.401 792.309 898.751 797 892.936Z" fill="#737373" fill-rule="evenodd"/><path d="M735.77 912.626C734.473 913.629 733.601 915.17 733.001 916.964 732.993 916.988 733.023 917.009 733.044 916.996 735.719 915.078 738.393 913.088 740.99 911.048 741.011 911.032 740.998 910.997 740.971 911 738.934 911.127 737.129 911.573 735.77 912.626Z" fill="#737373" fill-rule="evenodd"/><path d="M809.063 896.788C809.213 903.859 809.605 910.886 810.191 917.871 810.428 920.681 810.697 923.484 811.004 926.279 811.301 928.975 811.629 931.667 811.99 934.35 812.783 940.234 813.723 946.084 814.822 951.888 815.282 954.303 815.77 956.711 816.283 959.11 816.789 961.482 817.324 963.843 817.881 966.199 819.12 971.443 820.489 976.643 821.981 981.804 822.611 983.984 823.266 986.157 823.943 988.32 824.616 990.479 825.311 992.632 826.029 994.776 829.901 1006.33 834.401 1017.64 839.538 1028.67 845.06 1028.98 850.548 1029.43 856 1030 848.663 1015.27 842.527 999.968 837.604 984.229 836.91 982.005 836.236 979.773 835.59 977.533 834.938 975.27 834.31 972.999 833.709 970.72 832.276 965.291 830.99 959.815 829.847 954.295 829.33 951.797 828.843 949.292 828.385 946.776 827.916 944.195 827.48 941.604 827.074 939.006 826.093 932.712 825.275 926.372 824.671 919.987 824.387 916.981 824.155 913.964 823.953 910.94 823.744 907.768 823.592 904.589 823.476 901.4 823.416 899.728 823.347 898.058 823.31 896.383 823.176 889.95 823.261 883.563 823.514 877.215 823.514 877.205 823.512 877.197 823.501 877.192 823.194 877.04 819.156 874.983 817.332 874.237 814.938 873.259 812.643 872.697 810.635 873.171 810.325 873.244 809.716 873.468 809.411 873.649 809.403 873.654 809.398 873.662 809.398 873.669 809.373 874.183 809.355 874.696 809.334 875.208 809.171 878.939 809.06 882.686 809.021 886.446 808.988 889.844 808.988 893.253 809.06 896.672 809.06 896.714 809.063 896.75 809.063 896.788Z" fill="#737373" fill-rule="evenodd"/><path d="M836.382 905.325C836.735 912.407 837.317 919.444 838.148 926.424 838.481 929.229 838.863 932.021 839.275 934.807 839.672 937.496 840.107 940.177 840.573 942.851 841.589 948.672 842.774 954.446 844.124 960.169 844.687 962.562 845.281 964.947 845.9 967.324 846.509 969.655 847.147 971.976 847.812 974.288 853.547 994.249 861.306 1013.5 871.001 1031.79 877.053 1032.7 883.056 1033.77 889 1035 875.714 1012.18 865.669 987.63 859.12 961.931 858.493 959.469 857.896 956.999 857.333 954.516 856.759 951.981 856.214 949.439 855.707 946.887 854.466 940.636 853.437 934.325 852.607 927.964 852.218 924.973 851.868 921.976 851.568 918.965 851.255 915.815 850.989 912.655 850.777 909.484 850.478 904.995 850.273 900.482 850.18 895.955 850.098 892.009 850.119 888.083 850.196 884.171 850.288 879.548 850.488 874.948 850.795 870.379 850.915 868.602 851.046 866.799 851.197 865.029 851.199 865.009 851.184 864.996 851.163 865.001 848.245 865.758 845.664 868.651 843.128 871.695 840.867 874.412 838.635 877.243 836.21 878.816 836.203 878.822 836.2 878.829 836.2 878.837 836.142 880.437 836.1 882.044 836.07 883.648 835.993 887.401 835.975 891.167 836.039 894.95 836.047 895.383 836.042 895.815 836.049 896.248 836.111 899.282 836.231 902.306 836.382 905.325Z" fill="#737373" fill-rule="evenodd"/><path d="M1088.1 1148C1088.21 1147.58 1088.36 1147.17 1088.55 1146.77 1088.56 1146.75 1088.55 1146.74 1088.54 1146.73 1084.33 1145.92 1080.15 1145.01 1076 1144 1081.07 1149.81 1085.96 1155.78 1090.65 1161.92 1091.41 1162.93 1092.19 1163.94 1092.94 1164.95 1093 1165.02 1093.02 1165.01 1092.99 1164.93 1092.68 1164.01 1092.32 1163.07 1091.93 1162.13 1089.88 1157.19 1087.06 1152 1088.1 1148Z" fill="#737373" fill-rule="evenodd"/><path d="M862.271 903.126C862.429 906.602 862.67 910.062 862.956 913.512 863.539 920.56 864.39 927.55 865.501 934.471 865.944 937.231 866.419 939.984 866.946 942.721 867.459 945.388 868.004 948.045 868.596 950.689 875.671 982.36 888.332 1012.35 906.02 1039.5 913.448 1041.43 920.772 1043.61 928 1046 903.522 1013.39 887.187 975.724 880.188 935.514 879.671 932.55 879.212 929.572 878.8 926.582 878.369 923.464 877.993 920.331 877.671 917.187 876.958 910.181 876.509 903.115 876.361 895.996 876.332 894.67 876.338 893.354 876.33 892.034 876.304 887.42 876.397 882.834 876.61 878.277 876.662 877.177 876.711 876.078 876.776 874.981 876.779 874.958 876.761 874.945 876.74 874.958 875.458 875.612 874.179 876.029 872.908 876.055 872.27 876.067 871.621 875.957 870.972 875.792 868.279 875.115 865.503 873.101 862.732 871.008 862.712 870.992 862.693 871 862.691 871.026 862.201 877.903 861.97 884.848 862.003 891.848 862.011 893.326 862.008 894.804 862.04 896.287 862.092 898.576 862.169 900.852 862.271 903.126Z" fill="#737373" fill-rule="evenodd"/><path d="M1019 1093C1033.18 1103.09 1046.54 1114.24 1059 1126.31 1072.29 1130.66 1085.98 1133.91 1099.96 1136 1099.97 1136 1099.98 1136 1099.98 1136 1102 1134.22 1103.57 1132.34 1103.92 1130.21 1104.36 1127.6 1102.9 1124.76 1101.01 1121.86 1101 1121.85 1101 1121.85 1100.99 1121.85 1071.93 1117.35 1044.2 1107.59 1019 1093Z" fill="#737373" fill-rule="evenodd"/><path d="M889.156 898.235C889.278 901.957 889.479 905.665 889.76 909.356 890.026 912.817 890.352 916.27 890.757 919.701 896.7 969.774 917.586 1016.28 951.001 1054.08 967.332 1060.86 983.046 1068.86 998 1078 990.195 1072.19 982.669 1065.91 975.535 1059.09 931.159 1016.63 905.536 959.552 903.447 898.04 903.411 896.989 903.326 895.946 903.305 894.893 903.233 891.403 903.253 887.932 903.334 884.475 903.437 880.022 903.654 875.598 904.007 871.207 904.007 871.199 904.005 871.194 904 871.186 903.734 870.893 903.465 870.604 903.199 870.311 900.318 867.161 897.398 864.243 894.15 864.014 892.874 863.924 891.586 864.267 890.289 864.882 890.282 864.887 890.277 864.895 890.274 864.903 889.267 874.843 888.841 884.947 889.053 895.183 889.076 896.203 889.123 897.218 889.156 898.235Z" fill="#737373" fill-rule="evenodd"/><path d="M984.372 1050.53C1015.39 1080.21 1053.55 1099.88 1094.88 1108 1094.9 1108 1094.91 1107.99 1094.91 1107.98 1095.47 1103.7 1100.49 1099.51 1103.99 1095.25 1104.01 1095.23 1104 1095.21 1103.98 1095.21 1062.83 1088.44 1024.81 1069.53 994.249 1040.29 954.331 1002.1 931.437 950.489 930.285 894.899 930.125 887.176 930.426 879.55 931.099 872.028 931.102 872.01 931.084 871.994 931.066 872.002 926.292 873.715 920.968 877.922 916.333 878.817 916.323 878.82 916.312 878.83 916.312 878.84 916.029 884.246 915.933 889.699 916.047 895.195 917.275 954.492 941.644 1009.64 984.372 1050.53Z" fill="#737373" fill-rule="evenodd"/><path d="M1104.96 1083C1105 1083 1105.01 1082.99 1104.99 1082.96 1101.35 1078.07 1094.34 1073.44 1093.77 1068.43 1093.69 1067.72 1093.76 1066.98 1093.9 1066.23 1093.91 1066.22 1093.9 1066.2 1093.88 1066.2 1063.39 1058.64 1035.35 1043.27 1012.24 1021.2 977.394 987.941 957.323 942.929 956.311 894.378 956.275 892.69 956.322 891.022 956.335 889.344 956.335 889.328 956.322 889.315 956.306 889.318 954.654 889.557 953.105 889.547 951.757 889.058 947.963 887.684 945.361 882.459 942.498 878.024 942.475 877.988 942.452 877.993 942.45 878.037 942.095 883.529 941.919 889.068 942.036 894.669 943.124 946.924 964.668 995.477 1002.33 1031.44 1030.96 1058.77 1066.5 1076.52 1104.96 1083Z" fill="#737373" fill-rule="evenodd"/><path d="M1099.24 1055C1099.25 1055 1099.26 1055 1099.26 1054.99 1101.06 1051.94 1102.43 1048.97 1101.88 1046.31 1101.34 1043.7 1099.03 1041.55 1096.29 1039.51 1096.28 1039.51 1096.28 1039.51 1096.28 1039.51 1071.79 1032.74 1049.3 1019.96 1030.64 1002 1002.47 974.869 985.651 938.5 983.471 899.011 983.471 899.009 983.471 899.006 983.468 899.004 981.302 893.778 979.682 887.5 975.732 885.624 973.868 884.739 971.57 884.896 969.092 885.472 969.082 885.474 969.072 885.485 969.072 885.498 968.995 888.264 968.977 891.043 969.033 893.838 969.969 939.135 988.506 981.17 1020.8 1012.27 1042.93 1033.59 1069.92 1048.21 1099.24 1055Z" fill="#737373" fill-rule="evenodd"/><path d="M1085.7 1022.98C1087.01 1018.49 1089.65 1013.53 1090 1009.42 1090 1009.41 1089.99 1009.39 1089.98 1009.39 1074.97 1003.33 1061.17 994.377 1049.28 982.892 1028.27 962.59 1014.85 935.947 1011.19 906.728 1011.19 906.718 1011.19 906.711 1011.18 906.708 1007.53 905.182 1002.02 906.52 997.023 907.048 997.007 907.051 997 907.064 997 907.077 1000.77 940 1015.69 970.154 1039.47 993.147 1052.97 1006.19 1068.64 1016.27 1085.66 1023 1085.68 1023 1085.69 1022.99 1085.7 1022.98Z" fill="#737373" fill-rule="evenodd"/><path d="M1069.41 983.995C1069.42 984.006 1069.44 983.998 1069.45 983.98 1070.33 978.367 1072.22 972.162 1069.86 968.492 1066.14 962.686 1052.5 964.101 1048.28 958.684 1044.06 953.254 1048.58 940.126 1043.89 935.124 1041.1 932.15 1035.33 932.321 1030.03 932 1030.01 932 1029.99 932.018 1030 932.036 1035.99 947.786 1045.36 962.075 1057.6 973.981 1061.33 977.608 1065.29 980.936 1069.41 983.995Z" fill="#737373" fill-rule="evenodd"/><path d="M1078.04 1165.49C1075.95 1162.87 1073.84 1160.26 1071.68 1157.7 1065.71 1150.65 1059.44 1143.87 1052.92 1137.35 1049.12 1133.56 1045.23 1129.85 1041.25 1126.24 1035.5 1121.03 1029.56 1116.02 1023.46 1111.22 1009.68 1100.39 995.02 1090.63 979.611 1082.09 972.762 1078.29 965.769 1074.73 958.636 1071.41 953.808 1069.17 948.918 1067.04 943.969 1065.03 935.424 1061.56 926.708 1058.43 917.831 1055.67 914.609 1054.68 911.369 1053.72 908.105 1052.82 905.046 1051.98 901.966 1051.18 898.87 1050.43 892.428 1048.85 885.917 1047.45 879.336 1046.26 876.712 1045.78 874.08 1045.34 871.435 1044.93 868.814 1044.52 866.179 1044.14 863.54 1043.8 857.869 1043.06 852.157 1042.45 846.403 1042 844.037 1041.82 841.661 1041.67 839.281 1041.54 836.892 1041.4 834.492 1041.3 832.089 1041.22 828.321 1041.09 824.542 1041 820.742 1041 818.441 1041 816.149 1041.02 813.837 1041.07 786.748 1041.63 760.489 1045.49 735.418 1052.23 720.7 1056.18 706.393 1061.11 692.574 1066.97 680.756 1071.99 669.285 1077.67 658.224 1083.98 658.222 1083.98 658.219 1083.98 658.216 1083.98 654.471 1088.54 648.903 1093.07 649.001 1097.78 649.048 1100 650.357 1102.13 652.136 1104.22 652.144 1104.23 652.159 1104.24 652.169 1104.23 699.119 1074.33 754.55 1056.52 814.128 1055.29 822.74 1055.11 831.278 1055.29 839.732 1055.8 842.245 1055.95 844.751 1056.13 847.249 1056.34 849.754 1056.55 852.252 1056.78 854.742 1057.05 860.892 1057.72 866.989 1058.58 873.033 1059.6 875.877 1060.07 878.707 1060.59 881.527 1061.15 884.432 1061.72 887.324 1062.33 890.201 1062.98 897.692 1064.68 905.085 1066.65 912.367 1068.87 916.05 1070 919.71 1071.18 923.337 1072.43 927.479 1073.87 931.583 1075.39 935.646 1077 952.109 1083.49 967.908 1091.34 982.9 1100.4 990.602 1105.06 998.085 1110.04 1005.34 1115.32 1016.89 1123.73 1027.88 1132.9 1038.18 1142.77 1040.54 1145.05 1042.86 1147.37 1045.16 1149.71 1048.19 1152.8 1051.18 1155.95 1054.08 1159.16 1056.66 1162.02 1059.18 1164.94 1061.66 1167.9 1066.3 1173.44 1070.76 1179.14 1075.02 1184.99 1075.03 1185.01 1075.05 1185 1075.06 1184.99 1077.23 1181.69 1082.53 1179.68 1086.99 1177.31 1087 1177.31 1087.01 1177.29 1086.99 1177.27 1085.97 1175.86 1084.92 1174.45 1083.87 1173.05 1081.97 1170.5 1080.02 1167.98 1078.04 1165.49Z" fill="#737373" fill-rule="evenodd"/><path d="M1062.73 1188.77C1060.71 1186.08 1058.64 1183.42 1056.54 1180.8 1050.74 1173.55 1044.61 1166.57 1038.18 1159.88 1035.34 1156.93 1032.45 1154.02 1029.48 1151.18 1028.54 1150.27 1027.57 1149.39 1026.61 1148.49 1020.92 1143.17 1015.03 1138.06 1008.94 1133.2 995.052 1122.09 980.171 1112.19 964.464 1103.64 957.507 1099.86 950.391 1096.33 943.124 1093.09 938.238 1090.91 933.294 1088.84 928.277 1086.92 919.636 1083.61 910.808 1080.69 901.813 1078.17 898.561 1077.26 895.289 1076.4 891.996 1075.6 888.896 1074.84 885.779 1074.14 882.646 1073.48 876.142 1072.11 869.566 1070.95 862.921 1070.01 860.276 1069.63 857.62 1069.3 854.957 1068.99 852.332 1068.69 849.7 1068.42 847.057 1068.19 838.267 1067.42 829.378 1067 820.397 1067 818.281 1067 816.17 1067.02 814.043 1067.06 757.527 1068.24 704.902 1084.93 660.151 1112.97 660.138 1112.98 660.136 1112.99 660.143 1113.01 661.036 1114.32 661.668 1115.64 661.821 1116.99 662.409 1122.21 656.37 1128.47 654.009 1134.1 653.988 1134.15 654.006 1134.16 654.047 1134.13 699.49 1101.92 754.652 1082.54 814.338 1081.3 828.844 1081 843.123 1081.79 857.109 1083.58 859.969 1083.94 862.82 1084.34 865.654 1084.79 868.591 1085.26 871.507 1085.78 874.413 1086.34 881.957 1087.78 889.397 1089.51 896.727 1091.53 900.443 1092.55 904.134 1093.64 907.788 1094.81 911.966 1096.14 916.108 1097.56 920.204 1099.08 936.861 1105.25 952.797 1112.95 967.866 1121.97 975.719 1126.67 983.333 1131.73 990.683 1137.14 1000.86 1144.62 1010.54 1152.74 1019.65 1161.47 1023.25 1164.92 1026.75 1168.47 1030.16 1172.09 1033.13 1175.25 1036.04 1178.46 1038.86 1181.75 1041.39 1184.68 1043.84 1187.68 1046.24 1190.71 1050.97 1196.68 1055.49 1202.83 1059.74 1209.17 1061.03 1211.09 1062.3 1213.03 1063.55 1214.99 1063.55 1215 1063.57 1215 1063.58 1215 1066.68 1214.13 1069.92 1213.47 1072.34 1212.14 1073.72 1211.39 1074.79 1210.32 1075.5 1209.13 1075.7 1208.79 1075.86 1208.44 1076 1208.07 1076 1208.06 1076 1208.05 1076 1208.04 1073.53 1204.15 1070.97 1200.32 1068.34 1196.55 1066.51 1193.93 1064.64 1191.33 1062.73 1188.77Z" fill="#737373" fill-rule="evenodd"/><path d="M1051.86 1220.79C1050.13 1218.1 1048.35 1215.44 1046.53 1212.82 1044.62 1210.07 1042.66 1207.36 1040.66 1204.68 1035.09 1197.24 1029.15 1190.1 1022.88 1183.27 1019.22 1179.29 1015.45 1175.4 1011.57 1171.64 1011.35 1171.43 1011.14 1171.22 1010.92 1171.01 1005.53 1165.82 999.921 1160.86 994.13 1156.13 980.289 1144.81 965.352 1134.81 949.502 1126.33 942.572 1122.62 935.463 1119.21 928.202 1116.09 923.295 1113.99 918.322 1112.02 913.276 1110.2 904.594 1107.06 895.719 1104.36 886.671 1102.1 883.415 1101.29 880.133 1100.55 876.835 1099.86 873.717 1099.2 870.59 1098.59 867.436 1098.04 852.151 1095.38 836.449 1094 820.447 1094 818.518 1094 816.595 1094.02 814.659 1094.06 756.525 1095.27 702.902 1114.57 659.011 1146.53 658.996 1146.54 658.996 1146.56 659.011 1146.57 663.178 1149.66 668.328 1152.48 669.906 1156.2 669.911 1156.21 669.929 1156.22 669.944 1156.21 711.103 1127.01 761.004 1109.46 814.955 1108.34 838.035 1107.86 860.493 1110.42 881.958 1115.65 885.671 1116.55 889.358 1117.53 893.009 1118.59 897.191 1119.8 901.33 1121.13 905.424 1122.54 922.06 1128.31 937.954 1135.74 952.914 1144.62 960.907 1149.36 968.635 1154.52 976.063 1160.07 984.84 1166.63 993.21 1173.72 1001.1 1181.33 1005.78 1185.83 1010.29 1190.52 1014.63 1195.36 1017.5 1198.56 1020.28 1201.83 1022.99 1205.17 1025.43 1208.18 1027.81 1211.23 1030.12 1214.34 1037.32 1224.06 1043.85 1234.3 1049.68 1244.99 1049.69 1245 1049.7 1245.01 1049.72 1244.99 1050 1244.77 1050.28 1244.53 1050.51 1244.26 1054.56 1239.61 1050.92 1228.8 1053 1222.56 1053 1222.55 1053 1222.55 1053 1222.54 1052.62 1221.95 1052.24 1221.37 1051.86 1220.79Z" fill="#737373" fill-rule="evenodd"/><path d="M996.147 1193.83C994.903 1192.59 993.649 1191.35 992.38 1190.14 988.11 1186.06 983.692 1182.13 979.144 1178.35 965.44 1166.99 950.506 1157.08 934.594 1148.83 927.726 1145.27 920.676 1142.02 913.462 1139.1 908.581 1137.13 903.627 1135.3 898.6 1133.64 873.905 1125.44 847.541 1121 820.212 1121 818.468 1121 816.729 1121.02 814.977 1121.05 758.434 1122.22 706.583 1142.2 665.339 1174.94 665.334 1174.94 665.331 1174.95 665.328 1174.95 664.9 1176.9 664.833 1178.71 665.478 1180.27 666.637 1183.07 669.96 1184.86 673.59 1186.51 673.598 1186.51 673.608 1186.51 673.616 1186.51 712.633 1155.33 761.745 1136.36 815.268 1135.25 859.807 1134.32 901.818 1145.89 937.881 1166.82 946.009 1171.54 953.834 1176.73 961.319 1182.36 968.743 1187.95 975.831 1193.97 982.542 1200.39 999.246 1216.36 1013.56 1234.75 1024.95 1254.98 1024.97 1255.01 1024.99 1255.01 1025 1254.98 1025.53 1253.09 1026.28 1251.45 1027.47 1250.32 1029.57 1248.33 1033.17 1247.77 1036.98 1247.41 1037 1247.4 1037.01 1247.39 1037 1247.37 1028.49 1232.39 1018.47 1218.38 1007.14 1205.54 1003.6 1201.52 999.94 1197.61 996.147 1193.83Z" fill="#737373" fill-rule="evenodd"/><path d="M820.147 1147C818.588 1147 817.035 1147.02 815.472 1147.05 766.353 1148.07 721.191 1165.14 684.841 1193.26 684.831 1193.27 684.828 1193.28 684.836 1193.3 684.913 1193.42 685.009 1193.53 685.073 1193.66 687.48 1198.26 684.204 1206.22 684 1212.35 684 1212.38 684.018 1212.39 684.044 1212.37 719.584 1181.4 765.499 1162.41 815.769 1161.37 872.903 1160.16 925.402 1182.35 964.016 1219.59 980.444 1235.44 994.232 1253.94 1004.79 1274.37 1004.79 1274.38 1004.8 1274.38 1004.81 1274.38 1010.31 1274.8 1016.34 1275.96 1019.65 1273.33 1019.78 1273.23 1019.88 1273.11 1019.99 1273 1020 1272.99 1020 1272.98 1020 1272.97 1008.42 1249.06 992.764 1227.49 973.85 1209.26 933.729 1170.57 879.463 1147 820.147 1147Z" fill="#737373" fill-rule="evenodd"/><path d="M955.313 1228.44C919.955 1194.58 872.174 1174 819.989 1174 818.616 1174 817.251 1174.01 815.873 1174.04 768.582 1175.02 725.415 1192.76 692.013 1221.65 691.992 1221.67 691.997 1221.69 692.023 1221.7 697.357 1223.21 703.863 1223.89 706.635 1227.23 706.663 1227.27 706.87 1227.58 706.963 1227.72 706.97 1227.73 706.986 1227.73 706.996 1227.73 737.17 1203.68 775.008 1189.12 816.165 1188.27 865.936 1187.22 911.733 1206.39 945.47 1238.71 962.16 1254.7 975.734 1273.78 985.332 1294.99 985.339 1295 985.36 1295.01 985.373 1294.99 989.151 1291.56 990.16 1283.41 992.996 1278.4 993.002 1278.39 993.002 1278.38 992.996 1278.37 983.153 1259.77 970.423 1242.91 955.313 1228.44Z" fill="#737373" fill-rule="evenodd"/><path d="M820.308 1201C819.123 1201 817.939 1201.01 816.748 1201.04 775.586 1201.89 738.01 1217.37 709.008 1242.61 709.003 1242.61 708.998 1242.62 709.001 1242.63 709.104 1246.02 709.548 1249.11 711.37 1251.02 712.884 1252.61 715.276 1253.28 717.992 1253.63 718 1253.63 718.007 1253.63 718.012 1253.62 744.694 1230.25 779.257 1216 817.045 1215.22 859.479 1214.33 898.6 1230.57 927.475 1258.13 939.32 1269.44 949.285 1282.56 957.026 1296.99 957.034 1297 957.057 1297.01 957.067 1296.99 958.168 1295.6 959.367 1294.48 960.759 1293.91 963.759 1292.68 967.844 1293.78 971.964 1294.96 971.995 1294.96 972.008 1294.95 971.995 1294.92 963.24 1277.31 951.489 1261.4 937.326 1247.89 906.712 1218.68 865.39 1201 820.308 1201Z" fill="#737373" fill-rule="evenodd"/><path d="M820.024 1227C819.024 1227 818.027 1227.01 817.022 1227.03 785.935 1227.67 757.253 1238.25 734.01 1255.84 733.997 1255.85 733.997 1255.87 734.01 1255.89 734.118 1255.96 734.24 1256.03 734.34 1256.12 737.428 1258.81 737.934 1264.74 739.014 1269.96 739.019 1269.97 739.04 1269.98 739.055 1269.97 760.643 1252.41 787.818 1241.86 817.319 1241.25 852.356 1240.5 884.745 1253.9 908.72 1276.83 918.315 1286 926.401 1296.6 932.736 1308.23 932.739 1308.24 932.741 1308.24 932.746 1308.24 937.138 1310.44 941.559 1312.81 945.077 1311.73 946.565 1311.28 947.837 1310.22 948.994 1308.85 949.002 1308.84 949.002 1308.83 948.996 1308.82 941.517 1292.95 931.194 1278.64 918.573 1266.57 892.744 1241.87 857.936 1227 820.024 1227Z" fill="#737373" fill-rule="evenodd"/><path d="M820.133 1254C819.319 1254 818.509 1254.01 817.693 1254.02 791.013 1254.58 766.473 1264.19 747.01 1280.13 746.992 1280.14 747 1280.17 747.023 1280.17 753.235 1280.84 762.231 1277.28 767.028 1280.13 767.813 1280.59 768.498 1281.25 769.115 1282.03 769.122 1282.04 769.135 1282.05 769.148 1282.04 783.654 1273.57 800.313 1268.67 817.99 1268.3 845.617 1267.71 871.262 1278.28 890.331 1296.61 897.217 1303.23 903.117 1310.77 907.886 1318.99 907.894 1319 907.912 1319.01 907.924 1318.99 911.426 1316.18 914.555 1311.17 917.992 1308.18 918.002 1308.17 918.002 1308.15 917.997 1308.14 912.967 1300.17 906.985 1292.84 900.183 1286.3 879.143 1266.09 850.867 1254 820.133 1254Z" fill="#737373" fill-rule="evenodd"/><path d="M820.479 1281C819.856 1281 819.237 1281.01 818.611 1281.02 802.768 1281.35 787.882 1285.85 775.012 1293.56 775.002 1293.57 774.997 1293.58 775.002 1293.6 776.318 1296.72 777.848 1299.44 780.229 1300.56 786.142 1303.36 796.419 1295.8 802.947 1297.24 808.103 1296 813.44 1295.28 818.906 1295.17 838.168 1294.75 856.231 1301.7 870.096 1314.15 870.68 1314.68 871.905 1315.84 872.066 1315.99 872.077 1316 872.089 1316 872.1 1315.99 875.472 1313.2 878.859 1310.43 882.192 1310.36 884.063 1310.32 885.988 1311.14 887.933 1312.33 888.007 1312.38 888.023 1312.36 887.966 1312.29 885.993 1309.97 883.909 1307.74 881.7 1305.63 865.54 1290.15 843.908 1281 820.479 1281Z" fill="#737373" fill-rule="evenodd"/><path d="M818.636 1307.01C816.405 1307.06 814.198 1307.23 812.022 1307.51 812.004 1307.51 811.994 1307.53 812.004 1307.55 814.125 1310.96 816.364 1314.01 819.301 1314.8 823.842 1316 829.588 1311.55 834.986 1308.87 835.007 1308.86 835.004 1308.83 834.98 1308.82 830.143 1307.63 825.119 1307 819.982 1307 819.532 1307 819.086 1307 818.636 1307.01Z" fill="#737373" fill-rule="evenodd"/><path d="M813.256 1028.28C800.653 1028.54 788.229 1029.47 776 1031 789.932 1022.98 803.313 1013.96 816.065 1004 819.045 1012.22 822.362 1020.32 826 1028.28 821.767 1028.21 817.523 1028.2 813.256 1028.28Z" fill="#737373" fill-rule="evenodd"/><path d="M2453.05 921 2453.05 921 2338.16 1135.47C2250.75 1114.95 2162.21 1178.36 2159.09 1270.79 2159.03 1272.52 2159 1274.26 2159 1276L2354.36 1276C2394.73 1276 2429.49 1251.99 2445.24 1217.45L2505.7 1104.11C2540.79 1038.89 2517.4 957.524 2453.05 921Z" fill="#737373" fill-rule="evenodd"/><path d="M2159.98 1176.13 2159.98 1176.13C2159.98 1176.12 2159.99 1176.12 2159.98 1176.11L2031.3 931 2031.3 931C1967.01 967.45 1943.63 1048.65 1978.7 1113.74L1989.25 1133.5C1923.07 1143.37 1867.54 1198.07 1865.09 1270.8 1865.03 1272.53 1865 1274.26 1865 1276L2060.2 1276C2115.31 1276 2159.99 1231.3 2160 1176.15 2160 1176.14 2159.99 1176.13 2159.98 1176.13Z" fill="#D2D2D2" fill-rule="evenodd"/><path d="M1915.14 1276 1910 1276C1910 1215.9 1958.9 1167 2019 1167L2019 1172.14C1961.73 1172.14 1915.14 1218.73 1915.14 1276Z" fill="#737373" fill-rule="evenodd"/><path d="M1960.17 1276 1955 1276C1955 1232.44 1990.89 1197 2035 1197L2035 1202.1C1993.74 1202.1 1960.17 1235.25 1960.17 1276Z" fill="#737373" fill-rule="evenodd"/><path d="M2627.94 330.077C2585.63 279.064 2519.06 289.37 2464.39 316.713 2438.22 344.757 2422.41 382.777 2422.41 424.847L2421.87 719.666 1727.79 719.666 1726.05 837.307C1724.85 919.175 1744.06 1000.06 1781.97 1072.66L1921.31 1075.24 2249.75 966.903C2265.24 1043.4 2332.94 1101 2414.13 1101L2574.1 1101 2574.1 982.416 2575.39 982.48 2575.39 735.699C2576.13 731.409 2576.54 727.006 2576.54 722.505L2576.54 578.26C2576.54 539.057 2591.12 503.276 2615.12 475.948 2641.36 434.163 2662.52 370.784 2627.94 330.077Z" fill-rule="evenodd"/><path d="M1860.05 922 1860.05 922 1745.16 1135.86C1657.75 1115.41 1569.21 1178.63 1566.09 1270.81 1566.03 1272.53 1566 1274.26 1566 1276L1761.36 1276C1801.74 1276 1836.49 1252.05 1852.24 1217.61L1912.7 1104.59C1947.79 1039.56 1924.4 958.422 1860.05 922Z" fill="#505050" fill-rule="evenodd"/><path d="M1616.19 1276 1611 1276C1611 1215.9 1660.35 1167 1721 1167L1721 1172.14C1663.21 1172.14 1616.19 1218.73 1616.19 1276Z" fill="#2F2F2F" fill-rule="evenodd"/><path d="M1661.17 1276 1656 1276C1656 1232.44 1691.89 1197 1736 1197L1736 1202.1C1694.74 1202.1 1661.17 1235.25 1661.17 1276Z" fill="#2F2F2F" fill-rule="evenodd"/><path d="M2674.85 303.449C2691.23 317.029 2704.74 333.948 2714.42 353.146 2725 374.128 2731 397.828 2731 422.945 2684.49 422.945 2642.8 443.494 2614.37 476 2606.2 459.045 2601.62 440.025 2601.62 419.93 2601.62 415.558 2601.84 411.237 2602.26 406.973 2601.62 406.983 2600.98 407.025 2600.33 407.025 2539.06 407.025 2486.49 369.689 2464 316.471 2491.37 287.01 2530.12 268.545 2574.08 268.047L2574.08 268 2576.49 268C2613.86 268 2648.13 281.308 2674.85 303.449Z" fill="#D2D2D2" fill-rule="evenodd"/><path d="M1926.96 547.003 1825.4 611.544 1749.9 611.544C1749.9 611.544 1740.01 615.016 1712.58 615.016 1685.16 615.016 1672.6 611.544 1672.6 611.544L1605.6 611.544 1504.04 547.003C1504.02 546.993 1504 547.006 1504 547.024L1504.36 782 1926.64 782 1927 547.024C1927 547.006 1926.98 546.993 1926.96 547.003Z" fill="#2F2F2F" fill-rule="evenodd"/><path d="M1749.62 611 1749.62 611 1672.27 611 1672.27 612.822C1672.27 689.492 1495 782.045 1495 782.045 1495 782.045 1595.29 895 1719 895 1842.71 895 1943 782.045 1943 782.045 1943 782.045 1749.62 691.16 1749.62 611Z" fill="#737373" fill-rule="evenodd"/><path d="M1840 812.5C1840 845.361 1783.81 872 1714.5 872 1645.19 872 1589 845.361 1589 812.5 1589 779.639 1645.19 753 1714.5 753 1783.81 753 1840 779.639 1840 812.5Z" fill="#E6E6E6" fill-rule="evenodd"/><path d="M1780.86 798.953C1767.71 809.048 1742.28 815.414 1714.08 815.785L1714.08 773.591C1714.08 772.161 1712.93 771 1711.5 771 1710.07 771 1708.92 772.161 1708.92 773.591L1708.92 815.785C1680.72 815.414 1655.29 809.05 1642.14 798.953L1639 803.067C1653.41 814.131 1681.19 821 1711.5 821 1741.81 821 1769.58 814.129 1784 803.067L1780.86 798.953Z" fill="#737474" fill-rule="evenodd"/><path d="M1751 767.936C1751 777.289 1733.54 801 1712 801 1690.46 801 1673 777.289 1673 767.936 1673 758.583 1690.46 751 1712 751 1733.54 751 1751 758.583 1751 767.936Z" fill="#2F2F2F" fill-rule="evenodd"/><path d="M1639 714C1639 731.121 1625.12 745 1608 745 1590.88 745 1577 731.121 1577 714 1577 696.879 1590.88 683 1608 683 1625.12 683 1639 696.879 1639 714Z" fill="#FFC000" fill-rule="evenodd"/><path d="M1624 714.5C1624 723.061 1616.84 730 1608 730 1599.16 730 1592 723.061 1592 714.5 1592 705.939 1599.16 699 1608 699 1616.84 699 1624 705.939 1624 714.5Z" fill="#2F2F2F" fill-rule="evenodd"/><path d="M1854 714C1854 731.121 1840.12 745 1823 745 1805.88 745 1792 731.121 1792 714 1792 696.879 1805.88 683 1823 683 1840.12 683 1854 696.879 1854 714Z" fill="#FFC000" fill-rule="evenodd"/><path d="M1839 714.5C1839 723.061 1832.06 730 1823.5 730 1814.94 730 1808 723.061 1808 714.5 1808 705.939 1814.94 699 1823.5 699 1832.06 699 1839 705.939 1839 714.5Z" fill="#2F2F2F" fill-rule="evenodd"/><path d="M1629.09 788C1627.86 787.776 1504.51 765.606 1349.28 774.291L1349 769.023C1504.86 760.303 1628.76 782.581 1630 782.808L1629.09 788Z" fill="#2F2F2F" fill-rule="evenodd"/><path d="M1352.81 822 1352 816.93C1500.28 793.275 1627.73 793 1629 793L1629 798.134C1627.74 798.134 1500.67 798.411 1352.81 822Z" fill="#737373" fill-rule="evenodd"/><path d="M1797.91 788 1797 782.805C1798.23 782.58 1922.14 760.311 2078 769.018L2077.72 774.288C1922.49 765.607 1799.14 787.773 1797.91 788Z" fill="#2F2F2F" fill-rule="evenodd"/><path d="M2074.18 822C1925.79 798.411 1798.27 798.134 1797 798.134L1797 793C1798.28 793 1926.18 793.272 2075 816.933L2074.18 822Z" fill="#737373" fill-rule="evenodd"/><path d="M1692 611 1697 611 1697 676 1692 676Z" fill="#2F2F2F" fill-rule="evenodd"/><path d="M1715 645 1710 645 1710 611 1712.18 611 1715 611Z" fill="#505050" fill-rule="evenodd"/><path d="M1728 611 1733 611 1733 673 1728 673Z" fill="#505050" fill-rule="evenodd"/><path d="M2574.05 922 2574.05 922 2459.16 1135.86C2371.75 1115.41 2283.21 1178.63 2280.09 1270.81 2280.03 1272.53 2280 1274.26 2280 1276L2475.36 1276C2515.74 1276 2550.49 1252.05 2566.24 1217.61L2626.7 1104.59C2661.79 1039.56 2638.4 958.422 2574.05 922Z" fill="#505050" fill-rule="evenodd"/><path d="M2331.14 1276 2326 1276C2326 1215.9 2374.9 1167 2435 1167L2435 1172.14C2377.73 1172.14 2331.14 1218.73 2331.14 1276Z" fill="#2F2F2F" fill-rule="evenodd"/><path d="M2376.1 1276 2371 1276C2371 1232.44 2406.44 1197 2450 1197L2450 1202.1C2409.25 1202.1 2376.1 1235.25 2376.1 1276Z" fill="#2F2F2F" fill-rule="evenodd"/><path d="M2419.96 1106 2459 1106 2459 1101.32C2459 1101.18 2458.88 1101.06 2458.74 1101.06L2417.37 1100.96C2323.45 1100.96 2247.05 1024.74 2247.05 931.053 2247.05 884.44 2265.59 840.962 2299.26 808.629L2295.76 805C2261.37 838.031 2242.3 882.358 2242 929.924 2241.4 1026.77 2322.89 1106 2419.96 1106Z" fill="#737373" fill-rule="evenodd"/></g></svg>