<svg width="1857" height="777" xmlns="http://www.w3.org/2000/svg" xmlns:xlink="http://www.w3.org/1999/xlink" overflow="hidden"><defs><clipPath id="clip0"><rect x="423" y="370" width="1857" height="777"/></clipPath></defs><g clip-path="url(#clip0)" transform="translate(-423 -370)"><path d="M2276.78 405.145C2271.04 389.839 2256.01 380.746 2240.49 381.824L2236.34 370.752 2038.31 445.048C2031.22 429.27 2013.01 421.494 1996.59 427.655L1875.03 473.259C1858.61 479.421 1850.02 497.25 1855.05 513.798L1591.13 612.816C1586.94 614.387 1582.31 614.305 1578.18 612.585L1577.12 612.146C1572.99 610.427 1568.36 610.344 1564.17 611.915L1508.57 632.775C1508.57 632.775 1502.67 658.157 1513.9 688.088 1525.13 718.02 1548.41 738.984 1548.41 738.984L1604.35 718C1608.72 716.36 1612.26 713.051 1614.19 708.8 1616.12 704.548 1619.66 701.24 1624.03 699.6L2268.94 457.65 2264.79 446.578C2277.18 437.184 2282.52 420.451 2276.78 405.145Z" fill="#D2D2D2" fill-rule="evenodd"/><path d="M1876.08 511.419 1876.08 511.419C1872.07 500.754 1877.48 488.864 1888.14 484.863L1994.35 445.017C2005.02 441.016 2016.91 446.419 2020.91 457.083L2020.91 457.083C2024.91 467.747 2019.5 479.638 2008.84 483.638L1902.63 523.485C1891.97 527.486 1880.08 522.083 1876.08 511.419Z" fill="#505050" fill-rule="evenodd"/><path d="M2207.37 381.619 2217.03 377.997 2249.63 464.895 2239.98 468.518Z" fill="#FFFFFF" fill-rule="evenodd"/><path d="M2063.34 452.751C2062.34 450.086 2063.69 447.112 2066.35 446.112L2187.05 400.832C2189.71 399.833 2192.69 401.184 2193.69 403.849 2194.69 406.514 2193.33 409.488 2190.67 410.488L2069.98 455.768C2067.31 456.767 2064.34 455.416 2063.34 452.751Z" fill="#FFFFFF" fill-rule="evenodd"/><path d="M1778.32 559.11C1777.32 556.445 1778.67 553.47 1781.33 552.471L1834.44 532.548C1837.1 531.548 1840.08 532.899 1841.08 535.564 1842.08 538.229 1840.72 541.203 1838.06 542.203L1784.96 562.126C1782.29 563.126 1779.32 561.774 1778.32 559.11Z" fill="#FFFFFF" fill-rule="evenodd"/><path d="M1599.69 626.124C1598.69 623.459 1600.04 620.484 1602.71 619.484L1752.37 563.338C1755.03 562.338 1758.01 563.689 1759.01 566.354 1760.01 569.019 1758.65 571.993 1755.99 572.993L1606.33 629.14C1603.67 630.14 1600.69 628.788 1599.69 626.124Z" fill="#FFFFFF" fill-rule="evenodd"/><path d="M462.209 1146.57 423.213 1042.62 1508.57 632.775 1548.41 738.984Z" fill="#2F2F2F" fill-rule="evenodd"/><path d="M620.457 921.908 647.625 994.323 657.28 990.701 640.979 947.251 703.549 923.777 721.66 972.054 731.316 968.432 713.204 920.155 775.964 896.609 794.076 944.886 803.731 941.264 785.619 892.987 993.209 815.106 1009.51 858.555 1019.17 854.933 1002.86 811.484 1065.62 787.938 1084.64 838.629 1094.3 835.006 1075.28 784.316 1138.04 760.77 1157.06 811.461 1166.71 807.839 1147.7 757.148 1210.46 733.602 1226.76 777.052 1236.41 773.429 1220.11 729.98 1355.29 679.267 1371.59 722.716 1381.24 719.094 1364.94 675.644 1495.29 626.742 1498.91 636.398 1508.57 632.775 1494.08 594.154 620.457 921.908ZM637.357 937.596 633.735 927.941 696.304 904.467 699.926 914.122 637.357 937.596ZM709.581 910.5 705.959 900.844 768.719 877.299 772.342 886.954 709.581 910.5ZM781.997 883.332 778.375 873.676 985.965 795.795 989.587 805.451 781.997 883.332ZM999.242 801.828 995.62 792.173 1058.38 768.627 1062 778.283 999.242 801.828ZM1071.66 774.66 1068.04 765.005 1130.8 741.46 1134.42 751.115 1071.66 774.66ZM1144.07 747.493 1140.45 737.837 1203.21 714.292 1206.83 723.947 1144.07 747.493ZM1216.49 720.325 1212.87 710.669 1348.04 659.956 1351.66 669.611 1216.49 720.325ZM1491.67 617.087 1361.32 665.989 1357.7 656.334 1488.04 607.432 1491.67 617.087Z" fill="#737373" fill-rule="evenodd"/><path d="M480.737 990.445 489.925 1014.94 493.547 1024.59 509.848 1068.04 519.504 1064.42 503.203 1020.97 565.963 997.423 582.264 1040.87 591.919 1037.25 562.808 959.655 480.737 990.445ZM562.34 987.768 499.58 1011.31 494.015 996.478 556.775 972.933 562.34 987.768Z" fill="#737373" fill-rule="evenodd"/><path d="M1402.36 716.676C1407.36 730.007 1400.61 744.869 1387.28 749.87 1373.95 754.872 1359.09 748.119 1354.09 734.788 1349.09 721.457 1355.84 706.595 1369.17 701.594 1382.5 696.592 1397.36 703.345 1402.36 716.676Z" fill="#737373" fill-rule="evenodd"/><path d="M1257.53 771.012C1262.53 784.343 1255.78 799.205 1242.45 804.206 1229.12 809.208 1214.26 802.455 1209.26 789.124 1204.25 775.793 1211.01 760.931 1224.34 755.93 1237.67 750.928 1252.53 757.681 1257.53 771.012Z" fill="#737373" fill-rule="evenodd"/><path d="M1190.55 812.663C1195.55 825.994 1188.8 840.856 1175.47 845.857 1162.14 850.859 1147.28 844.106 1142.27 830.775 1137.27 817.444 1144.03 802.582 1157.36 797.58 1170.69 792.579 1185.55 799.332 1190.55 812.663Z" fill="#737373" fill-rule="evenodd"/><path d="M1118.14 839.831C1123.14 853.162 1116.38 868.024 1103.05 873.025 1089.72 878.027 1074.86 871.274 1069.86 857.943 1064.86 844.612 1071.61 829.75 1084.94 824.748 1098.27 819.747 1113.13 826.5 1118.14 839.831Z" fill="#737373" fill-rule="evenodd"/><path d="M1040.29 852.516C1045.29 865.847 1038.54 880.709 1025.2 885.71 1011.87 890.711 997.012 883.959 992.01 870.627 987.009 857.296 993.762 842.435 1007.09 837.433 1020.42 832.432 1035.29 839.185 1040.29 852.516Z" fill="#737373" fill-rule="evenodd"/><path d="M823.042 934.019C828.043 947.35 821.29 962.212 807.959 967.214 794.628 972.215 779.766 965.462 774.765 952.131 769.763 938.8 776.516 923.938 789.848 918.937 803.179 913.935 818.04 920.688 823.042 934.019Z" fill="#737373" fill-rule="evenodd"/><path d="M750.626 961.187C755.628 974.518 748.875 989.38 735.544 994.381 722.213 999.383 707.351 992.63 702.349 979.299 697.348 965.968 704.101 951.106 717.432 946.104 730.763 941.103 745.625 947.856 750.626 961.187Z" fill="#737373" fill-rule="evenodd"/><path d="M611.23 1030.01C616.231 1043.34 609.478 1058.2 596.147 1063.2 582.816 1068.2 567.954 1061.45 562.953 1048.12 557.951 1034.79 564.704 1019.92 578.035 1014.92 591.366 1009.92 606.228 1016.67 611.23 1030.01Z" fill="#737373" fill-rule="evenodd"/><path d="M538.814 1057.17C543.816 1070.5 537.063 1085.37 523.732 1090.37 510.401 1095.37 495.539 1088.62 490.538 1075.29 485.536 1061.95 492.289 1047.09 505.62 1042.09 518.951 1037.09 533.813 1043.84 538.814 1057.17Z" fill="#737373" fill-rule="evenodd"/></g></svg>