<svg width="2291" height="1621" xmlns="http://www.w3.org/2000/svg" xmlns:xlink="http://www.w3.org/1999/xlink" overflow="hidden"><defs><clipPath id="clip0"><rect x="-183" y="127" width="2291" height="1621"/></clipPath></defs><g clip-path="url(#clip0)" transform="translate(183 -127)"><path d="M1398.93 834.945C1557.62 931.928 1656 896.801 1656 896.801 1656 896.801 1642.41 793.244 1483.72 696.261 1325.04 599.278 1154 590 1154 590 1154 590 1240.25 737.965 1398.93 834.945Z" fill="#D1D1D1" fill-rule="evenodd"/><path d="M1607.13 870C1605.55 868.942 1447.88 763.651 1361 721.635L1363.24 717C1450.45 759.17 1608.42 864.66 1610 865.718L1607.13 870Z" fill="#E6E6E6" fill-rule="evenodd"/><path d="M896 1190.79C981.389 1220.88 1365.9 1180.48 1446.63 1021.67 1449.89 1015.24 1455.22 1010.14 1461.87 1007.39 1501.13 991.173 1534.71 961.708 1556.35 925.082 1553.28 923.352 1563.25 928.907 1549.47 921.195 1535.67 913.507 1545.63 919.083 1542.55 917.375 1524.34 952.331 1494.74 981.15 1459.34 998.394 1453.33 1001.32 1446.32 1001.11 1440.35 998.092 1278.99 916.513 946.777 1116.07 896 1190.79Z" fill="#D1D1D1" fill-rule="evenodd"/><path d="M1453.72 1113C1559.02 960.004 1663.11 952 1663.11 952 1663.11 952 1692.9 1051.95 1587.6 1204.95 1482.3 1357.94 1330 1436 1330 1436 1330 1436 1348.42 1266 1453.72 1113Z" fill="#D1D1D1" fill-rule="evenodd"/><path d="M485 1296C485 1296 464.059 1381.34 322.127 1447.62 180.195 1513.9 36.0001 1505.68 36.0001 1505.68L485 1296Z" fill="#737373" fill-rule="evenodd"/><path d="M381.137 1322.5C558.159 1266.17 596 1168.92 596 1168.92 596 1168.92 508.938 1111.4 331.916 1167.73 154.894 1224.05 36.0001 1347.1 36.0001 1347.1 36.0001 1347.1 204.115 1378.82 381.137 1322.5Z" fill="#D1D1D1" fill-rule="evenodd"/><path d="M240 642C240 642 154.661 621.106 88.381 479.49 22.1006 337.874 30.3251 194 30.3251 194L240 642Z" fill="#737373" fill-rule="evenodd"/><path d="M586.366 1001.7C608.415 1018.58 604.189 1061.13 576.929 1096.75 549.668 1132.36 509.695 1147.56 487.646 1130.68 465.598 1113.81 469.823 1071.25 497.084 1035.64 524.345 1000.02 564.318 984.827 586.366 1001.7Z" fill="#FFC000" fill-rule="evenodd"/><path d="M1704.71 1169.59C1732.2 1173.49 1749.37 1212.66 1743.06 1257.06 1736.74 1301.46 1709.35 1334.29 1681.86 1330.38 1654.37 1326.48 1637.2 1287.31 1643.51 1242.91 1649.82 1198.51 1677.22 1165.68 1704.71 1169.59Z" fill="#FFC000" fill-rule="evenodd"/><path d="M1703.9 734.347C1735.84 765.842 1745.92 807.399 1726.42 827.168 1706.93 846.937 1665.23 837.431 1633.3 805.936 1601.36 774.441 1591.28 732.884 1610.78 713.115 1630.27 693.346 1671.97 702.852 1703.9 734.347Z" fill="#FFC000" fill-rule="evenodd"/><path d="M1152.34 980.828C1169.02 1003.03 1153.46 1042.86 1117.6 1069.8 1081.74 1096.74 1039.15 1100.58 1022.47 1078.38 1005.79 1056.18 1021.35 1016.34 1057.21 989.405 1093.08 962.467 1135.67 958.627 1152.34 980.828Z" fill="#FFC000" fill-rule="evenodd"/><path d="M674.424 807.021C702.843 831.141 713.76 864.976 698.807 882.592 683.855 900.209 648.696 894.936 620.278 870.815 591.859 846.694 580.942 812.86 595.894 795.243 610.847 777.627 646.006 782.9 674.424 807.021Z" fill="#505050" fill-rule="evenodd"/><path d="M1038.34 733.01C1055.77 765.961 1053.33 801.43 1032.91 812.233 1012.48 823.035 981.796 805.079 964.37 772.128 946.944 739.177 949.376 703.708 969.802 692.905 990.228 682.103 1020.91 700.059 1038.34 733.01Z" fill="#505050" fill-rule="evenodd"/><path d="M1890.34 910.057C1878.08 910.07 1865.9 908.231 1854.19 904.578 1843.86 901.355 1831.6 897.325 1824.38 894.255 1781.04 875.9 1743.42 845.149 1715.1 807.687 1712.18 803.436 1705.74 808.221 1708.84 812.232 1741.71 858.187 1788.37 895.523 1842.04 913.904 1758.14 923.961 1672.69 927.04 1588.66 918.508 1516.9 908.384 1387.49 894.097 1337.29 888.65 1319.86 886.757 1303 881.16 1288.14 871.857 1259.91 854.186 1235.9 829.443 1213.48 804.518 1204.62 794.667 1200.42 781.603 1201.28 768.379 1212.91 588.798 943.311 339.436 852.83 309.93 852.83 309.93 873.385 479.83 980.575 631.617 1054.41 736.187 1129.64 773.571 1169.31 786.713 1184.89 791.877 1198.76 801.169 1209.33 813.736 1232.02 840.725 1256.53 867.24 1286.09 885.968 1230.92 884.677 1176.17 889.513 1121.55 896.222 1111.17 891.676 1100.87 885.677 1091.36 879.321 1064.86 861.328 1041.37 837.169 1028.76 807.38 1028.72 807.249 1025.36 799.132 1025.34 799.037 1024.44 796.74 1020.89 798.166 1021.75 800.432 1035.25 842.571 1067.59 876.099 1105.39 898.256 1044.97 906.04 984.672 915.572 924.125 921.038 883.979 923.907 843.742 925.851 803.46 927.081 794.939 926.316 786.318 924.908 778.022 923.154 746.731 916.294 715.949 902.59 693.179 879.613 693.094 879.505 686.961 873.219 686.906 873.136 685.213 871.339 682.447 873.982 684.084 875.766 705.08 901.167 734.006 918.243 765.296 928.02 734.375 928.605 703.432 928.803 672.485 928.589 617.901 921.742 547.576 890.74 470.72 846.209 425.07 810.059 389.449 761.116 369.275 706.498 381.392 691.343 435.573 613.052 412.829 449.11 387.293 265.05 286.154 127 286.154 127 286.154 127 226.415 287.37 251.951 471.433 275.172 638.816 351.241 698.446 364.838 707.877 380.539 752.559 406.307 793.71 439.474 827.596 161.441 657.583-183 335.623-183 335.623-183 335.623-118.333 494.072 25.1118 612.185 140.257 706.998 228.83 712.152 259.301 710.494 370.105 804.993 496.599 893.164 639.606 928.231 548.463 926.849 457.342 922.381 366.674 916.219 341.831 911.601 266.845 906.066 159.74 973.761 27.1949 1057.54-43.641 1183.38-43.641 1183.38-43.641 1183.38 100.421 1173.4 232.963 1089.62 344.437 1019.16 369.334 946.088 374.434 924.634 469.135 931.609 564.284 936.683 659.447 938.304 641.597 945.485 622.862 955.024 620.668 957.909 602.946 969.365 586.822 984.18 575.064 1001.76 574.633 1003.46 567.61 1010.28 570.601 1011.99 573.282 1014.28 577.155 1005.22 578.516 1004.19 604.683 968.815 646.869 947.439 689.307 938.753 689.322 938.735 689.335 938.719 689.351 938.701 708.823 938.882 728.295 938.931 747.76 938.797 721.208 1074.04 623.895 1199.55 537.63 1304.81L168.513 1748C168.513 1748 327.316 1684.23 446.236 1541.45 542.26 1426.16 547.414 1337.24 545.841 1307.27 634.62 1202.06 735.019 1074.98 762.112 938.632 816.518 938.029 870.877 936.162 925.105 932.653 954.279 930.237 983.383 926.862 1012.46 923.19 1008.55 947.426 1000.25 966.003 986.486 987.426 984.079 991.174 979.987 993.526 975.535 993.693 795.785 1000.46 587.15 1322.92 574.587 1415.33 667.514 1401.99 994.378 1194.29 989.841 1009.35 989.725 1004.59 991.169 999.933 994.007 996.119 1010.51 973.952 1022.13 948.158 1028.21 921.179 1098.39 912.107 1168.47 902.005 1239.07 900.074 1216.98 938.658 1180.95 968.705 1138.73 983.287 1136.81 983.96 1135.72 986.031 1136.29 988.011 1136.88 990.066 1139.03 991.275 1141.07 990.659 1216.03 968.063 1256.46 901.245 1256.46 901.245 1256.46 901.245 1287.06 899.912 1303.69 900.827 1313.72 901.146 1333.73 903.157 1333.7 903.588 1319.23 1022.41 1000.22 1400.6 937.885 1504.57 1021.36 1480.19 1307.53 1222.56 1281.27 1045.03 1280.43 1039.37 1281.67 1033.61 1284.88 1028.88 1308.2 994.48 1334.23 959.163 1344.39 918.908 1346.7 909.766 1355.3 903.676 1364.7 904.467 1435.11 910.4 1505.27 921.868 1574.9 933.158 1667.58 944.681 1761.19 941.782 1853.8 930.835 1822.36 966.807 1787.19 1003.12 1758.54 1042.73 1735.44 1066.59 1706.06 1084.32 1673.86 1093.12 1673.86 1093.12 1670.41 1094.68 1671.36 1098.03 1672.17 1100.92 1675.81 1100.61 1675.81 1100.61 1698.14 1095.29 1719.41 1085.79 1738.5 1073.01 1717.99 1107.34 1703.7 1144.45 1701.51 1186.04 1700.84 1191.05 1708.72 1191.84 1709.2 1186.94 1712.34 1160.81 1719.41 1135.31 1729.98 1111.45 1756.49 1051.92 1810.16 1002.72 1856.01 954.078 1871.44 937.706 1892.92 928.417 1915.42 928.437L2108 928.636 2108 909.75C2106.85 909.84 1945.15 910.005 1890.34 910.057Z" fill="#737373" fill-rule="evenodd"/><path d="M727.342 1271 724 1267.07C797.618 1204 937.775 1048.56 939.183 1047L943 1050.46C941.593 1052.02 801.209 1207.71 727.342 1271Z" fill="#505050" fill-rule="evenodd"/><path d="M350.935 643C350.654 640.808 322.784 422.774 314 334.516L319.083 334C327.86 422.188 355.719 640.15 356 642.343L350.935 643Z" fill="#505050" fill-rule="evenodd"/><path d="M136.995 1060 134 1055.8C197.006 1011 314.43 949.613 315.607 949L318 953.563C316.825 954.179 199.712 1015.41 136.995 1060Z" fill="#505050" fill-rule="evenodd"/><path d="M1676.08 1096.02C1691.55 1119.08 1673.89 1158.03 1636.64 1183.02 1599.39 1208 1556.65 1209.57 1541.19 1186.51 1525.72 1163.45 1543.38 1124.5 1580.63 1099.51 1617.87 1074.53 1660.61 1072.96 1676.08 1096.02Z" fill="#505050" fill-rule="evenodd"/><path d="M365 317C368.801 407.365 548.785 749.147 725.759 765.237 732.917 765.888 739.616 768.939 744.627 774.096 774.198 804.511 813.934 824.761 855.868 831.271 856.332 827.78 854.887 839.094 856.914 823.447 858.917 807.798 857.45 819.107 857.885 815.611 818.77 811.662 781.113 794.874 752.016 768.408 747.079 763.918 744.676 757.331 745.258 750.682 760.957 570.767 453.01 336.441 365 317Z" fill="#D1D1D1" fill-rule="evenodd"/><path d="M915.962 625.661C973.874 802.367 917.104 890 917.104 890 917.104 890 819.471 852.952 761.556 676.247 703.644 499.541 733.899 331 733.899 331 733.899 331 858.049 448.955 915.962 625.661Z" fill="#D1D1D1" fill-rule="evenodd"/><path d="M693.325 711C692.176 709.843 577.401 594.137 503 493.056L507.172 490C581.34 590.769 695.851 706.211 697 707.365L693.325 711Z" fill="#E6E6E6" fill-rule="evenodd"/><path d="M893.062 820C892.443 817.833 830.829 602.212 807 514.352L811.957 513C835.775 600.826 897.381 816.413 898 818.578L893.062 820Z" fill="#E6E6E6" fill-rule="evenodd"/></g></svg>