<svg width="1259" height="1389" xmlns="http://www.w3.org/2000/svg" xmlns:xlink="http://www.w3.org/1999/xlink" overflow="hidden"><defs><clipPath id="clip0"><rect x="1569" y="545" width="1259" height="1389"/></clipPath></defs><g clip-path="url(#clip0)" transform="translate(-1569 -545)"><path d="M2827.94 1929.82C2825.57 1847.95 2734.83 1787.34 2657.2 1797.11L2577.97 1516 2523 1516.29C2523 1516.29 2550.37 1838.38 2552.72 1843.73 2562.55 1866.07 2592.29 1922.8 2640.86 1922.8L2768.12 1934 2828 1934C2828 1932.6 2827.98 1931.21 2827.94 1929.82Z" fill="#737373" fill-rule="evenodd"/><path d="M2219 1841.66C2222.63 1889.97 2263.03 1928.05 2312.35 1928.05L2440.98 1934 2496 1934C2496 1932.6 2495.98 1931.21 2495.94 1929.83 2493.55 1847.32 2418.19 1789.15 2340.03 1800.39L2258.84 1800.39 2219 1841.66Z" fill="#737373" fill-rule="evenodd"/><path d="M2396.58 1052 2373.23 1074.07C2279.75 1155.78 2206.46 1249.13 2148.32 1351.28 2143.62 1359.53 2139.02 1367.84 2134.52 1376.21 2104.27 1432.43 2078.36 1491.18 2056 1552 2123.66 1541.68 2158.36 1473.65 2161.41 1402.94 2179.18 1407.51 2201.93 1409.12 2221.12 1409.12 2344.08 1409.12 2449 1297.95 2449 1174.91 2449 1133.77 2439.39 1063.64 2396.58 1052Z" fill="#505050" fill-rule="evenodd"/><path d="M2170 1776.75C2170 1700.94 2117.71 1618.54 2035.82 1611 2015.33 1673.93 1998.24 1738.86 1983.67 1805.28L1921.8 1805.28C1841.9 1805.28 1763.01 1787.39 1690.93 1752.94L1588.33 1703.9C1574.71 1697.39 1562.37 1714.83 1573.04 1725.5L1604.94 1757.4C1699.86 1852.29 1827.61 1907.84 1961.25 1913.61L2096.43 1914C2139.73 1893.68 2170 1820.91 2170 1776.75Z" fill="#505050" fill-rule="evenodd"/><path d="M2575.94 546.008C2570.13 545.311 2564.21 545 2558.22 545L2538.4 545C2491.97 545 2450.53 574.048 2434.8 617.616L2434.8 617.616C2428.73 634.445 2419.23 649.34 2407.27 661.641 2384.48 685.073 2352.72 699.087 2318.56 699.087L2274.45 699.087 2271.18 699.087C2258.06 700.891 2230.71 708.61 2223.23 720.445 2215.16 733.215 2210.07 747.204 2217.89 768.508 2234.7 795.202 2257.82 816.905 2284.78 832.028 2283.62 833.536 2282.99 835.116 2282.99 836.742 2282.99 847.399 2309.56 856.039 2342.33 856.039L2376.69 856.039C2416.75 856.052 2445.88 888.134 2445.53 928.081L2445.53 1004C2504.19 984.727 2548.59 926.015 2553.73 859.386 2555.28 839.317 2554.45 797.746 2542.38 772.421 2563.2 765.261 2577.49 758.28 2595.01 745.663 2642.41 711.535 2633.76 651.987 2643 591.801 2619.93 571.928 2581.24 546.644 2575.94 546.008Z" fill="#737373" fill-rule="evenodd"/><path d="M2583 1130.81C2583 1175.23 2609.37 1253.84 2660.63 1240.5L2714 1006.26 2714 1001.04C2641.44 985.124 2583 1065.69 2583 1130.81Z" fill="#737373" fill-rule="evenodd"/><path d="M2533 1544.23C2533 1566.78 2554.05 1591.17 2588.72 1591 2591.57 1590.99 2597.69 1587.9 2600.51 1585.03L2601 1504.74C2598.21 1502.27 2593.29 1499.02 2590.27 1499 2556.29 1498.83 2533 1521.68 2533 1544.23Z" fill="#505050" fill-rule="evenodd"/><path d="M2768.43 1921.48C2762.63 1858.9 2715.02 1811.81 2657.47 1801.07 2639.13 1796.58 2619.73 1795.35 2600.25 1798.13L2600.25 1585.48C2600.25 1585.48 2600.25 1585.31 2600.26 1585.05L2600.25 1585.22C2597.55 1585.63 2594.78 1585.89 2591.94 1585.89 2565.86 1585.89 2544.71 1567.61 2544.71 1545.07 2544.71 1522.52 2565.86 1504.24 2591.95 1504.24 2594.96 1504.24 2597.89 1504.51 2600.74 1504.98L2660.73 1240.63C2627.37 1216.24 2605.68 1176.82 2605.68 1132.32 2605.68 1067.09 2652.24 1012.76 2713.91 1000.73L2713.91 924.192 2695.88 902.875 2699.83 699.853C2699.83 652.961 2676.12 619.581 2643.05 591 2633.85 651.205 2617.31 694.74 2570.11 728.948 2552.54 741.683 2533.03 751.918 2512.12 759.13 2524.18 784.511 2530.95 812.899 2530.95 842.873 2530.95 909.845 2497.25 968.923 2445.91 1004.11L2445.91 1005.68 2397.22 1051.7C2416.51 1084.54 2427.69 1122.73 2427.87 1163.54 2428.42 1285.78 2328.89 1386.65 2206.72 1387.6 2186.89 1387.75 2167.65 1385.31 2149.32 1380.59 2146.27 1451.38 2110.25 1513.58 2056.24 1552.27 2049.15 1571.56 2042.4 1591.05 2036 1610.73 2093.73 1651.04 2131.53 1717.95 2131.53 1793.73 2131.53 1837.88 2118.66 1879 2096.53 1913.64L2198.62 1912.97C2214.72 1926.11 2235.26 1934 2257.66 1934L2440.76 1934C2440.76 1932.6 2440.73 1931.21 2440.7 1929.82 2438.62 1857.95 2381.41 1804.54 2315.17 1799.19 2315.15 1799.19 2315.14 1799.15 2315.17 1799.15 2394.06 1783.65 2454.08 1715.59 2457.33 1632.91 2469.43 1643.82 2477.51 1658.51 2478.97 1676.6L2493.33 1853.93C2499.92 1899.21 2538.83 1934 2585.91 1934L2769 1934C2769 1929.96 2768.83 1925.79 2768.43 1921.48Z" fill="#D2D2D2" fill-rule="evenodd"/><path d="M2278 1801.37C2278.02 1799.98 2279.15 1798.87 2280.55 1798.85 2375.98 1797.52 2454.72 1720.71 2454.84 1625.16 2454.89 1578.21 2436.59 1534.35 2403.25 1501.4 2402.25 1500.41 2402.21 1498.81 2403.19 1497.8L2403.19 1497.8C2404.19 1496.76 2405.86 1496.73 2406.89 1497.74 2441.21 1531.67 2460.06 1576.82 2460 1625.16 2459.88 1723.53 2378.85 1802.59 2280.62 1804 2279.17 1804.02 2277.98 1802.82 2278 1801.37L2278 1801.37Z" fill="#E6E6E6" fill-rule="evenodd"/><path d="M2309.68 1833C2308.22 1832.94 2307 1834.13 2307 1835.59 2307 1836.97 2308.1 1838.08 2309.49 1838.14 2360.95 1840.34 2402.19 1882.38 2402.84 1934L2408 1934C2407.35 1879.61 2363.9 1835.31 2309.68 1833Z" fill="#737373" fill-rule="evenodd"/><path d="M2309.73 1861.01C2308.26 1860.9 2307 1862.1 2307 1863.58 2307 1864.92 2308.06 1866.01 2309.41 1866.11 2345.01 1868.75 2373.23 1898.09 2373.86 1934L2379 1934C2378.37 1895.37 2348.02 1863.82 2309.73 1861.01Z" fill="#737373" fill-rule="evenodd"/><path d="M2632.68 1833C2631.22 1832.94 2630 1834.13 2630 1835.59 2630 1836.97 2631.1 1838.08 2632.49 1838.14 2683.95 1840.34 2725.19 1882.38 2725.84 1934L2731 1934C2730.35 1879.61 2686.9 1835.31 2632.68 1833Z" fill="#737373" fill-rule="evenodd"/><path d="M2632.73 1861.01C2631.26 1860.9 2630 1862.1 2630 1863.58 2630 1864.92 2631.06 1866.01 2632.41 1866.11 2668.01 1868.75 2696.22 1898.09 2696.86 1934L2702 1934C2701.37 1895.37 2671.02 1863.82 2632.73 1861.01Z" fill="#737373" fill-rule="evenodd"/><path d="M2574 1091C2590.57 1091 2604 1075.33 2604 1056 2604 1036.67 2590.57 1021 2574 1021 2557.43 1021 2544 1036.67 2544 1056 2544 1075.33 2557.43 1091 2574 1091Z" fill="#505050" fill-rule="evenodd"/><path d="M2460.42 1214.1C2451.57 1222.67 2450.48 1235.61 2457.98 1243.01 2465.48 1250.41 2478.73 1249.47 2487.58 1240.9 2496.43 1232.33 2497.52 1219.39 2490.02 1211.99 2482.52 1204.59 2469.27 1205.53 2460.42 1214.1Z" fill="#505050" fill-rule="evenodd"/><path d="M2570.46 1229.48C2578.63 1223.05 2579.23 1210.02 2571.79 1200.36 2564.36 1190.71 2551.71 1188.1 2543.54 1194.52 2535.37 1200.95 2534.77 1213.98 2542.21 1223.64 2549.64 1233.29 2562.29 1235.91 2570.46 1229.48Z" fill="#505050" fill-rule="evenodd"/><path d="M2565.91 1288.9C2554.17 1300.63 2555.67 1321.16 2569.26 1334.74 2582.84 1348.33 2603.36 1349.83 2615.09 1338.1 2626.83 1326.36 2625.33 1305.84 2611.74 1292.26 2598.16 1278.67 2577.64 1277.17 2565.91 1288.9Z" fill="#505050" fill-rule="evenodd"/><path d="M2444 954 2714 954 2714 1006 2444 1006Z" fill="#FFC000" fill-rule="evenodd"/><path d="M2337 781C2337 786.523 2332.52 791 2327 791 2321.48 791 2317 786.523 2317 781 2317 775.477 2321.48 771 2327 771 2332.52 771 2337 775.477 2337 781Z" fill="#2F2F2F" fill-rule="evenodd"/><path d="M2322 748.5C2322 754.299 2317.52 759 2312 759 2306.48 759 2302 754.299 2302 748.5 2302 742.701 2306.48 738 2312 738 2317.52 738 2322 742.701 2322 748.5Z" fill="#2F2F2F" fill-rule="evenodd"/><path d="M2296 781C2296 786.523 2291.52 791 2286 791 2280.48 791 2276 786.523 2276 781 2276 775.477 2280.48 771 2286 771 2291.52 771 2296 775.477 2296 781Z" fill="#2F2F2F" fill-rule="evenodd"/><path d="M2205.81 744.365C2196.32 723.014 2212.03 699 2235.49 699L2271.51 699C2272.48 703.109 2273 707.385 2273 711.787 2273 742.201 2248.75 766.962 2218.44 768 2213.72 760.504 2209.48 752.618 2205.81 744.365L2205.81 744.365Z" fill="#2F2F2F" fill-rule="evenodd"/><path d="M2495 687.5C2495 706.002 2480 721 2461.5 721 2443 721 2428 706.002 2428 687.5 2428 668.999 2443 654 2461.5 654 2480 654 2495 668.999 2495 687.5Z" fill="#FFFFFF" fill-rule="evenodd"/><path d="M2428 687.913C2428 689.807 2428.19 691.654 2428.48 693.462 2432.92 696.923 2438.44 699 2444.44 699 2459.11 699 2471 686.737 2471 671.609 2471 665.04 2468.75 659.017 2465.02 654.297 2463.66 654.123 2462.29 654 2460.88 654 2442.72 654 2428 669.183 2428 687.913Z" fill="#2F2F2F" fill-rule="evenodd"/><path d="M2565 654.939C2565 616.363 2568.95 578.319 2575.62 545 2653.52 553.174 2714 620.361 2714 700.408L2714 926.25C2707.13 928.703 2700.08 930 2692.89 930 2622.26 930 2565 806.853 2565 654.939Z" fill="#2F2F2F" fill-rule="evenodd"/><path d="M2290.55 830.542C2308.08 832.18 2325.87 832.508 2343.47 831.867 2361.08 831.168 2378.63 829.373 2395.68 825.855 2404.18 824.052 2412.59 821.916 2420.69 819.11 2428.77 816.28 2436.58 812.891 2443.84 808.786 2458.37 800.595 2470.14 788.836 2476.3 774.602L2476.32 774.56C2478.34 769.886 2483.77 767.74 2488.44 769.76 2493.11 771.783 2495.26 777.206 2493.24 781.881 2493.16 782.067 2493.06 782.268 2492.97 782.447 2488.35 791.409 2482.06 799.402 2474.79 805.987 2467.5 812.563 2459.36 817.932 2450.81 822.009 2433.73 830.253 2415.64 834.632 2397.63 837.164 2379.58 839.673 2361.49 840.322 2343.52 839.864 2325.53 839.344 2307.69 837.857 2289.91 835.02 2288.67 834.823 2287.83 833.664 2288.03 832.43 2288.22 831.248 2289.29 830.429 2290.46 830.537L2290.55 830.542Z" fill="#2F2F2F" fill-rule="evenodd"/></g></svg>