<svg width="1999" height="1341" xmlns="http://www.w3.org/2000/svg" xmlns:xlink="http://www.w3.org/1999/xlink" overflow="hidden"><defs><clipPath id="clip0"><rect x="72" y="321" width="1999" height="1341"/></clipPath></defs><g clip-path="url(#clip0)" transform="translate(-72 -321)"><path d="M675.98 1651 739 1287C665.43 1304.5 593.795 1317.89 525 1327.17L675.98 1651Z" fill="#E5E5E5" fill-rule="evenodd"/><path d="M301.573 1662 422 1338C345.028 1343.98 272.555 1344.4 206 1339.28L301.573 1662Z" fill="#FFC000" fill-rule="evenodd"/><path d="M1057.85 1563 1059 1189C989.223 1215.14 920.013 1237.92 852 1257.38L1057.85 1563Z" fill="#FFC000" fill-rule="evenodd"/><path d="M1425 1413 1364.32 1053C1301.89 1085.59 1236.3 1116.6 1168 1145.57L1425 1413Z" fill="#D1D1D1" fill-rule="evenodd"/><path d="M1762 1214 1649.82 878C1593.55 918.741 1532.39 958.471 1467 996.557L1762 1214Z" fill="#737373" fill-rule="evenodd"/><path d="M1889.11 667C1844.49 716.591 1791.79 766.25 1732 814.969L2042 967 1889.11 667Z" fill="#FFC000" fill-rule="evenodd"/><path d="M301.271 1344C228.876 1344 161.287 1338.33 100 1326.73L100.48 1324.2C362.607 1373.8 740.975 1314.84 1112.62 1166.5 1484.26 1018.16 1799.14 800.399 1954.9 584L1957 585.505C1800.95 802.288 1485.66 1020.37 1113.58 1168.89 828.338 1282.75 539.055 1344 301.271 1344Z" fill="#D1D1D1" fill-rule="evenodd"/><path d="M1269.75 895 1347 538C1276.82 545.09 1204.3 549.546 1130 551.088L1269.75 895Z" fill="#D1D1D1" fill-rule="evenodd"/><path d="M134 709 366 452.871C292.331 429.896 224.903 403.419 165.018 374L134 709Z" fill="#D1D1D1" fill-rule="evenodd"/><path d="M486.466 838 680 523.338C605.061 512.215 533.449 497.987 466 481L486.466 838Z" fill="#FFC000" fill-rule="evenodd"/><path d="M873.26 897 1013 551.067C938.705 549.528 866.181 545.079 796 538L873.26 897Z" fill="#737373" fill-rule="evenodd"/><path d="M1656.54 836 1677 481C1609.55 498.014 1537.94 512.266 1463 523.407L1656.54 836Z" fill="#FFC000" fill-rule="evenodd"/><path d="M1977.98 374C1918.1 403.419 1850.67 429.896 1777 452.871L2009 709 1977.98 374Z" fill="#FFC000" fill-rule="evenodd"/><path d="M1071.5 553C670.968 553 297.321 467.085 71.9998 323.181L73.3839 321C298.308 464.653 671.437 550.416 1071.5 550.416 1471.57 550.416 1844.69 464.653 2069.62 321L2071 323.181C1845.68 467.085 1472.03 553 1071.5 553Z" fill="#D1D1D1" fill-rule="evenodd"/></g></svg>