<svg width="949" height="693" xmlns="http://www.w3.org/2000/svg" xmlns:xlink="http://www.w3.org/1999/xlink" overflow="hidden"><defs><clipPath id="clip0"><rect x="251" y="410" width="949" height="693"/></clipPath></defs><g clip-path="url(#clip0)" transform="translate(-251 -410)"><path d="M251 930 354 930 354 933 251 933Z" fill="#737373" fill-rule="evenodd"/><path d="M251 724 354 724 354 727 251 727Z" fill="#737373" fill-rule="evenodd"/><path d="M251 620 354 620 354 624 251 624Z" fill="#737373" fill-rule="evenodd"/><path d="M251 827 354 827 354 831 251 831Z" fill="#737373" fill-rule="evenodd"/><path d="M767 1033 973 1033 973 1036 767 1036Z" fill="#737373" fill-rule="evenodd"/><path d="M767 930 973 930 973 933 767 933Z" fill="#737373" fill-rule="evenodd"/><path d="M767 724 973 724 973 727 767 727Z" fill="#737373" fill-rule="evenodd"/><path d="M767 620 973 620 973 624 767 624Z" fill="#737373" fill-rule="evenodd"/><path d="M767 827 973 827 973 831 767 831Z" fill="#737373" fill-rule="evenodd"/><path d="M1080 1033 1183 1033 1183 1036 1080 1036Z" fill="#737373" fill-rule="evenodd"/><path d="M1080 930 1183 930 1183 933 1080 933Z" fill="#737373" fill-rule="evenodd"/><path d="M1080 724 1183 724 1183 727 1080 727Z" fill="#737373" fill-rule="evenodd"/><path d="M1080 827 1183 827 1183 831 1080 831Z" fill="#737373" fill-rule="evenodd"/><path d="M458 1033 561 1033 561 1036 458 1036Z" fill="#737373" fill-rule="evenodd"/><path d="M458 930 561 930 561 933 458 933Z" fill="#737373" fill-rule="evenodd"/><path d="M458 724 664 724 664 727 458 727Z" fill="#737373" fill-rule="evenodd"/><path d="M458 827 664 827 664 831 458 831Z" fill="#737373" fill-rule="evenodd"/><path d="M416.663 620.555 416.502 1004.09C416.502 1004.13 416.457 1004.14 416.44 1004.1 405.275 981.454 382.045 965.804 355.081 965.683 318.822 965.522 288.014 994.465 286.099 1030.61 284.004 1070.23 315.552 1103 354.771 1103 392.752 1103 423.54 1072.26 423.54 1034.34 423.54 1033.18 423.423 1032.06 423.368 1030.92L423.502 720.954 726.123 525.061 726.123 901.433C726.123 901.467 726.079 901.477 726.061 901.446 714.982 878.659 691.718 862.868 664.682 862.696 628.372 862.463 597.477 891.423 595.562 927.626 593.464 967.238 625.012 1000.01 664.231 1000.01 701.05 1000.01 731.023 971.101 732.828 934.787L733 934.787 733 410 416.663 620.555Z" fill="#FFC000" fill-rule="evenodd"/><path d="M1075.5 553.007C1037.75 553.547 1008 585.749 1008 623.668L1008 983 1014.85 983 1014.85 651.78C1014.85 651.746 1014.89 651.735 1014.91 651.766 1026.53 675.805 1051.59 692.073 1080.33 690.494 1114.21 688.636 1142.12 661.34 1144.78 627.363 1147.98 586.52 1115.63 552.436 1075.5 553.007Z" fill="#FFC000" fill-rule="evenodd"/><path d="M1200 622C1200 631.389 1192.39 639 1183 639 1173.61 639 1166 631.389 1166 622 1166 612.611 1173.61 605 1183 605 1192.39 605 1200 612.611 1200 622Z" fill="#FFC000" fill-rule="evenodd"/></g></svg>