<svg width="1900" height="1302" xmlns="http://www.w3.org/2000/svg" xmlns:xlink="http://www.w3.org/1999/xlink" overflow="hidden"><defs><clipPath id="clip0"><rect x="-97" y="169" width="1900" height="1302"/></clipPath></defs><g clip-path="url(#clip0)" transform="translate(97 -169)"><path d="M756.174 242.761C756.174 242.761 774.659 268.347 759.288 299.851 755.46 307.693 750.955 315.16 746.085 321.959 746.066 321.985 746.098 322.013 746.121 321.995 764.613 306.349 783.478 282.007 796.836 254.634 819.895 207.377 792.167 169 792.167 169 792.167 169 727.057 207.238 703.997 254.495 690.634 281.881 685.735 306.256 688.955 321.933 688.96 321.959 688.999 321.961 689.006 321.933 690.771 315.114 693.561 307.621 697.399 299.758 712.767 268.252 756.174 242.761 756.174 242.761Z" fill="#FFC000" fill-rule="evenodd"/><path d="M863.284 550.777 726.601 364.355 726.601 326.735C726.601 322.463 723.139 319 718.868 319 714.597 319 711.135 322.463 711.135 326.735L711.135 363.896 568.42 550.081C550.639 573.281 541 601.699 541 630.932L541 1239.8C541 1263.11 559.89 1282 583.193 1282L846.807 1282C870.11 1282 889 1263.11 889 1239.8L889 629.357C889.002 601.096 879.993 573.567 863.284 550.777Z" fill="#FFC000" fill-rule="evenodd"/><path d="M1154.6 242.761C1154.6 242.761 1172.92 268.347 1157.68 299.851 1153.89 307.693 1149.42 315.16 1144.59 321.959 1144.57 321.985 1144.61 322.013 1144.63 321.995 1162.96 306.349 1181.67 282.007 1194.91 254.634 1217.78 207.377 1190.28 169 1190.28 169 1190.28 169 1125.73 207.238 1102.86 254.495 1089.61 281.881 1084.75 306.256 1087.95 321.933 1087.95 321.959 1087.99 321.961 1088 321.933 1089.75 315.114 1092.51 307.621 1096.32 299.758 1111.56 268.252 1154.6 242.761 1154.6 242.761Z" fill="#FFC000" fill-rule="evenodd"/><path d="M1262.28 550.777 1125.6 364.355 1125.6 326.735C1125.6 322.463 1122.14 319 1117.87 319 1113.6 319 1110.13 322.463 1110.13 326.735L1110.13 363.896 967.42 550.081C949.639 573.281 940 601.699 940 630.932L940 1239.8C940 1263.11 958.89 1282 982.194 1282L1245.81 1282C1269.11 1282 1288 1263.11 1288 1239.8L1288 629.357C1288 601.096 1278.99 573.567 1262.28 550.777Z" fill="#FFC000" fill-rule="evenodd"/><path d="M719.566 1276.64C717.707 1273.4 713.907 1271.78 710.194 1272.23L710.151 1272.23C681.765 1275.67 653.227 1277.92 624.635 1279.07 613.121 1262.08 585.671 1241.2 537.672 1217.81 461.263 1180.57 382.548 1184.61 382.548 1184.61 382.548 1184.61 420.128 1238.14 484.668 1275.82 484.691 1275.83 484.68 1275.86 484.652 1275.86 449.664 1272.88 414.791 1268.35 380.166 1262.32 371.73 1260.84 363.315 1259.25 354.913 1257.6 346.99 1238.56 325.171 1212.54 285 1179.77 219.161 1126.06 141.609 1112 141.609 1112 141.609 1112 165.478 1171.66 218.686 1222.8 218.707 1222.81 218.686 1222.85 218.66 1222.84 192.379 1214.6 166.385 1205.43 140.683 1195.5 137.043 1194.08 133.395 1192.62 129.754 1191.19 102.707 1178.07 75.1506 1165.94 47.1184 1154.89-33.5817 1158.77-96.9999 1195.18-96.9999 1195.18-96.9999 1195.18-27.4301 1232.16 57.5881 1230.78 105.806 1230 137.953 1223.97 156.74 1215.08 175.968 1222.41 195.364 1229.31 214.938 1235.7 265.3 1252.17 316.688 1265.61 368.76 1275.74 368.781 1275.75 368.788 1275.77 368.773 1275.79 362.428 1281.47 355.789 1287.72 348.831 1294.63 288.527 1354.47 266.527 1430.03 266.527 1430.03 266.527 1430.03 342.295 1408.56 402.599 1348.72 426.122 1325.38 442.452 1305.51 452.765 1289.05 483.144 1292.78 513.667 1295.4 544.27 1296.76 561.232 1297.49 578.217 1297.8 595.202 1297.77 595.223 1297.77 595.236 1297.8 595.223 1297.81 590.34 1304.82 585.292 1312.48 580.071 1320.85 535.35 1392.55 529.891 1471 529.891 1471 529.891 1471 596.94 1433.2 641.664 1361.5 658.326 1334.78 669.434 1312.63 675.967 1294.72 688.117 1293.82 700.258 1292.74 712.378 1291.42 712.399 1291.42 712.471 1291.41 712.492 1291.41 719.125 1290.59 723.369 1283.27 719.566 1276.64Z" fill="#737373" fill-rule="evenodd"/><path d="M328.848 1371C327.898 1371 326.946 1370.64 326.201 1369.93 324.659 1368.45 324.592 1365.97 326.055 1364.41L395.355 1290.22C396.815 1288.65 399.251 1288.59 400.798 1290.07 402.341 1291.55 402.408 1294.03 400.945 1295.59L331.645 1369.78C330.886 1370.59 329.869 1371 328.848 1371Z" fill="#505050" fill-rule="evenodd"/><path d="M286.136 1231C285.585 1231 285.027 1230.88 284.494 1230.63 281.78 1229.35 217.618 1198.82 178.895 1152.34 177.53 1150.7 177.751 1148.26 179.389 1146.9 181.032 1145.53 183.465 1145.75 184.829 1147.39 222.466 1192.57 287.133 1223.33 287.781 1223.64 289.713 1224.55 290.539 1226.85 289.633 1228.78 288.976 1230.18 287.586 1231 286.136 1231Z" fill="#505050" fill-rule="evenodd"/><path d="M73.1366 1193-4.13612 1193C-6.27173 1193-7.9999 1191.21-7.9999 1189-7.9999 1186.79-6.27173 1185-4.13612 1185L73.1366 1185C75.2718 1185 77.0004 1186.79 77.0004 1189 77.0004 1191.21 75.2718 1193 73.1366 1193Z" fill="#505050" fill-rule="evenodd"/><path d="M599.815 1363C599.181 1363 598.54 1362.84 597.947 1362.5 596.109 1361.45 595.457 1359.08 596.491 1357.21L630.855 1294.98C631.886 1293.11 634.213 1292.45 636.053 1293.5 637.891 1294.55 638.543 1296.93 637.509 1298.8L603.145 1361.02C602.445 1362.29 601.149 1363 599.815 1363Z" fill="#505050" fill-rule="evenodd"/><path d="M1658.86 1149.24C1625.15 1162.56 1592.11 1177.42 1559.84 1193.73 1505.1 1215.02 1449.29 1232.08 1392.63 1244.87 1392.6 1244.88 1392.59 1244.85 1392.61 1244.83 1451.71 1192.06 1478.11 1126 1478.11 1126 1478.11 1126 1400.55 1140.09 1334.7 1193.93 1298.57 1223.47 1277.25 1247.56 1267.56 1265.99 1244.8 1268.57 1221.93 1270.49 1198.97 1271.73 1198.94 1271.74 1198.93 1271.7 1198.96 1271.69 1244.42 1244.07 1270.1 1204.22 1270.1 1204.22 1270.1 1204.22 1216.31 1203.55 1165.17 1231.03 1132.34 1248.67 1114.08 1263.95 1107 1275.99 1105.32 1277.59 1104.21 1279.79 1104.03 1282.25 1103.61 1287.86 1108.42 1292.57 1114.04 1292.66 1120.96 1292.78 1127.87 1292.84 1134.78 1292.84 1175.17 1292.84 1215.32 1290.8 1255.16 1286.78 1265.54 1302.67 1281.27 1321.55 1303.35 1343.51 1363.66 1403.49 1439.43 1425 1439.43 1425 1439.43 1425 1417.43 1349.27 1357.12 1289.29 1351.91 1284.1 1346.88 1279.3 1342.01 1274.8 1341.99 1274.79 1342 1274.76 1342.02 1274.76 1416.38 1261.64 1489.44 1241.39 1560.73 1214.12 1580.17 1220.5 1608.91 1224.66 1648.39 1225.3 1733.42 1226.68 1803 1189.62 1803 1189.62 1803 1189.62 1739.57 1153.12 1658.86 1149.24Z" fill="#737373" fill-rule="evenodd"/><path d="M1337.89 1251C1337.03 1251 1336.16 1250.72 1335.44 1250.13 1333.77 1248.78 1333.52 1246.34 1334.87 1244.68 1336.96 1242.12 1386.49 1181.77 1433.37 1158.41 1435.3 1157.46 1437.63 1158.23 1438.59 1160.14 1439.55 1162.05 1438.77 1164.38 1436.85 1165.34 1391.48 1187.94 1341.41 1248.95 1340.91 1249.57 1340.14 1250.51 1339.02 1251 1337.89 1251Z" fill="#505050" fill-rule="evenodd"/><path d="M1725.11 1189 1627.89 1189C1625.74 1189 1624 1187.21 1624 1185 1624 1182.79 1625.74 1181 1627.89 1181L1725.11 1181C1727.26 1181 1729 1182.79 1729 1185 1729 1187.21 1727.26 1189 1725.11 1189Z" fill="#505050" fill-rule="evenodd"/><path d="M523 1173C523 1182.39 515.389 1190 506 1190 496.611 1190 489 1182.39 489 1173 489 1163.61 496.611 1156 506 1156 515.389 1156 523 1163.61 523 1173Z" fill="#FFC000" fill-rule="evenodd"/><path d="M476.263 1038.69C460.563 1022.94 433.908 1024.02 433.908 1024.02 433.908 1024.02 433.566 1031.68 435.669 1041.22 426.136 1039.07 418.464 1039.38 418.464 1039.38 418.464 1039.38 418.123 1047.04 420.226 1056.58 410.693 1054.44 403.021 1054.74 403.021 1054.74 403.021 1054.74 401.824 1081.37 417.524 1097.13 433.224 1112.89 452.188 1119.46 459.88 1111.81 462.738 1108.96 472.466 1099.29 475.321 1096.44 478.178 1093.6 487.907 1083.92 490.762 1081.08 498.459 1073.43 491.966 1054.45 476.263 1038.69Z" fill="#FFC000" fill-rule="evenodd"/><path d="M521.977 1132.97C506.602 1133.54 493.086 1125.88 483.776 1117.62 474.8 1109.66 463.003 1092.97 456.853 1076.17 448.523 1052.4 450.708 1029.27 465.024 1015 466.488 1013.54 468.045 1012.21 469.684 1011 479.475 1016.42 489.054 1023.59 497.828 1032.41 530.222 1064.98 540.17 1108.42 521.977 1132.97Z" fill="#505050" fill-rule="evenodd"/><path d="M556.863 1170.39 521.171 1134.8C521.629 1134.25 522.09 1133.7 522.517 1133.12 517.098 1123.24 509.91 1113.57 501.052 1104.7 487.479 1091.1 472.004 1081.41 456.769 1076 432.842 1067.51 409.505 1069.61 395.052 1083.96 393.574 1085.43 392.225 1086.99 391 1088.63 396.419 1098.51 403.607 1108.19 412.465 1117.06 445.169 1149.82 488.927 1160.02 513.763 1141.82 514.423 1141.33 515.06 1140.81 515.694 1140.29L544.701 1169.21C544.717 1169.23 544.706 1169.25 544.683 1169.25L511.394 1169.25C509.247 1169.25 507.51 1170.99 507.51 1173.13 507.51 1175.27 509.247 1177 511.394 1177L554.116 1177C555.688 1177 557.104 1176.06 557.705 1174.61 558.305 1173.16 557.974 1171.49 556.863 1170.39Z" fill="#737373" fill-rule="evenodd"/><path d="M1266 1176.5C1266 1185.61 1258.39 1193 1249 1193 1239.61 1193 1232 1185.61 1232 1176.5 1232 1167.39 1239.61 1160 1249 1160 1258.39 1160 1266 1167.39 1266 1176.5Z" fill="#FFC000" fill-rule="evenodd"/><path d="M1349.98 1055.91C1349.98 1055.91 1342.32 1055.57 1332.78 1057.67 1334.93 1048.14 1334.62 1040.46 1334.62 1040.46 1334.62 1040.46 1326.96 1040.12 1317.42 1042.23 1319.56 1032.69 1319.26 1025.02 1319.26 1025.02 1319.26 1025.02 1292.63 1023.82 1276.87 1039.52 1261.11 1055.23 1254.54 1074.19 1262.19 1081.88 1265.04 1084.74 1290.08 1109.91 1292.92 1112.77 1300.57 1120.46 1319.55 1113.96 1335.31 1098.26 1351.06 1082.56 1349.98 1055.91 1349.98 1055.91Z" fill="#FFC000" fill-rule="evenodd"/><path d="M1240.56 1143.98C1234.83 1130.75 1246.08 1115.16 1254.94 1106.39 1268.51 1092.94 1284.32 1083.31 1297.58 1078.85 1321.44 1070.52 1344.66 1072.71 1358.99 1087.02 1360.45 1088.49 1361.79 1090.04 1363 1091.68 1357.56 1101.47 1350.37 1111.05 1341.51 1119.83 1308.81 1152.22 1265.2 1162.17 1240.56 1143.98Z" fill="#505050" fill-rule="evenodd"/><path d="M1290.06 1017.03C1288.59 1015.56 1287.03 1014.22 1285.39 1013 1275.52 1018.39 1265.86 1025.55 1257 1034.36 1224.28 1066.91 1214.09 1110.45 1232.27 1135.16 1233.4 1136.7 1234.66 1138.16 1236.01 1139.55L1202.13 1173.4C1201.03 1174.51 1200.69 1176.17 1201.3 1177.61 1201.9 1179.06 1203.3 1180 1204.87 1180L1239.68 1180C1241.82 1180 1243.55 1178.27 1243.55 1176.14 1243.55 1174 1241.82 1172.27 1239.68 1172.27L1214.27 1172.27C1214.25 1172.27 1214.23 1172.24 1214.25 1172.23L1244.85 1141.65C1253.36 1136.57 1261.66 1130.17 1269.35 1122.52 1282.93 1109.01 1292.6 1093.61 1298 1078.45 1306.48 1054.64 1304.39 1031.41 1290.06 1017.03Z" fill="#737373" fill-rule="evenodd"/><path d="M556.865 1043.38 547.031 1033.55 547.031 979.044C547.031 976.902 545.295 975.163 543.15 975.163 541.005 975.163 539.269 976.902 539.269 979.044L539.269 1025.78 482.625 969.137C481.108 967.621 478.653 967.621 477.137 969.137 475.621 970.653 475.621 973.109 477.137 974.625L551.377 1048.86C552.135 1049.62 553.129 1050 554.122 1050 555.116 1050 556.109 1049.62 556.867 1048.86 558.378 1047.35 558.378 1044.9 556.865 1043.38Z" fill="#737373" fill-rule="evenodd"/><path d="M477.347 915.552C470.667 910.211 462.181 907 452.927 907 431.429 907 414 924.264 414 945.559 414 953.73 416.585 961.298 420.965 967.534 427.995 977.547 460.917 988.094 478.434 970.743 495.562 953.779 486.189 922.622 477.347 915.552Z" fill="#737373" fill-rule="evenodd"/><path d="M451.683 950.079C438.821 950.627 427.597 957.404 421 967.49 427.97 977.459 439.557 983.998 452.689 984 457.369 984 461.831 983.13 465.981 981.612 473.86 978.733 477.336 965.824 475.535 961.218 469.36 948.421 452.239 950.056 451.683 950.079Z" fill="#505050" fill-rule="evenodd"/><path d="M477.472 916C463.072 921.249 452.687 934.657 452.001 950.594 451.977 951.153 452.44 962.849 463.878 969.804 467.906 972.253 481.139 974.081 485.695 967.139 489.669 961.078 492 953.86 492 946.092 492 933.927 486.327 923.089 477.472 916Z" fill="#D1D1D1" fill-rule="evenodd"/><path d="M453.732 950C453.176 950 452.635 950.062 452.084 950.086 452.061 950.645 452 951.197 452 951.767 452 963.988 457.545 974.88 466.192 982 473.966 979.086 480.549 973.685 485 966.71 478.122 956.618 466.692 950 453.732 950Z" fill="#737373" fill-rule="evenodd"/><path d="M580.935 937.413C580.028 928.967 576.333 920.759 569.812 914.283 554.666 899.239 530.111 899.239 514.965 914.283 509.152 920.056 505.592 927.21 504.24 934.681 502.071 946.673 514.577 976 542.76 976 566.547 976.003 582.135 948.594 580.935 937.413Z" fill="#D1D1D1" fill-rule="evenodd"/><path d="M515.132 968.987C518.397 972.296 522.121 974.834 526.082 976.689 534.302 978.431 543.817 972.692 545.726 963.634 547.757 953.984 537.818 944.535 538.224 944.157 528.867 935.452 516.282 932.333 504.604 934.837 502.475 946.857 505.97 959.697 515.132 968.987Z" fill="#505050" fill-rule="evenodd"/><path d="M580.781 937.54C566.992 931.197 550.258 933.378 538.528 944.088 538.116 944.464 537.687 944.807 537.287 945.201 528.703 953.743 525.025 965.304 526.219 976.446 533.837 979.953 542.352 980.872 550.44 979.17 557.501 977.683 564.228 974.24 569.71 968.785 578.297 960.245 581.975 948.685 580.781 937.54Z" fill="#737373" fill-rule="evenodd"/><path d="M599.745 1065C599.745 1079.2 563.157 1097.32 566.177 1110.61 569.296 1124.33 610.194 1124.79 616.164 1137.17 622.232 1149.75 597.162 1182.02 605.789 1192.83 614.46 1203.69 651.492 1186.38 662.349 1195.05 673.154 1203.68 664.481 1243.66 677.061 1249.73 689.437 1255.7 715.258 1224.07 728.976 1227.18 742.261 1230.21 751.8 1270 766 1270 780.2 1270 789.739 1230.21 803.024 1227.18 816.742 1224.06 842.564 1255.7 854.942 1249.73 867.52 1243.66 858.849 1203.68 869.652 1195.05 880.508 1186.37 917.54 1203.69 926.211 1192.82 934.838 1182.01 909.766 1149.75 915.836 1137.16 921.806 1124.78 962.707 1124.33 965.823 1110.61 968.841 1097.32 932.255 1079.2 932.255 1065 932.255 1050.8 968.844 1032.68 965.823 1019.39 962.704 1005.66 921.806 1005.21 915.836 992.831 909.769 980.247 934.838 947.981 926.211 937.171 917.54 926.31 880.508 943.623 869.652 934.948 858.846 926.317 867.52 886.336 854.939 880.266 842.564 874.294 816.742 905.93 803.024 902.813 789.739 899.793 780.2 860 766 860 751.803 860 742.261 899.793 728.976 902.813 715.258 905.933 689.437 874.294 677.059 880.268 664.481 886.338 673.151 926.32 662.349 934.951 651.492 943.625 614.46 926.31 605.789 937.173 597.162 947.983 622.234 980.249 616.164 992.833 610.194 1005.21 569.294 1005.67 566.177 1019.39 563.159 1032.68 599.745 1050.8 599.745 1065Z" fill="#505050" fill-rule="evenodd"/><path d="M682.873 1065.5C682.873 1072.6 664.58 1081.66 666.088 1088.3 667.648 1095.16 688.098 1095.39 691.083 1101.58 694.117 1107.87 681.582 1124.01 685.897 1129.41 690.232 1134.84 708.747 1126.19 714.175 1130.53 719.578 1134.84 715.24 1154.83 721.529 1157.87 727.718 1160.85 740.629 1145.03 747.488 1146.59 754.13 1148.1 758.901 1168 766 1168 773.099 1168 777.87 1148.1 784.512 1146.59 791.371 1145.03 804.282 1160.85 810.471 1157.87 816.76 1154.83 812.424 1134.84 817.827 1130.53 823.255 1126.19 841.773 1134.84 846.105 1129.41 850.418 1124.01 837.883 1107.88 840.917 1101.59 843.902 1095.39 864.352 1095.17 865.911 1088.31 867.422 1081.66 849.126 1072.6 849.126 1065.5 849.126 1058.4 867.419 1049.34 865.911 1042.7 864.352 1035.84 843.902 1035.61 840.917 1029.42 837.883 1023.13 850.418 1006.99 846.103 1001.59 841.768 996.156 823.253 1004.81 817.824 1000.47 812.422 996.161 816.76 976.169 810.471 973.134 804.282 970.148 791.371 985.968 784.512 984.407 777.87 982.896 773.099 963 766 963 758.901 963 754.13 982.896 747.488 984.407 740.629 985.968 727.718 970.148 721.529 973.134 715.24 976.169 719.575 996.161 714.173 1000.47 708.744 1004.81 690.227 996.156 685.894 1001.59 681.582 1006.99 694.117 1023.12 691.083 1029.41 688.098 1035.61 667.648 1035.83 666.088 1042.69 664.58 1049.34 682.873 1058.4 682.873 1065.5Z" fill="#FFC000" fill-rule="evenodd"/><path d="M786 1016C786 1025.39 778.389 1033 769 1033 759.611 1033 752 1025.39 752 1016 752 1006.61 759.612 999 769 999 778.389 999 786 1006.61 786 1016Z" fill="#FFFFFF" fill-rule="evenodd"/><path d="M750 1029C750 1038.39 742.613 1046 733.5 1046 724.387 1046 717 1038.39 717 1029 717 1019.61 724.388 1012 733.5 1012 742.613 1012 750 1019.61 750 1029Z" fill="#FFFFFF" fill-rule="evenodd"/><path d="M734 1063C734 1072.39 726.613 1080 717.5 1080 708.387 1080 701 1072.39 701 1063 701 1053.61 708.387 1046 717.5 1046 726.613 1046 734 1053.61 734 1063Z" fill="#FFFFFF" fill-rule="evenodd"/><path d="M747 1098C747 1107.39 739.389 1115 730 1115 720.611 1115 713 1107.39 713 1098 713 1088.61 720.611 1081 730 1081 739.389 1081 747 1088.61 747 1098Z" fill="#FFFFFF" fill-rule="evenodd"/><path d="M781 1114C781 1123.39 773.389 1131 764 1131 754.611 1131 747 1123.39 747 1114 747 1104.61 754.611 1097 764 1097 773.389 1097 781 1104.61 781 1114Z" fill="#FFFFFF" fill-rule="evenodd"/><path d="M816 1101C816 1110.39 808.389 1118 799 1118 789.611 1118 782 1110.39 782 1101 782 1091.61 789.611 1084 799 1084 808.389 1084 816 1091.61 816 1101Z" fill="#FFFFFF" fill-rule="evenodd"/><path d="M832 1067C832 1076.39 824.389 1084 815 1084 805.611 1084 798 1076.39 798 1067 798 1057.61 805.611 1050 815 1050 824.389 1050 832 1057.61 832 1067Z" fill="#FFFFFF" fill-rule="evenodd"/><path d="M819.001 1032C819.001 1041.39 811.613 1049 802.5 1049 793.388 1049 786 1041.39 786 1032 786 1022.61 793.388 1015 802.5 1015 811.613 1015 819.001 1022.61 819.001 1032Z" fill="#FFFFFF" fill-rule="evenodd"/><path d="M1214.94 1044.35C1213.12 1031.87 1171.95 1027.55 1122.99 1034.69 1116.9 1035.58 1110.99 1036.6 1105.29 1037.73 1109.91 1033.7 1114.58 1029.39 1119.24 1024.83 1154.66 990.233 1176.25 954.865 1167.45 945.837 1158.66 936.809 1122.81 957.54 1087.39 992.138 1082.99 996.436 1078.81 1000.75 1074.87 1005.01 1076.23 999.029 1077.48 992.795 1078.58 986.365 1086.93 937.526 1083.63 896.212 1071.21 894.086 1058.79 891.959 1041.96 929.825 1033.62 978.664 1032.58 984.731 1031.73 990.679 1031.05 996.452 1028.64 990.808 1025.99 985.03 1023.1 979.18 1001.18 934.758 974.259 903.273 962.968 908.86 951.674 914.447 960.289 954.986 982.205 999.411 987.911 1010.97 993.836 1021.35 999.877 1030.72 1002.3 1034.49 1028.48 1046.43 1044.61 1062.58 1060.74 1078.73 1071.87 1105.63 1074.92 1107.76 1084.68 1114.59 1095.89 1121.32 1108.31 1127.85 1152.12 1150.89 1192.38 1160.51 1198.24 1149.35 1204.09 1138.18 1173.33 1110.45 1129.52 1087.41 1125.5 1085.3 1121.51 1083.3 1117.58 1081.42 1121.51 1080.99 1125.51 1080.48 1129.56 1079.89 1178.53 1072.74 1216.76 1056.83 1214.94 1044.35Z" fill="#FFFFFF" fill-rule="evenodd"/><path d="M1074.93 1107.52C1094.27 1088.64 1091.11 1056.36 1072.25 1037.01 1053.38 1017.65 1019.12 1011.56 999.78 1030.44L1009.97 1045.57C1022.44 1063.03 1017.24 1074.75 1002.41 1089.22L996.864 1094.09C991.974 1098.39 991.685 1105.91 996.227 1110.57L996.227 1110.57C1000.47 1114.92 1007.38 1115.16 1011.92 1111.12L1020.59 1103.39C1034.18 1090.12 1042.91 1086.36 1060.07 1096.95L1074.93 1107.52Z" fill="#737373" fill-rule="evenodd"/><path d="M1089.3 962.267C1095.43 950.909 1100.38 939.036 1105.18 927.097 1107.56 921.114 1109.76 915.057 1111.93 908.989L1113.51 904.418C1114.02 902.885 1114.65 901.402 1114.94 899.774 1115.54 896.524 1115.5 892.996 1113.49 888.6 1110.16 881.317 1113.32 872.691 1120.55 869.336 1127.78 865.98 1136.34 869.165 1139.67 876.449 1143.01 883.732 1139.84 892.357 1132.61 895.713 1132.11 895.947 1131.58 896.153 1131.06 896.326 1126.5 897.83 1123.9 900.202 1121.94 902.855 1120.96 904.176 1120.3 905.646 1119.53 907.063L1117.28 911.34C1114.34 917.073 1111.43 922.817 1108.69 928.637 1103.26 940.301 1097.99 952.032 1093.89 964.281 1093.44 965.602 1092.02 966.313 1090.71 965.867 1089.4 965.422 1088.69 963.99 1089.13 962.666 1089.18 962.53 1089.24 962.39 1089.3 962.267Z" fill="#FFFFFF" fill-rule="evenodd"/><path d="M1136.65 1018.2C1148.78 1013.76 1160.36 1008.17 1171.86 1002.43 1177.6 999.54 1183.26 996.48 1188.9 993.39L1193.11 991.027C1194.51 990.219 1195.96 989.528 1197.25 988.507 1199.84 986.486 1202.13 983.845 1203.49 979.276 1205.75 971.705 1213.83 967.364 1221.54 969.578 1229.24 971.791 1233.67 979.724 1231.41 987.292 1229.16 994.862 1221.08 999.203 1213.37 996.989 1212.83 996.835 1212.3 996.645 1211.79 996.435 1207.32 994.581 1203.79 994.654 1200.55 995.345 1198.93 995.685 1197.47 996.348 1195.95 996.898L1191.42 998.607C1185.42 1000.95 1179.43 1003.31 1173.51 1005.85 1161.71 1010.97 1149.98 1016.25 1138.81 1022.66 1137.6 1023.35 1136.05 1022.95 1135.35 1021.77 1134.64 1020.59 1135.05 1019.07 1136.25 1018.37 1136.38 1018.31 1136.52 1018.24 1136.65 1018.2Z" fill="#FFFFFF" fill-rule="evenodd"/><path d="M178 1053C178 1062.39 170.389 1070 161 1070 151.611 1070 144 1062.39 144 1053 144 1043.61 151.611 1036 161 1036 170.389 1036 178 1043.61 178 1053Z" fill="#FFC000" fill-rule="evenodd"/><path d="M119 1095C119 1104.39 111.389 1112 102 1112 92.611 1112 84.9999 1104.39 84.9999 1095 84.9999 1085.61 92.611 1078 102 1078 111.389 1078 119 1085.61 119 1095Z" fill="#FFC000" fill-rule="evenodd"/><path d="M117 1035C117 1044.39 109.389 1052 99.9998 1052 90.6109 1052 82.9998 1044.39 82.9998 1035 82.9998 1025.61 90.6109 1018 99.9998 1018 109.389 1018 117 1025.61 117 1035Z" fill="#FFC000" fill-rule="evenodd"/><path d="M254 1298C254 1307.39 246.389 1315 237 1315 227.611 1315 220 1307.39 220 1298 220 1288.61 227.611 1281 237 1281 246.389 1281 254 1288.61 254 1298Z" fill="#FFC000" fill-rule="evenodd"/><path d="M1486 1292C1486 1301.39 1478.39 1309 1469 1309 1459.61 1309 1452 1301.39 1452 1292 1452 1282.61 1459.61 1275 1469 1275 1478.39 1275 1486 1282.61 1486 1292Z" fill="#FFC000" fill-rule="evenodd"/><path d="M1276 1371C1276 1380.39 1268.39 1388 1259 1388 1249.61 1388 1242 1380.39 1242 1371 1242 1361.61 1249.61 1354 1259 1354 1268.39 1354 1276 1361.61 1276 1371Z" fill="#FFC000" fill-rule="evenodd"/><path d="M1219 1340C1219 1349.39 1211.39 1357 1202 1357 1192.61 1357 1185 1349.39 1185 1340 1185 1330.61 1192.61 1323 1202 1323 1211.39 1323 1219 1330.61 1219 1340Z" fill="#FFC000" fill-rule="evenodd"/><path d="M1546 1139C1546 1148.39 1538.39 1156 1529 1156 1519.61 1156 1512 1148.39 1512 1139 1512 1129.61 1519.61 1122 1529 1122 1538.39 1122 1546 1129.61 1546 1139Z" fill="#FFC000" fill-rule="evenodd"/><path d="M1604 1124C1604 1133.39 1596.39 1141 1587 1141 1577.61 1141 1570 1133.39 1570 1124 1570 1114.61 1577.61 1107 1587 1107 1596.39 1107 1604 1114.61 1604 1124Z" fill="#FFC000" fill-rule="evenodd"/><path d="M1565 1081C1565 1090.39 1557.39 1098 1548 1098 1538.61 1098 1531 1090.39 1531 1081 1531 1071.61 1538.61 1064 1548 1064 1557.39 1064 1565 1071.61 1565 1081Z" fill="#FFC000" fill-rule="evenodd"/><path d="M1101 1275.5C1101 1248 1083.59 1224.56 1059.17 1215.53 1070.03 1191.92 1065.73 1163.07 1046.23 1143.63 1026.73 1124.18 997.802 1119.88 974.131 1130.72 965.077 1106.36 941.573 1089 914 1089 886.427 1089 862.923 1106.36 853.87 1130.72 830.198 1119.88 801.268 1124.18 781.772 1143.63 762.275 1163.07 757.966 1191.92 768.833 1215.53 744.409 1224.56 727 1248 727 1275.5 727 1303 744.409 1326.44 768.833 1335.47 757.966 1359.08 762.273 1387.93 781.772 1407.37 801.271 1426.82 830.198 1431.12 853.87 1420.28 862.923 1444.64 886.427 1462 914 1462 941.573 1462 965.077 1444.64 974.131 1420.28 997.802 1431.12 1026.73 1426.82 1046.23 1407.37 1065.73 1387.93 1070.03 1359.08 1059.17 1335.47 1083.59 1326.44 1101 1303 1101 1275.5Z" fill="#737373" fill-rule="evenodd"/><path d="M966.679 1222.78C995.827 1251.93 995.827 1299.19 966.678 1328.34 937.53 1357.49 890.272 1357.49 861.124 1328.34 831.975 1299.19 831.975 1251.93 861.124 1222.78 890.272 1193.64 937.531 1193.64 966.679 1222.78Z" fill="#D1D1D1" fill-rule="evenodd"/><path d="M891.513 1257.11C883.142 1247.28 873.852 1238.36 864.447 1229.55 859.723 1225.17 854.864 1220.92 849.981 1216.69L846.283 1213.55C845.034 1212.52 843.879 1211.4 842.461 1210.54 839.639 1208.81 836.319 1207.56 831.457 1207.84 823.4 1208.3 816.492 1202.22 816.025 1194.26 815.559 1186.31 821.713 1179.49 829.768 1179.02 837.825 1178.56 844.734 1184.64 845.2 1192.6 845.234 1193.15 845.231 1193.72 845.2 1194.26 844.917 1199.06 846.182 1202.34 847.939 1205.13 848.812 1206.53 849.945 1207.67 850.989 1208.9L854.164 1212.56C858.445 1217.38 862.747 1222.18 867.186 1226.84 876.106 1236.13 885.14 1245.3 895.094 1253.57 896.17 1254.46 896.307 1256.04 895.403 1257.11 894.498 1258.17 892.897 1258.3 891.821 1257.41 891.712 1257.32 891.603 1257.21 891.513 1257.11Z" fill="#E5E5E5" fill-rule="evenodd"/><path d="M885.268 1277.01C872.436 1275.9 859.604 1276.08 846.773 1276.42 840.357 1276.62 833.941 1277.01 827.525 1277.43L822.714 1277.8C821.11 1277.95 819.506 1277.96 817.902 1278.34 814.694 1279.09 811.486 1280.54 808.278 1284.14 802.963 1290.12 793.817 1290.65 787.847 1285.33 781.878 1280 781.35 1270.84 786.664 1264.86 791.979 1258.88 801.126 1258.35 807.095 1263.67 807.513 1264.04 807.911 1264.45 808.278 1264.86 811.486 1268.47 814.694 1269.91 817.902 1270.66 819.506 1271.04 821.11 1271.05 822.714 1271.2L827.525 1271.57C833.941 1271.99 840.357 1272.38 846.773 1272.58 859.604 1272.92 872.436 1273.1 885.268 1271.99 886.653 1271.87 887.872 1272.9 887.991 1274.28 888.111 1275.67 887.085 1276.89 885.699 1277.01 885.558 1277.03 885.404 1277.02 885.268 1277.01Z" fill="#E5E5E5" fill-rule="evenodd"/><path d="M895.097 1295.49C885.143 1303.86 876.106 1313.15 867.188 1322.55 862.751 1327.28 858.447 1332.14 854.165 1337.02L850.991 1340.72C849.949 1341.97 848.814 1343.12 847.94 1344.54 846.184 1347.36 844.919 1350.68 845.201 1355.54 845.668 1363.6 839.512 1370.51 831.458 1370.98 823.401 1371.44 816.492 1365.29 816.025 1357.23 815.559 1349.18 821.713 1342.27 829.768 1341.8 830.333 1341.77 830.903 1341.77 831.455 1341.8 836.317 1342.08 839.637 1340.82 842.459 1339.06 843.877 1338.19 845.033 1337.05 846.282 1336.01L849.98 1332.84C854.863 1328.55 859.722 1324.25 864.446 1319.81 873.851 1310.89 883.142 1301.86 891.513 1291.91 892.417 1290.83 894.019 1290.69 895.094 1291.6 896.17 1292.5 896.307 1294.1 895.403 1295.18 895.315 1295.29 895.203 1295.4 895.097 1295.49Z" fill="#E5E5E5" fill-rule="evenodd"/><path d="M915.013 1301.73C913.901 1314.56 914.079 1327.4 914.421 1340.23 914.622 1346.64 915.013 1353.06 915.434 1359.48L915.802 1364.29C915.946 1365.89 915.964 1367.49 916.345 1369.1 917.093 1372.31 918.535 1375.51 922.144 1378.72 928.123 1384.04 928.655 1393.18 923.329 1399.15 918.003 1405.12 908.838 1405.65 902.856 1400.34 896.877 1395.02 896.345 1385.88 901.671 1379.91 902.044 1379.49 902.447 1379.09 902.856 1378.72 906.467 1375.51 907.91 1372.31 908.655 1369.1 909.036 1367.49 909.054 1365.89 909.198 1364.29L909.566 1359.48C909.988 1353.06 910.379 1346.64 910.579 1340.23 910.921 1327.4 911.099 1314.56 909.988 1301.73 909.867 1300.35 910.895 1299.13 912.284 1299.01 913.673 1298.89 914.894 1299.92 915.013 1301.3 915.025 1301.44 915.023 1301.59 915.013 1301.73Z" fill="#E5E5E5" fill-rule="evenodd"/><path d="M933.488 1291.9C941.858 1301.86 951.149 1310.89 960.553 1319.81 965.278 1324.25 970.136 1328.55 975.019 1332.83L978.717 1336.01C979.966 1337.05 981.122 1338.19 982.539 1339.06 985.362 1340.82 988.681 1342.08 993.543 1341.8 1001.6 1341.33 1008.51 1347.49 1008.98 1355.54 1009.44 1363.6 1003.29 1370.51 995.232 1370.98 987.175 1371.44 980.267 1365.29 979.8 1357.23 979.766 1356.67 979.769 1356.1 979.8 1355.55 980.083 1350.68 978.818 1347.36 977.061 1344.54 976.188 1343.12 975.055 1341.97 974.011 1340.72L970.836 1337.02C966.555 1332.14 962.253 1327.28 957.814 1322.55 948.894 1313.15 939.86 1303.86 929.906 1295.49 928.831 1294.58 928.693 1292.98 929.598 1291.91 930.502 1290.83 932.104 1290.69 933.179 1291.6 933.288 1291.69 933.397 1291.8 933.488 1291.9Z" fill="#E5E5E5" fill-rule="evenodd"/><path d="M939.732 1271.99C952.564 1273.1 965.396 1272.92 978.227 1272.58 984.643 1272.38 991.059 1271.99 997.475 1271.57L1002.29 1271.2C1003.89 1271.05 1005.49 1271.04 1007.1 1270.66 1010.31 1269.91 1013.51 1268.46 1016.72 1264.86 1022.04 1258.88 1031.18 1258.35 1037.15 1263.67 1043.12 1269 1043.65 1278.16 1038.34 1284.14 1033.02 1290.12 1023.87 1290.65 1017.91 1285.33 1017.49 1284.96 1017.09 1284.55 1016.72 1284.14 1013.51 1280.53 1010.31 1279.09 1007.1 1278.34 1005.49 1277.96 1003.89 1277.95 1002.29 1277.8L997.475 1277.43C991.059 1277.01 984.643 1276.62 978.227 1276.42 965.396 1276.08 952.564 1275.9 939.732 1277.01 938.346 1277.13 937.127 1276.1 937.009 1274.72 936.891 1273.33 937.915 1272.11 939.301 1271.99 939.44 1271.97 939.594 1271.98 939.732 1271.99Z" fill="#E5E5E5" fill-rule="evenodd"/><path d="M929.904 1253.57C939.858 1245.3 948.895 1236.13 957.812 1226.84 962.249 1222.18 966.554 1217.38 970.835 1212.56L974.01 1208.91C975.052 1207.67 976.187 1206.53 977.06 1205.13 978.817 1202.34 980.082 1199.07 979.799 1194.26 979.333 1186.31 985.488 1179.49 993.542 1179.02 1001.6 1178.56 1008.51 1184.64 1008.98 1192.6 1009.44 1200.55 1003.29 1207.37 995.232 1207.84 994.667 1207.87 994.097 1207.87 993.545 1207.84 988.683 1207.56 985.364 1208.81 982.541 1210.54 981.123 1211.4 979.968 1212.52 978.719 1213.55L975.021 1216.69C970.138 1220.92 965.279 1225.16 960.554 1229.55 951.149 1238.36 941.858 1247.28 933.488 1257.11 932.583 1258.17 930.982 1258.3 929.906 1257.41 928.831 1256.52 928.693 1254.94 929.598 1253.87 929.689 1253.77 929.8 1253.66 929.904 1253.57Z" fill="#E5E5E5" fill-rule="evenodd"/><path d="M909.988 1247.27C911.099 1234.44 910.921 1221.6 910.579 1208.77 910.379 1202.36 909.988 1195.94 909.566 1189.53L909.198 1184.71C909.054 1183.11 909.036 1181.5 908.655 1179.9 907.907 1176.69 906.465 1173.49 902.856 1170.28 896.877 1164.96 896.345 1155.82 901.671 1149.85 906.997 1143.88 916.162 1143.35 922.144 1148.66 928.123 1153.98 928.655 1163.12 923.329 1169.09 922.956 1169.51 922.552 1169.91 922.144 1170.28 918.533 1173.49 917.091 1176.69 916.345 1179.9 915.964 1181.5 915.946 1183.11 915.802 1184.71L915.434 1189.53C915.013 1195.94 914.622 1202.36 914.421 1208.77 914.079 1221.6 913.901 1234.44 915.013 1247.27 915.133 1248.65 914.105 1249.87 912.716 1249.99 911.327 1250.11 910.106 1249.08 909.988 1247.7 909.975 1247.56 909.975 1247.4 909.988 1247.27Z" fill="#E5E5E5" fill-rule="evenodd"/></g></svg>