<svg width="2160" height="1702" xmlns="http://www.w3.org/2000/svg" xmlns:xlink="http://www.w3.org/1999/xlink" overflow="hidden"><defs><clipPath id="clip0"><rect x="1120" y="361" width="2160" height="1702"/></clipPath></defs><g clip-path="url(#clip0)" transform="translate(-1120 -361)"><path d="M1437.94 1588.97C1423.77 1587.43 1410.25 1589.54 1398.14 1594.41 1398.13 1594.42 1398.11 1594.41 1398.11 1594.39L1398.11 1540 1120 1540 1120 1882.91C1120 1939.3 1165.66 1985 1221.99 1985L1296.12 1985C1352.45 1985 1398.11 1939.29 1398.11 1882.91L1398.11 1747.11C1398.11 1747.09 1398.13 1747.08 1398.14 1747.08 1407.62 1750.9 1417.96 1753.02 1428.8 1753.02 1475.99 1753.02 1513.89 1713.23 1510.83 1665.34 1508.3 1625.83 1477.25 1593.26 1437.94 1588.97ZM1428.51 1701.6C1412.48 1701.45 1399.4 1689.05 1398.11 1673.3L1398.11 1668.2C1399.41 1652.36 1412.64 1639.89 1428.81 1639.89 1446.23 1639.89 1460.28 1654.37 1459.61 1671.97 1458.97 1688.41 1444.95 1701.76 1428.51 1701.6Z" fill="#FFC000" fill-rule="evenodd"/><path d="M2171.1 766.695C2179.46 778.493 2187.86 789.928 2195.33 801.956 2197.2 804.953 2199.16 807.875 2200.94 810.915L2206.25 820.031 2208.91 824.557 2211.38 829.199 2216.35 838.429C2229.03 863.297 2239.45 889.068 2247.01 915.627 2254.42 942.223 2258.88 969.533 2260.56 997.001 2260.88 1003.86 2261.1 1010.78 2261.28 1017.61 2261.34 1024.39 2261.41 1031.17 2261.59 1037.94 2261.86 1051.5 2262.27 1065.05 2262.99 1078.61 2263.2 1082.48 2260.24 1085.78 2256.38 1085.99 2252.52 1086.2 2249.23 1083.23 2249.02 1079.35 2249.01 1079.1 2249.01 1078.85 2249.02 1078.61 2249.74 1065.05 2250.15 1051.5 2250.42 1037.94 2250.6 1031.17 2250.67 1024.39 2250.73 1017.61 2250.76 1014.23 2250.65 1010.93 2250.62 1007.58 2250.54 1004.25 2250.63 1000.9 2250.31 997.579 2248.74 970.942 2243.82 944.472 2235.33 919.246 2226.73 894.081 2215.11 869.948 2199.99 848.327L2194.13 840.368 2191.19 836.415 2188.04 832.621 2181.7 825.104C2179.53 822.651 2177.19 820.333 2174.96 817.95 2166.03 808.416 2156.06 799.921 2145.67 792.226L2145.41 792.04C2137.31 786.039 2135.58 774.579 2141.56 766.442 2147.54 758.306 2158.96 756.573 2167.06 762.574 2168.64 763.737 2170.02 765.181 2171.1 766.695Z" fill="#737373" fill-rule="evenodd"/><path d="M2283.93 692.573C2281.91 681.002 2239.41 678.749 2188.98 687.539 2178.5 689.366 2168.51 691.532 2159.26 693.913 2159.23 693.921 2159.22 693.887 2159.24 693.872 2166.69 687.353 2174.42 680.017 2182.15 672.042 2217.78 635.254 2239.84 598.802 2231.42 590.625 2223 582.449 2187.29 605.643 2151.66 642.433 2144.24 650.083 2137.43 657.716 2131.35 665.085 2131.33 665.106 2131.3 665.09 2131.31 665.065 2133.51 655.404 2135.46 644.92 2137.03 633.919 2144.26 583.184 2140.71 540.71 2129.1 539.05 2117.49 537.39 2102.21 577.173 2094.98 627.908 2093.48 638.458 2092.44 648.643 2091.85 658.185 2091.85 658.21 2091.81 658.218 2091.8 658.192 2087.92 649.078 2083.34 639.451 2078.15 629.627 2054.22 584.326 2026.41 552.054 2016.05 557.544 2005.68 563.035 2016.67 604.212 2040.6 649.514 2045.58 658.935 2050.72 667.781 2055.84 675.852 2055.86 675.875 2055.83 675.901 2055.81 675.885 2047.32 670.799 2037.96 665.706 2028 660.814 1982.04 638.25 1940.6 628.504 1935.44 639.049 1930.28 649.594 1963.34 676.434 2009.29 698.999 2018.85 703.69 2028.2 707.819 2037.08 711.338 2037.11 711.348 2037.11 711.382 2037.08 711.384 2027.22 712.268 2016.66 713.655 2005.73 715.56 1955.31 724.35 1916.06 740.856 1918.07 752.428 1920.09 763.998 1962.59 766.251 2013.02 757.461 2023.5 755.634 2033.49 753.469 2042.74 751.087 2042.77 751.08 2042.78 751.113 2042.76 751.128 2035.31 757.647 2027.58 764.983 2019.85 772.958 1984.22 809.746 1962.16 846.198 1970.58 854.375 1979 862.551 2014.71 839.358 2050.34 802.567 2057.76 794.917 2064.57 787.285 2070.65 779.915 2070.67 779.894 2070.7 779.91 2070.69 779.936 2068.49 789.597 2066.54 800.08 2064.97 811.081 2057.74 861.816 2061.29 904.29 2072.9 905.95 2084.51 907.61 2099.79 867.827 2107.02 817.092 2108.52 806.542 2109.56 796.358 2110.15 786.815 2110.15 786.79 2110.19 786.782 2110.2 786.808 2114.08 795.919 2118.66 805.549 2123.85 815.373 2147.78 860.674 2175.59 892.946 2185.95 887.456 2196.32 881.966 2185.33 840.788 2161.4 795.487 2156.42 786.065 2151.28 777.219 2146.16 769.148 2146.14 769.125 2146.17 769.1 2146.19 769.115 2154.69 774.201 2164.04 779.294 2174 784.186 2219.96 806.751 2261.4 816.497 2266.56 805.952 2271.72 795.407 2238.66 768.566 2192.71 746.001 2183.15 741.31 2173.8 737.181 2164.92 733.662 2164.89 733.652 2164.89 733.619 2164.92 733.616 2174.78 732.732 2185.34 731.345 2196.27 729.44 2246.69 720.648 2285.94 704.141 2283.93 692.573Z" fill="#FFC000" fill-rule="evenodd"/><path d="M2122 722.5C2122 733.822 2112.6 743 2101 743 2089.4 743 2080 733.822 2080 722.5 2080 711.178 2089.4 702 2101 702 2112.6 702 2122 711.178 2122 722.5Z" fill="#FFFFFF" fill-rule="evenodd"/><path d="M2478.95 555.389C2530.17 553.696 2571.38 542.808 2571 531.072 2570.61 519.336 2528.77 511.195 2477.55 512.891 2466.44 513.26 2455.8 514.058 2445.96 515.205 2445.93 515.208 2445.92 515.174 2445.94 515.161 2453.93 509.907 2462.26 503.954 2470.67 497.411 2511.12 465.94 2538.05 432.917 2530.84 423.65 2523.63 414.383 2484.99 432.384 2444.55 463.855 2436.49 470.122 2428.99 476.449 2422.17 482.639 2422.15 482.657 2422.12 482.637 2422.13 482.613 2425.16 474.372 2428.08 465.514 2430.76 456.23 2444.97 407.003 2447.35 364.455 2436.07 361.198 2424.78 357.941 2404.11 395.208 2389.89 444.434 2386.81 455.108 2384.28 465.466 2382.33 475.181 2382.33 475.207 2382.29 475.209 2382.28 475.184 2379.75 465.966 2376.66 456.209 2373.04 446.189 2355.6 398.009 2332.51 362.19 2321.46 366.187 2310.42 370.184 2315.6 412.479 2333.04 460.659 2336.83 471.107 2340.87 480.969 2345 489.976 2345.02 490.001 2344.99 490.022 2344.97 490.004 2337.5 484.033 2329.26 477.954 2320.44 471.98 2278 443.252 2238.26 427.843 2231.68 437.564 2225.09 447.287 2254.15 478.459 2296.59 507.188 2305.79 513.416 2314.87 519.019 2323.5 523.874 2323.53 523.887 2323.52 523.921 2323.49 523.921 2313.94 523.478 2303.7 523.4 2293.05 523.753 2241.83 525.446 2200.62 536.334 2201 548.07 2201.39 559.806 2243.23 567.947 2294.45 566.251 2305.56 565.883 2316.2 565.084 2326.04 563.937 2326.07 563.934 2326.08 563.968 2326.06 563.981 2318.07 569.235 2309.74 575.188 2301.33 581.732 2260.88 613.203 2233.95 646.225 2241.16 655.492 2248.37 664.759 2287.01 646.758 2327.45 615.287 2336.22 608.463 2344.35 601.567 2351.64 594.854 2351.67 594.836 2351.69 594.856 2351.68 594.88 2348.31 603.824 2345.07 613.535 2342.12 623.771 2327.9 672.998 2325.52 715.545 2336.81 718.802 2348.09 722.06 2368.76 684.793 2382.98 635.566 2385.93 625.369 2388.36 615.465 2390.27 606.131 2390.28 606.105 2390.31 606.103 2390.32 606.128 2392.73 614.702 2395.62 623.717 2398.97 632.953 2416.41 681.133 2439.5 716.952 2450.54 712.955 2461.58 708.958 2456.4 666.663 2438.96 618.483 2435.18 608.035 2431.13 598.171 2427 589.166 2426.99 589.14 2427.01 589.12 2427.04 589.138 2434.5 595.109 2442.74 601.188 2451.56 607.162 2494 635.891 2533.74 651.299 2540.33 641.578 2546.91 631.858 2517.85 600.683 2475.41 571.954 2466.21 565.725 2457.14 560.123 2448.5 555.268 2448.48 555.255 2448.49 555.221 2448.51 555.221 2458.06 555.662 2468.3 555.742 2478.95 555.389Z" fill="#FFC000" fill-rule="evenodd"/><path d="M2333.24 959.029C2316.82 975.999 2303.29 992.889 2294.29 1006.98 2294.28 1007 2294.25 1006.99 2294.25 1006.96L2293.87 957.782 2293.33 810.63 2293.28 773.927C2293.29 761.85 2294.29 749.792 2295.8 737.819 2299.06 713.898 2305.12 690.373 2313.98 668.01 2322.71 645.607 2334.42 624.444 2348.55 605.263 2362.83 586.206 2379.48 569.009 2398.56 555.294 2400.04 554.218 2401.46 552.853 2402.6 551.298 2409.75 541.608 2405.94 527.189 2393.4 522.909 2386.03 520.391 2377.86 523.265 2373.23 529.545L2373.08 529.753C2357.59 550.759 2343.45 572.071 2331.47 594.399 2319.37 616.638 2309.47 639.808 2301.56 663.527 2293.83 687.318 2288.43 711.778 2285.49 736.511 2283.89 748.866 2283.23 761.314 2282.84 773.759 2282.6 786.188 2282.74 798.329 2282.66 810.63L2282.13 957.782 2281 1104.93 2281 1104.99C2281 1107.93 2282.8 1110.66 2285.58 1111.6 2290.5 1113.25 2295.03 1109.61 2294.99 1104.93L2294.5 1041.18C2309.69 1036.65 2336.73 1016.57 2363.73 988.666 2398.84 952.385 2412.6 908.486 2413 907.207 2413 907.186 2413 907.181 2412.98 907.189 2411.72 907.622 2368.36 922.748 2333.24 959.029Z" fill="#737373" fill-rule="evenodd"/><path d="M2421 1872.07C2421 1872.07 2377.56 1903 2274.69 1903 2171.82 1903 2124 1872.07 2124 1872.07L2232.23 1067.93 2196.22 1042.16 2196.01 1037 2350.53 1037 2350.53 1042.16 2314.52 1067.93 2421 1872.07Z" fill="#D1D1D1" fill-rule="evenodd"/><path d="M2295 1382 3280 1382 3280 1908 2295 1908Z" fill="#737373" fill-rule="evenodd"/><path d="M2552.5 1812C2499.29 1812 2456 1855.07 2456 1908L2492.51 1908C2492.51 1875.09 2519.42 1848.32 2552.5 1848.32 2585.58 1848.32 2612.49 1875.09 2612.49 1908L2649 1908C2648.99 1855.06 2605.71 1812 2552.5 1812Z" fill="#505050" fill-rule="evenodd"/><path d="M3022.5 1733C2925.73 1733 2847 1811.5 2847 1908L2883.67 1908C2883.67 1831.67 2945.95 1769.57 3022.5 1769.57 3099.05 1769.57 3161.33 1831.67 3161.33 1908L3198 1908C3198.01 1811.5 3119.28 1733 3022.5 1733Z" fill="#505050" fill-rule="evenodd"/><path d="M3022.5 1812C2969.29 1812 2926 1855.07 2926 1908L2962.51 1908C2962.51 1875.09 2989.42 1848.32 3022.5 1848.32 3055.58 1848.32 3082.49 1875.09 3082.49 1908L3119 1908C3119 1855.06 3075.71 1812 3022.5 1812Z" fill="#505050" fill-rule="evenodd"/><path d="M3022.6 1654.69C3022.27 1654.69 3021.69 1654.7 3021.72 1654.7 3021.37 1653.84 3021.01 1652.98 3020.64 1652.13 2981.96 1561.6 2892.03 1498 2787.5 1498 2682.79 1498 2592.72 1561.83 2554.16 1652.6 2553.86 1653.3 2553.28 1654.7 2553.28 1654.7 2553.28 1654.7 2552.72 1654.69 2552.39 1654.69 2412.67 1654.69 2299 1768.32 2299 1908L2335.57 1908C2335.57 1788.48 2432.84 1691.25 2552.39 1691.25 2671.95 1691.25 2769.21 1788.48 2769.21 1908L2805.79 1908C2805.79 1788.48 2903.05 1691.25 3022.61 1691.25 3142.16 1691.25 3239.43 1788.48 3239.43 1908L3276 1908C3276 1768.32 3162.33 1654.69 3022.6 1654.69ZM2787.5 1813.54C2774.66 1781.72 2755.54 1753.07 2731.67 1729.15 2740.51 1706.97 2762.19 1691.25 2787.5 1691.25 2812.8 1691.25 2834.49 1706.97 2843.33 1729.15 2819.46 1753.07 2800.34 1781.72 2787.5 1813.54ZM2871.98 1704.43C2855.45 1674.79 2823.79 1654.69 2787.5 1654.69 2751.21 1654.69 2719.55 1674.79 2703.02 1704.43 2691.85 1696.15 2679.99 1688.76 2667.52 1682.38 2691.46 1640.9 2736.26 1612.9 2787.5 1612.9 2838.75 1612.9 2883.54 1640.9 2907.48 1682.38 2895.01 1688.76 2883.14 1696.15 2871.98 1704.43ZM2941.39 1668.03C2941.39 1668.03 2939.81 1665.17 2938.99 1663.76 2908.67 1611.54 2852.12 1576.34 2787.5 1576.34 2722.91 1576.34 2666.38 1611.5 2636.05 1663.68 2635.22 1665.11 2633.6 1668.03 2633.6 1668.03 2633.6 1668.03 2630.95 1667.15 2629.52 1666.69 2617.36 1662.8 2604.81 1659.81 2591.93 1657.78 2626.92 1584.96 2701.43 1534.56 2787.5 1534.56 2873.57 1534.56 2948.07 1584.96 2983.06 1657.78 2969.38 1659.93 2956.05 1663.18 2943.17 1667.44 2942.51 1667.65 2941.39 1668.03 2941.39 1668.03Z" fill="#505050" fill-rule="evenodd"/><path d="M2552 1733C2455.51 1733 2377 1811.5 2377 1908L2413.57 1908C2413.57 1831.67 2475.67 1769.57 2552 1769.57 2628.33 1769.57 2690.43 1831.67 2690.43 1908L2727 1908C2727 1811.5 2648.5 1733 2552 1733Z" fill="#505050" fill-rule="evenodd"/><path d="M2779.35 1909.44 2780.73 1380.97 2796.27 1381.01 2794.9 1909.49Z" fill="#D1D1D1" fill-rule="evenodd"/><path d="M2931.27 1538.06C2918.61 1529.33 2902.77 1528.69 2889.63 1536.17L2788 1593.93 2686.37 1536.17C2673.21 1528.68 2657.33 1529.33 2644.67 1538.1 2635.94 1544.14 2629.99 1553.67 2628.44 1564.16 2624.87 1588.29 2643.57 1609.1 2667.06 1609.1L2766.49 1609.1C2766.51 1609.1 2766.52 1609.13 2766.51 1609.14L2679.79 1695.77 2690.74 1706.71 2787.84 1609.71C2787.85 1609.7 2787.86 1609.7 2787.87 1609.71L2885.26 1707 2896.21 1696.06 2809.2 1609.14C2809.19 1609.13 2809.2 1609.1 2809.22 1609.1L2908.94 1609.1C2932.45 1609.1 2951.17 1588.25 2947.55 1564.09 2945.98 1553.6 2940.01 1544.08 2931.27 1538.06ZM2667.06 1593.63C2652.47 1593.63 2640.93 1580.32 2643.97 1565.22 2645.07 1559.79 2648.17 1554.84 2652.58 1551.48 2656.93 1548.16 2662 1546.5 2667.06 1546.5 2671.06 1546.5 2675.06 1547.53 2678.72 1549.61L2756.08 1593.58C2756.1 1593.6 2756.09 1593.63 2756.06 1593.63L2667.06 1593.63ZM2908.18 1593.63 2819.94 1593.63C2819.91 1593.63 2819.9 1593.6 2819.93 1593.58L2897.28 1549.61C2904.66 1545.42 2913.45 1545.46 2920.79 1549.72 2928.45 1554.17 2932.89 1562.25 2932.49 1571.17 2931.93 1583.88 2920.9 1593.63 2908.18 1593.63Z" fill="#D1D1D1" fill-rule="evenodd"/><path d="M2210.58 1985 1259 1985 1259 1942.89 1305.81 1942.89C1305.81 1942.89 1428.69 1896 1768.06 1896 2107.43 1896 2230.7 1942.89 2230.7 1942.89L2257 1942.89C2257 1968.54 2238.95 1985 2210.58 1985Z" fill="#D1D1D1" fill-rule="evenodd"/><path d="M2211.64 1605.43C2210.82 1604.45 2210.36 1604 2210.36 1604L1644.98 1604 1612.01 1636.95C1612 1636.96 1612 1636.97 1612 1636.98L1852.27 1942.99C1852.27 1943 1852.28 1943 1852.28 1943L2231.46 1943C2244.51 1900.84 2252 1851.77 2252 1799.4 2252 1724.46 2236.68 1656.29 2211.64 1605.43Z" fill="#FFC000" fill-rule="evenodd"/><path d="M1306 1943 1612.11 1637 1862.97 1637C1862.98 1637 1863.01 1637 1863 1637.02 1862.15 1638.2 1824.18 1690.84 1714.3 1788.12 1603.16 1886.51 1530.16 1931.7 1530.16 1931.7L1498.32 1943 1306 1943Z" fill="#737373" fill-rule="evenodd"/><path d="M1796 1943C1796 1943 1816.21 1849.32 1895.2 1762.69 1974.18 1676.07 2101.58 1637 2101.58 1637L2158 1637 1852.41 1943 1796 1943Z" fill="#FFFFFF" fill-rule="evenodd"/><path d="M1563 1919.93 1855.8 1648.77 1892.85 1637 2102 1637 1796.02 1943 1576.38 1943Z" fill="#E5E5E5" fill-rule="evenodd"/><path d="M1575.96 1942.99C1577.74 1941.99 1579.63 1941.12 1581.63 1940.42L1586.49 1938.36C1597.08 1933.74 1606.69 1926.39 1614.58 1918.43 1621.26 1912.25 1629.68 1900.31 1633 1892.42 1636.98 1883.18 1642.91 1877.11 1651.05 1872.04 1659.99 1867.96 1669.65 1863.56 1677.14 1856.93 1687.42 1848.53 1697.78 1836.37 1702.97 1824.22 1707.41 1812.99 1713.61 1805.09 1723.42 1798.85 1734.31 1793.81 1746.07 1787.17 1754.26 1778.24 1769.17 1765.67 1771.84 1744.46 1785.75 1731.75 1796.35 1721.51 1812.97 1718.12 1823.06 1706.51 1851.21 1677.18 1837.36 1663.41 1883.46 1643.76 1887.06 1641.8 1890.19 1639.52 1892.99 1637.04 1893.01 1637.03 1893 1637 1892.98 1637L1863.36 1637C1856.71 1639.65 1850.09 1642.65 1844.8 1647.31 1828.36 1657.68 1823.33 1678.18 1807.75 1688.94 1799.02 1696.2 1789.82 1696.93 1779.24 1701.81 1770.76 1705.91 1763.78 1711.04 1756.9 1717.34 1748 1724.54 1742.85 1737.15 1735.52 1744.76 1728.48 1751.92 1719.37 1756.83 1709.58 1759.29 1697.66 1763.18 1687.2 1770.23 1678.06 1778.38 1663.16 1790.9 1658.13 1812.9 1638.45 1818.92 1629.5 1821.77 1620.18 1825.8 1612.54 1831.22 1600.05 1839.61 1588.12 1852.68 1581.48 1865.74 1576.58 1874.51 1570.24 1879.97 1561.41 1883.85 1538.38 1891.56 1517.07 1909.41 1506.13 1931.13 1502.77 1937.52 1501.76 1939.37 1498.01 1942.96 1497.99 1942.97 1498 1943 1498.02 1943L1575.96 1943Z" fill="#FFFFFF" fill-rule="evenodd"/><path d="M1575.34 1802.79C1580.56 1800.27 1583.62 1804.11 1586.06 1809.49 1588.5 1814.87 1589.4 1819.75 1584.17 1822.26 1578.95 1824.77 1564 1820.11 1564 1820.11 1564 1820.11 1570.12 1805.3 1575.34 1802.79Z" fill="#505050" fill-rule="evenodd"/><path d="M1665.34 1661.75C1670.56 1659.36 1673.62 1663.01 1676.06 1668.13 1678.5 1673.25 1679.39 1677.9 1674.17 1680.29 1668.95 1682.69 1654 1678.25 1654 1678.25 1654 1678.25 1660.12 1664.15 1665.34 1661.75Z" fill="#505050" fill-rule="evenodd"/><path d="M1499 1877C1499 1884.73 1492.51 1891 1484.5 1891 1476.49 1891 1470 1884.73 1470 1877 1470 1869.27 1476.49 1863 1484.5 1863 1492.51 1863 1499 1869.27 1499 1877Z" fill="#505050" fill-rule="evenodd"/><path d="M1365 1927C1365 1934.73 1358.73 1941 1351 1941 1343.27 1941 1337 1934.73 1337 1927 1337 1919.27 1343.27 1913 1351 1913 1358.73 1913 1365 1919.27 1365 1927Z" fill="#505050" fill-rule="evenodd"/><path d="M1597 1759.5C1597 1767.51 1590.73 1774 1583 1774 1575.27 1774 1569 1767.51 1569 1759.5 1569 1751.49 1575.27 1745 1583 1745 1590.73 1745 1597 1751.49 1597 1759.5Z" fill="#505050" fill-rule="evenodd"/><path d="M1483.25 1841.81C1485.64 1847.25 1481.99 1850.43 1476.87 1852.98 1471.75 1855.52 1467.1 1856.45 1464.71 1851.01 1462.31 1845.58 1466.75 1830 1466.75 1830 1466.75 1830 1480.85 1836.37 1483.25 1841.81Z" fill="#505050" fill-rule="evenodd"/><path d="M1403.25 1921.34C1405.64 1926.56 1401.99 1929.62 1396.87 1932.06 1391.75 1934.5 1387.1 1935.39 1384.71 1930.17 1382.31 1924.95 1386.75 1910 1386.75 1910 1386.75 1910 1400.86 1916.12 1403.25 1921.34Z" fill="#505050" fill-rule="evenodd"/><path d="M1724.21 1666.34C1726.73 1671.56 1722.89 1674.62 1717.51 1677.06 1712.14 1679.5 1707.26 1680.39 1704.74 1675.17 1702.23 1669.95 1706.89 1655 1706.89 1655 1706.89 1655 1721.7 1661.12 1724.21 1666.34Z" fill="#505050" fill-rule="evenodd"/><path d="M1542.34 1755.75C1547.56 1753.36 1550.62 1757.01 1553.06 1762.13 1555.5 1767.25 1556.39 1771.9 1551.17 1774.29 1545.95 1776.69 1531 1772.25 1531 1772.25 1531 1772.25 1537.12 1758.14 1542.34 1755.75Z" fill="#505050" fill-rule="evenodd"/><path d="M1755 1818.74C1755 1818.74 1762.79 1815.38 1769.97 1818.01 1777.15 1820.64 1781 1828.26 1781 1828.26 1781 1828.26 1773.21 1831.62 1766.03 1828.99 1758.85 1826.37 1755 1818.74 1755 1818.74Z" fill="#FFFFFF" fill-rule="evenodd"/><path d="M1920.26 1670C1920.26 1670 1923.62 1678.09 1920.99 1685.55 1918.36 1693.01 1910.74 1697 1910.74 1697 1910.74 1697 1907.38 1688.91 1910.01 1681.45 1912.64 1673.99 1920.26 1670 1920.26 1670Z" fill="#FFFFFF" fill-rule="evenodd"/><path d="M1699.26 1887C1699.26 1887 1702.62 1894.79 1699.99 1901.97 1697.36 1909.15 1689.74 1913 1689.74 1913 1689.74 1913 1686.38 1905.21 1689.01 1898.03 1691.64 1890.85 1699.26 1887 1699.26 1887Z" fill="#FFFFFF" fill-rule="evenodd"/><path d="M1918 1704.74C1918 1704.74 1925.79 1701.38 1932.97 1704.01 1940.15 1706.64 1944 1714.26 1944 1714.26 1944 1714.26 1936.21 1717.62 1929.03 1714.99 1921.84 1712.37 1918 1704.74 1918 1704.74Z" fill="#FFFFFF" fill-rule="evenodd"/><path d="M1792.74 1847C1792.74 1847 1789.38 1839.21 1792.01 1832.03 1794.64 1824.85 1802.26 1821 1802.26 1821 1802.26 1821 1805.62 1828.79 1802.99 1835.97 1800.36 1843.15 1792.74 1847 1792.74 1847Z" fill="#FFFFFF" fill-rule="evenodd"/><path d="M2087.21 1788C2085.88 1788 2084.54 1787.5 2083.53 1786.51 2081.49 1784.53 2081.49 1781.31 2083.53 1779.33L2112.1 1751.49C2114.14 1749.5 2117.44 1749.5 2119.47 1751.49 2121.51 1753.47 2121.51 1756.69 2119.47 1758.67L2090.9 1786.51C2089.88 1787.5 2088.54 1788 2087.21 1788Z" fill="#737373" fill-rule="evenodd"/><path d="M2022.21 1912C2020.88 1912 2019.54 1911.51 2018.53 1910.51 2016.49 1908.53 2016.49 1905.31 2018.53 1903.33L2047.1 1875.49C2049.14 1873.5 2052.44 1873.5 2054.47 1875.49 2056.51 1877.47 2056.51 1880.69 2054.47 1882.67L2025.9 1910.51C2024.88 1911.5 2023.55 1912 2022.21 1912Z" fill="#737373" fill-rule="evenodd"/><path d="M2141.77 1816 2101.23 1816C2098.34 1816 2096 1813.76 2096 1811 2096 1808.24 2098.34 1806 2101.23 1806L2141.77 1806C2144.66 1806 2147 1808.24 2147 1811 2147 1813.76 2144.66 1816 2141.77 1816Z" fill="#FFFFFF" fill-rule="evenodd"/><path d="M2091.79 1888C2090.45 1888 2089.12 1887.49 2088.1 1886.47L2059.53 1857.9C2057.49 1855.86 2057.49 1852.56 2059.53 1850.53 2061.56 1848.49 2064.86 1848.49 2066.9 1850.53L2095.47 1879.1C2097.51 1881.14 2097.51 1884.44 2095.47 1886.47 2094.46 1887.49 2093.12 1888 2091.79 1888Z" fill="#FFFFFF" fill-rule="evenodd"/><path d="M1965.13 1905C1964.59 1905 1964.03 1904.91 1963.49 1904.73 1960.81 1903.82 1959.36 1900.9 1960.27 1898.22L1973.01 1860.49C1973.92 1857.81 1976.83 1856.36 1979.51 1857.27 1982.2 1858.18 1983.64 1861.1 1982.73 1863.78L1969.99 1901.51C1969.27 1903.65 1967.27 1905 1965.13 1905Z" fill="#FFFFFF" fill-rule="evenodd"/><path d="M2186.92 1727C2185.62 1727 2184.32 1726.49 2183.33 1725.47L2155.49 1696.9C2153.5 1694.86 2153.5 1691.56 2155.49 1689.53 2157.47 1687.49 2160.69 1687.49 2162.67 1689.53L2190.51 1718.1C2192.5 1720.14 2192.5 1723.44 2190.51 1725.47 2189.52 1726.49 2188.22 1727 2186.92 1727Z" fill="#FFFFFF" fill-rule="evenodd"/><path d="M2190.08 1787C2188.78 1787 2187.48 1786.49 2186.49 1785.47 2184.5 1783.44 2184.5 1780.14 2186.49 1778.1L2214.33 1749.53C2216.31 1747.49 2219.53 1747.49 2221.51 1749.53 2223.5 1751.56 2223.5 1754.86 2221.51 1756.9L2193.67 1785.47C2192.68 1786.49 2191.38 1787 2190.08 1787Z" fill="#737373" fill-rule="evenodd"/><path d="M2298.24 1878.08C2297.56 1870.72 2293.93 1863.67 2287.47 1859 2276.16 1850.82 2260.65 1852.95 2251.76 1863.42L2251.6 1863.29 2157.04 1993.93C2148.45 2005.8 2151.11 2022.39 2162.99 2030.98 2169.45 2035.65 2177.28 2036.89 2184.49 2035.23 2185.17 2042.58 2188.8 2049.64 2195.26 2054.31 2207.14 2062.9 2223.73 2060.23 2232.33 2048.36 2233.11 2047.28 2233.69 2046.12 2234.29 2044.98 2236.12 2049.28 2239.02 2053.2 2243.08 2056.14 2254.96 2064.72 2271.56 2062.06 2280.16 2050.19 2280.94 2049.11 2281.52 2047.95 2282.12 2046.8 2283.95 2051.11 2286.84 2055.03 2290.91 2057.96 2302.79 2066.55 2319.39 2063.89 2327.98 2052.02 2328.34 2051.53 2328.56 2050.98 2328.87 2050.48 2340.68 2058.28 2356.62 2055.54 2364.99 2043.98 2373.36 2032.42 2370.97 2016.44 2359.88 2007.68 2367.38 1995.92 2364.6 1980.26 2353.15 1971.98 2349.08 1969.03 2344.46 1967.51 2339.79 1967.12 2340.7 1966.2 2341.61 1965.28 2342.39 1964.2 2350.99 1952.33 2348.32 1935.74 2336.44 1927.15 2332.38 1924.21 2327.75 1922.69 2323.09 1922.3 2323.99 1921.37 2324.91 1920.46 2325.69 1919.38 2334.28 1907.51 2331.62 1890.92 2319.74 1882.33 2313.28 1877.66 2305.44 1876.42 2298.24 1878.08Z" fill="#737373" fill-rule="evenodd"/><path d="M2263.42 1925.17C2270.35 1930.56 2271.59 1940.55 2266.2 1947.48 2260.81 1954.4 2250.82 1955.65 2243.89 1950.25 2236.96 1944.86 2235.72 1934.87 2241.11 1927.94 2246.5 1921.02 2256.49 1919.77 2263.42 1925.17Z" fill="#505050" fill-rule="evenodd"/><path d="M2253.13 1997.81C2260.06 2003.21 2261.3 2013.2 2255.91 2020.12 2250.51 2027.05 2240.53 2028.3 2233.6 2022.9 2226.67 2017.51 2225.43 2007.52 2230.82 2000.59 2236.21 1993.67 2246.2 1992.42 2253.13 1997.81Z" fill="#505050" fill-rule="evenodd"/><path d="M2202.05 2017.99C2181.2 2018.53 2176.99 1991.29 2196.95 1985.01 2217.8 1984.47 2222.01 2011.71 2202.05 2017.99Z" fill="#505050" fill-rule="evenodd"/><path d="M2311.94 1974.36C2318.87 1979.75 2320.11 1989.74 2314.72 1996.67 2309.32 2003.6 2299.34 2004.84 2292.41 1999.45 2285.48 1994.05 2284.24 1984.07 2289.63 1977.14 2295.02 1970.21 2305.01 1968.97 2311.94 1974.36Z" fill="#D0D0D0" fill-rule="evenodd"/><path d="M2316.04 2021.66C2322.97 2027.05 2324.21 2037.04 2318.82 2043.97 2313.43 2050.89 2303.44 2052.14 2296.51 2046.74 2289.58 2041.35 2288.34 2031.36 2293.73 2024.44 2299.13 2017.51 2309.11 2016.26 2316.04 2021.66Z" fill="#505050" fill-rule="evenodd"/><path d="M2218.42 1889.45C2210.12 1900.89 2204.36 1912.13 2202.24 1920.12 2202.23 1920.14 2202.21 1920.14 2202.2 1920.13 2196.78 1915.47 2187.01 1905.12 2183.73 1888.86 2180.21 1871.45 2186.24 1857.35 2189.13 1851.9 2190.34 1849.63 2189.9 1846.72 2187.87 1845.13 2185.22 1843.07 2181.48 1843.95 2179.97 1846.77 2175.77 1854.59 2169.35 1870.73 2173.43 1890.93 2176.07 1904.03 2182.27 1913.9 2188 1920.64 2188.01 1920.66 2188 1920.68 2187.97 1920.68 2180.81 1919.3 2171.93 1918.56 2162.29 1918.73 2139.62 1919.14 2121.3 1930.52 2120.03 1931.32 2119.99 1931.35 2119.99 1931.39 2120.03 1931.41 2121.33 1932.17 2140.06 1942.87 2162.72 1942.45 2170.01 1942.32 2176.87 1941.68 2182.85 1940.67 2182.87 1940.67 2182.89 1940.7 2182.87 1940.72 2178.75 1944.95 2174.48 1950.02 2170.35 1955.7 2157.06 1974.01 2155.17 1995.45 2155.05 1996.94 2155.05 1996.99 2155.08 1997.01 2155.12 1996.99 2156.51 1996.42 2176.34 1987.92 2189.63 1969.61 2201.13 1953.76 2207.77 1938.28 2206.56 1931.36 2213.54 1930.34 2226.21 1919.2 2237.71 1903.36 2251 1885.05 2252.88 1863.61 2253 1862.12 2253 1862.07 2252.97 1862.05 2252.93 1862.07 2251.54 1862.64 2231.71 1871.14 2218.42 1889.45Z" fill="#505050" fill-rule="evenodd"/></g></svg>